<svg width="161" height="45" viewBox="0 0 161 45" fill="none" xmlns="http://www.w3.org/2000/svg">
<path fill-rule="evenodd" clip-rule="evenodd" d="M150.448 29.8796L143.98 14.3516H138.859L148.06 35.3542L147.844 35.7826C146.672 38.7342 145.023 40.1457 142.071 39.9743V44.2946C147.063 44.594 150.579 41.9421 152.662 36.4243L160.996 14.3516H156.004L150.448 29.8796Z" fill="#2A2A2C"/>
<path fill-rule="evenodd" clip-rule="evenodd" d="M129.931 32.3702C127.634 32.3702 125.688 31.2685 124.511 29.5235C124.672 29.1311 124.814 28.749 124.945 28.3831L124.949 28.3682C125.18 27.7085 125.395 27.0199 125.588 26.3165C125.949 24.9991 126.244 23.6387 126.466 22.2761C126.603 21.4401 126.717 20.4379 126.807 19.3696C127.728 18.8793 128.785 18.6026 129.931 18.6026C133.678 18.6026 136.506 21.5618 136.506 25.4864C136.506 29.4107 133.678 32.3702 129.931 32.3702ZM121.525 6.44225C121.602 6.00129 121.68 5.55835 121.772 5.12401C121.818 4.89857 121.9 4.7594 121.961 4.68536C121.961 4.68536 124.177 11.4412 121.963 24.6782C120.365 15.903 121.09 9.16172 121.525 6.44225ZM101.709 32.4307C97.9791 32.4307 95.1671 29.4857 95.1671 25.5803C95.1671 21.6754 97.9791 18.7302 101.709 18.7302C105.461 18.7302 108.29 21.6754 108.29 25.5803C108.29 29.4857 105.461 32.4307 101.709 32.4307ZM137.656 17.6071C135.715 15.5365 133.124 14.3963 130.363 14.3963C129.173 14.3963 128.065 14.586 127.053 14.952C127.079 14.1064 127.092 13.3013 127.092 12.5853C127.086 9.7577 126.878 8.36871 126.46 5.82577C126.363 5.23077 126.251 4.63313 126.129 4.05103C125.661 1.81352 123.948 0.25 121.963 0.25C120.458 0.25 119.112 1.15043 118.343 2.55957L118.344 2.55528C118.304 2.63097 118.269 2.71791 118.233 2.79956C118.12 3.03128 118.024 3.2739 117.946 3.52876C117.066 6.16162 116.892 10.3854 116.892 10.3854L116.895 10.3669C116.857 11.0274 116.834 11.74 116.832 12.5906C116.833 13.2245 116.844 13.9356 116.864 14.677L116.863 14.6817L116.864 14.6856C116.934 17.2507 117.125 20.2465 117.458 22.2728C117.68 23.638 117.975 24.9978 118.337 26.3197C118.529 27.0199 118.744 27.7085 118.974 28.3682L118.98 28.3831C119.085 28.6742 119.195 28.975 119.315 29.2838C119.469 29.6709 119.649 30.0454 119.852 30.4077L119.869 30.4355C119.16 31.6162 117.937 32.4307 116.499 32.4307C114.282 32.4307 112.477 30.2407 112.477 27.9461L112.453 26.7835L112.452 14.5381H108.289L108.29 17.7571C106.573 15.6498 104.172 14.5444 101.279 14.5444C95.6134 14.5444 91.0039 19.4952 91.0039 25.5803C91.0039 31.6657 95.6134 36.6165 101.279 36.6165C102.649 36.6165 103.899 36.3497 105.028 35.8644L104.998 35.9005C104.998 35.9005 107.42 35.1644 109.563 32.115C110.871 34.7287 113.482 36.8102 116.499 36.8102C118.85 36.8102 120.923 35.6926 122.359 33.987L122.437 33.9116C124.041 35.2853 126.523 36.6264 130.105 36.6264C130.657 36.6264 131.237 36.5947 131.842 36.5259C134.043 36.1944 136.064 35.0633 137.656 33.3658C139.612 31.283 140.688 28.4845 140.688 25.4864C140.688 22.488 139.612 19.6895 137.656 17.6071Z" fill="#2A2A2C"/>
<path fill-rule="evenodd" clip-rule="evenodd" d="M91.0033 14.3125H90.6217C88.0975 14.3125 86.1366 15.2178 84.8738 16.9475V14.668H80.6914V35.8736H84.8738V24.317C84.8738 22.4733 85.3879 21.0425 86.4032 20.0642C87.4085 19.0944 88.9007 18.5992 90.6066 18.6675L91.0033 18.6837V14.3125Z" fill="#2A2A2C"/>
<path fill-rule="evenodd" clip-rule="evenodd" d="M66.6072 31.7846C62.6947 31.7846 59.7455 28.9076 59.7455 25.0929C59.7455 21.2782 62.6947 18.4011 66.6072 18.4011C70.5429 18.4011 73.5105 21.2782 73.5105 25.0929C73.5105 28.9076 70.5429 31.7846 66.6072 31.7846ZM73.5105 17.4509C71.7099 15.3922 69.191 14.3125 66.1558 14.3125C60.2136 14.3125 55.3789 19.1489 55.3789 25.0929C55.3789 31.0373 60.2136 35.8736 66.1558 35.8736C69.191 35.8736 71.7096 34.7934 73.5105 32.7352V35.8736H77.8775V14.4177H73.5105V17.4509Z" fill="#2A2A2C"/>
<path fill-rule="evenodd" clip-rule="evenodd" d="M36.4315 23.2859C37.1289 20.2118 39.6022 18.3224 42.9866 18.3224C45.4572 18.3224 48.2949 19.6366 49.0597 23.2859H36.4315ZM42.9866 14.3125C36.5869 14.3125 31.9414 18.846 31.9414 25.0927C31.9414 31.4405 36.5836 35.8736 43.2301 35.8736C47.2192 35.8736 50.5125 34.2246 52.5045 31.2312L52.7315 30.8893L49.027 28.844L48.8273 29.1618C47.7668 30.8536 45.7047 31.8634 43.3114 31.8634C39.7627 31.8634 37.23 30.0774 36.4458 27.0583H53.325L53.3763 26.7324C53.4602 26.1996 53.5025 25.6613 53.5025 25.1323C53.5025 18.964 48.982 14.3125 42.9866 14.3125Z" fill="#2A2A2C"/>
<path fill-rule="evenodd" clip-rule="evenodd" d="M7.91505 31.5609L7.49839 33.0949C7.45908 33.2385 7.33663 33.3346 7.19355 33.3346C7.04532 33.333 6.92351 33.2346 6.88677 33.0886L6.49879 31.5465C5.66997 28.2501 5.29359 22.3579 6.42563 17.211L7.19548 13.709C7.21836 13.8261 7.24318 13.9406 7.2638 14.0605L7.86091 17.2341C8.85698 22.529 8.8776 28.0183 7.91505 31.5609ZM24.0028 16.0401C25.4987 14.3659 26.4058 12.1946 26.4058 9.82295C26.4058 4.54449 21.9233 0.25 16.4137 0.25C13.5531 0.25 10.8253 1.42615 8.92981 3.47647L7.80484 4.82271C7.35596 4.26057 6.88773 3.76407 6.4179 3.32681C5.43634 2.34116 4.18861 1.50316 2.76073 0.87775C1.87391 0.473311 1.28807 0.328008 1.28807 0.328008L0.0703125 4.6235C0.0832023 4.62785 0.0957699 4.63254 0.10866 4.63655C0.445084 4.74905 3.59761 6.03769 5.12086 8.61866C0.765395 16.2276 0.810832 26.5777 2.71723 32.892C2.77299 33.0761 2.83131 33.251 2.88964 33.4253C3.14808 34.1221 4.55661 37.5488 7.23351 37.5488C8.02172 37.5488 10.0067 37.1708 11.4085 33.6708C11.6135 33.1197 11.782 32.6018 11.9232 32.0918C12.1213 31.375 12.2895 30.611 12.4236 29.8203C12.5525 29.0612 12.6508 28.2573 12.7165 27.4318C12.9643 24.3298 12.7548 20.8405 12.0933 17.061C11.7379 15.0322 11.258 12.9516 10.6667 10.8591L10.6693 10.8622C10.5094 10.1808 10.3171 9.54137 10.0983 8.94175V8.94141C10.0983 8.94141 10.921 7.552 11.956 6.4957L11.9569 6.49671C13.0649 5.29778 14.6893 4.61011 16.4137 4.61011C19.6094 4.61011 22.2091 6.94835 22.2091 9.82295C22.2091 12.6979 19.6094 15.0368 16.4137 15.0368L14.8569 15.0846L15.1768 19.4933L18.8933 19.3327C23.2313 19.352 26.7535 22.4071 26.7535 26.1598C26.7535 29.9243 23.2088 32.9871 18.8517 32.9871C17.5141 32.9871 15.7347 32.5696 14.571 32.0098L13.1091 36.0938C14.8211 36.9173 16.9089 37.3469 18.8517 37.3469C25.5229 37.3469 30.9497 32.3285 30.9497 26.1598C30.9497 21.694 28.1044 17.8328 24.0028 16.0401Z" fill="#2A2A2C"/>
</svg>
