<?xml version="1.0" encoding="UTF-8"?>
<svg width="138px" height="38px" viewBox="0 0 138 38" version="1.1" xmlns="http://www.w3.org/2000/svg" xmlns:xlink="http://www.w3.org/1999/xlink">
    <title>svgexport-8</title>
    <g id="Symbols" stroke="none" stroke-width="1" fill="none" fill-rule="evenodd">
        <g id="svgexport-8" fill="#FFFFFF">
            <path d="M128.333,25.2792 L122.813,12.0278 L118.443,12.0278 L126.295,29.9512 L126.11,30.3168 C125.11,32.8356 123.703,34.0402 121.184,33.8939 L121.184,37.5808 C125.444,37.8363 128.444,35.5732 130.222,30.8644 L137.334,12.0278 L133.074,12.0278 L128.333,25.2792 Z" id="Path"></path>
            <path d="M110.82,27.411 C108.86,27.411 107.199,26.4708 106.195,24.9816 C106.332,24.6468 106.453,24.3207 106.565,24.0084 L106.569,23.9957 C106.766,23.4327 106.949,22.8451 107.114,22.2448 C107.422,21.1206 107.674,19.9596 107.863,18.7968 C107.98,18.0834 108.077,17.2281 108.154,16.3164 C108.94,15.898 109.842,15.6619 110.82,15.6619 C114.018,15.6619 116.431,18.1872 116.431,21.5364 C116.431,24.8854 114.018,27.411 110.82,27.411 M103.647,5.28439 C103.712,4.90808 103.779,4.53008 103.857,4.15942 C103.897,3.96703 103.967,3.84827 104.019,3.78508 C104.019,3.78508 105.91,9.55044 104.02,20.8467 C102.657,13.3581 103.275,7.60515 103.647,5.28439 M86.7356,27.4626 C83.5528,27.4626 81.1531,24.9494 81.1531,21.6166 C81.1531,18.2842 83.5528,15.7708 86.7356,15.7708 C89.9376,15.7708 92.3522,18.2842 92.3522,21.6166 C92.3522,24.9494 89.9376,27.4626 86.7356,27.4626 M117.413,14.8123 C115.756,13.0453 113.545,12.0723 111.189,12.0723 C110.173,12.0723 109.228,12.2342 108.364,12.5465 C108.386,11.8249 108.397,11.1378 108.397,10.5268 C108.392,8.11375 108.215,6.92841 107.858,4.75829 C107.775,4.25053 107.68,3.74051 107.576,3.24375 C107.176,1.33429 105.714,0 104.02,0 C102.736,0 101.587,0.768413 100.931,1.97096 L100.932,1.9673 C100.898,2.03189 100.868,2.10608 100.837,2.17576 C100.741,2.37351 100.659,2.58056 100.592,2.79805 C99.8411,5.0449 99.6925,8.64944 99.6925,8.64944 L99.6955,8.63365 C99.6628,9.19726 99.6437,9.80545 99.6421,10.5313 C99.6423,11.0723 99.6519,11.6791 99.6693,12.3118 L99.6685,12.3158 L99.6693,12.3192 C99.7288,14.5082 99.8921,17.0648 100.176,18.794 C100.365,19.959 100.617,21.1195 100.926,22.2476 C101.09,22.8451 101.273,23.4327 101.47,23.9957 L101.475,24.0084 C101.564,24.2569 101.658,24.5136 101.761,24.7771 C101.892,25.1074 102.046,25.427 102.219,25.7362 L102.233,25.7599 C101.628,26.7675 100.585,27.4626 99.3572,27.4626 C97.4652,27.4626 95.9251,25.5937 95.9251,23.6355 L95.9044,22.6434 L95.9041,12.1933 L92.3516,12.1933 L92.3522,14.9403 C90.8871,13.142 88.8375,12.1987 86.3689,12.1987 C81.534,12.1987 77.6003,16.4236 77.6003,21.6166 C77.6003,26.8098 81.534,31.0347 86.3689,31.0347 C87.5382,31.0347 88.605,30.807 89.5687,30.3929 L89.5428,30.4237 C89.5428,30.4237 91.6098,29.7955 93.4383,27.1932 C94.5549,29.4237 96.7825,31.2 99.3572,31.2 C101.364,31.2 103.133,30.2463 104.358,28.7907 L104.425,28.7264 C105.794,29.8987 107.912,31.0432 110.969,31.0432 C111.44,31.0432 111.935,31.0161 112.451,30.9574 C114.329,30.6745 116.054,29.7092 117.413,28.2606 C119.082,26.4832 120,24.095 120,21.5364 C120,18.9776 119.082,16.5894 117.413,14.8123" id="Shape"></path>
            <path d="M77.6003,12 L77.2747,12 C75.1206,12 73.4472,12.7726 72.3695,14.2487 L72.3695,12.3034 L68.8003,12.3034 L68.8003,30.4 L72.3695,30.4 L72.3695,20.5377 C72.3695,18.9643 72.8082,17.7433 73.6747,16.9084 C74.5326,16.0808 75.806,15.6582 77.2618,15.7165 L77.6003,15.7303 L77.6003,12 Z" id="Path"></path>
            <path d="M56.7823,26.9105 C53.4434,26.9105 50.9266,24.4553 50.9266,21.1999 C50.9266,17.9444 53.4434,15.4892 56.7823,15.4892 C60.141,15.4892 62.6735,17.9444 62.6735,21.1999 C62.6735,24.4553 60.141,26.9105 56.7823,26.9105 L56.7823,26.9105 Z M62.6735,14.6783 C61.1369,12.9214 58.9873,12 56.3971,12 C51.3261,12 47.2002,16.1273 47.2002,21.1999 C47.2002,26.2727 51.3261,30.4 56.3971,30.4 C58.9873,30.4 61.1366,29.4781 62.6735,27.7217 L62.6735,30.4 L66.4002,30.4 L66.4002,12.0898 L62.6735,12.0898 L62.6735,14.6783 Z" id="Shape"></path>
            <path d="M31.032,19.6578 C31.6271,17.0344 33.7378,15.422 36.626,15.422 C38.7344,15.422 41.1561,16.5435 41.8087,19.6578 L31.032,19.6578 Z M36.626,12 C31.1646,12 27.2002,15.8688 27.2002,21.1997 C27.2002,26.6168 31.1618,30.4 36.8338,30.4 C40.2381,30.4 43.0485,28.9927 44.7485,26.4382 L44.9422,26.1464 L41.7808,24.401 L41.6104,24.6722 C40.7054,26.116 38.9456,26.9777 36.9032,26.9777 C33.8748,26.9777 31.7134,25.4536 31.0442,22.8771 L45.4487,22.8771 L45.4925,22.599 C45.5641,22.1443 45.6002,21.6849 45.6002,21.2335 C45.6002,15.9695 41.7424,12 36.626,12 L36.626,12 Z" id="Shape"></path>
            <path d="M6.6946,26.7203 L6.33903,28.0294 C6.30548,28.152 6.20098,28.234 6.07888,28.234 C5.95238,28.2326 5.84843,28.1486 5.81708,28.024 L5.48598,26.708 C4.77868,23.8949 4.45748,18.8666 5.42355,14.4743 L6.08053,11.4857 C6.10005,11.5857 6.12123,11.6834 6.13883,11.7857 L6.6484,14.494 C7.49843,19.0126 7.51603,23.6971 6.6946,26.7203 M20.4237,13.4751 C21.7003,12.0463 22.4744,10.1934 22.4744,8.16943 C22.4744,3.66486 18.6491,0 13.9472,0 C11.506,0 9.17813,1.00371 7.56058,2.75343 L6.60055,3.90229 C6.21748,3.42257 5.8179,2.99886 5.41695,2.62571 C4.5793,1.78457 3.5145,1.06943 2.29597,0.535714 C1.53917,0.190571 1.03922,0.0665714 1.03922,0.0665714 L0,3.73229 C0.011,3.736 0.021725,3.74 0.032725,3.74343 C0.319825,3.83943 3.01015,4.93914 4.31007,7.14171 C0.593175,13.6351 0.63195,22.4677 2.25885,27.8563 C2.30643,28.0134 2.3562,28.1626 2.40598,28.3114 C2.62653,28.906 3.82855,31.8303 6.11298,31.8303 C6.78563,31.8303 8.47962,31.5077 9.67587,28.5209 C9.85077,28.0506 9.9946,27.6086 10.1151,27.1734 C10.2842,26.5617 10.4277,25.9097 10.5421,25.2349 C10.6521,24.5871 10.736,23.9011 10.7921,23.1966 C11.0036,20.5494 10.8248,17.5717 10.2603,14.3463 C9.95693,12.6149 9.54745,10.8394 9.04282,9.05371 L9.04502,9.05629 C8.90862,8.47486 8.74445,7.92914 8.55772,7.41743 L8.55772,7.41714 C8.55772,7.41714 9.2598,6.23143 10.1431,5.33 L10.1439,5.33086 C11.0894,4.30771 12.4757,3.72086 13.9472,3.72086 C16.6744,3.72086 18.893,5.71629 18.893,8.16943 C18.893,10.6229 16.6744,12.6189 13.9472,12.6189 L12.6187,12.6597 L12.8917,16.422 L16.0633,16.2849 C19.7653,16.3014 22.7711,18.9086 22.7711,22.1111 C22.7711,25.3237 19.7461,27.9374 16.0278,27.9374 C14.8863,27.9374 13.3678,27.5811 12.3747,27.1034 L11.1271,30.5886 C12.5881,31.2914 14.3698,31.658 16.0278,31.658 C21.7209,31.658 26.3521,27.3754 26.3521,22.1111 C26.3521,18.3 23.9239,15.0049 20.4237,13.4751" id="Shape"></path>
        </g>
    </g>
</svg>