<svg width="160" height="53" viewBox="0 0 160 53" fill="none" xmlns="http://www.w3.org/2000/svg">
<path d="M25.5226 17.3211C24.0407 16.3704 23.7232 13.9521 23.7232 13.9521C21.6499 13.2694 19.6306 12.4323 17.6824 11.4477C16.3344 10.5449 16.017 10.0057 13.98 9.4187C18.3396 5.76419 16.762 -0.24319 16.3265 1.84807C15.9851 3.49746 12.8698 7.32585 11.5234 8.94175C11.4357 8.94175 11.2299 8.99758 11.1422 8.99758C14.3692 5.11495 12.9974 -0.712167 12.6496 0.635744C12.0945 2.7924 6.65661 11.2021 6.65661 11.2021C6.65661 11.2021 3.46948 14.0638 3.12971 14.9045C3.12971 14.9045 3.88262 14.7226 4.28779 14.7545C4.28779 14.7545 1.33834 20.1047 1.2841 22.4831C1.2841 22.4831 1.76744 21.9599 2.05297 21.77C2.03702 22.491 2.84577 27.4297 3.1632 29.3327C3.5285 31.5276 3.52052 33.8582 1.29208 34.619C0.876484 34.7602 0.438646 34.8246 0 34.8089C3.50297 39.4859 10.8519 52.5088 10.8519 52.5088C13.9912 50.2899 15.9723 47.2304 16.5035 45.7389C16.5833 45.7469 17.5101 46.1584 17.5101 46.1584C19.3972 42.4641 18.6203 37.8189 18.0173 36.6385C18.9601 37.1936 19.3014 37.1139 19.3014 37.1139C19.1978 36.1472 17.534 32.1354 17.534 32.1354C18.6283 32.2774 18.9298 31.9137 18.9298 31.9137C16.8848 30.5338 15.7347 26.7374 15.7347 26.7374C16.21 27.0149 16.4477 27.1106 17.3681 27.6179C15.8144 24.5105 13.3882 21.5148 13.3882 21.5148C14.7042 21.9104 16.6296 20.5162 17.4862 20.0967C18.1482 19.7866 18.8349 19.5321 19.5391 19.3358C20.3638 19.3597 21.3863 20.0808 22.1472 20.0249C23.082 19.9611 25.0329 17.8762 25.2945 17.8922C25.58 17.9081 25.7698 17.4806 25.5242 17.3211H25.5226ZM14.2831 13.1753H14.2512C14.1172 13.2072 13.9816 13.263 13.8556 13.3252C13.7678 13.3651 13.6897 13.405 13.6099 13.4369C13.2622 13.5935 12.8781 13.6515 12.4997 13.6044C11.6112 13.4927 10.9221 12.7717 10.4866 11.8768C10.79 11.9539 11.1006 11.9988 11.4134 12.0108C12.1663 12.0587 13.1409 12.0507 13.7678 11.947C13.8237 11.9391 13.8875 11.9391 13.9417 11.9391C14.7664 11.9789 15.044 13.3348 15.044 13.3348C15.044 13.3348 14.7903 13.0732 14.2831 13.1769V13.1753ZM154.664 23.1084L151.001 22.2438V24.7019H154.664V23.1084ZM122.901 33.587C122.901 33.0957 122.885 32.5565 122.861 31.9376C122.837 31.3607 122.757 30.7875 122.623 30.226C122.487 29.6605 122.268 29.1182 121.974 28.6165C121.654 28.0837 121.227 27.6223 120.722 27.2606C120.191 26.8729 119.509 26.5715 118.701 26.3497C117.892 26.128 116.909 26.0163 115.751 26.0163C115.006 26.0084 114.253 26.0722 113.516 26.1902C112.921 26.278 112.336 26.404 111.757 26.5635C111.204 26.6959 110.663 26.8736 110.139 27.0947L110.02 27.1425L109.339 30.9629L112.248 31.5181L112.644 29.3231C113.692 29.0514 114.772 28.9184 115.855 28.9275C116.52 28.9275 117.075 28.9993 117.52 29.1333C117.965 29.2673 118.305 29.4428 118.559 29.6645C118.803 29.8679 118.996 30.1258 119.122 30.4174C119.254 30.7173 119.345 31.0347 119.391 31.3601C119.447 31.6935 119.471 32.0333 119.463 32.3747C119.455 32.732 119.455 33.0717 119.455 33.3972V33.445L114.778 33.4051C113.93 33.4051 113.083 33.5008 112.25 33.6907C111.501 33.8628 110.791 34.1745 110.157 34.6095C109.553 35.0298 109.063 35.5939 108.731 36.2509C108.39 36.9161 108.216 37.7169 108.232 38.6373C108.236 39.3697 108.401 40.0922 108.715 40.754C109.043 41.4101 109.509 41.9882 110.079 42.4497C110.716 42.9517 111.442 43.3284 112.22 43.5599C113.136 43.8279 114.087 43.9585 115.041 43.9476C116.192 43.9476 117.244 43.7737 118.173 43.4243C118.648 43.2199 119.092 42.9475 119.489 42.6156L119.505 43.3924H122.953L122.906 33.587H122.901ZM119.484 39.722C119.285 39.8605 119.081 39.9925 118.873 40.1176C118.572 40.2996 118.254 40.4508 117.922 40.569C117.519 40.7136 117.106 40.8277 116.686 40.9104C115.798 41.0842 114.745 41.1082 113.84 40.8864C113.454 40.804 113.085 40.6509 112.754 40.435C112.461 40.2368 112.215 39.9771 112.033 39.6741C111.849 39.3512 111.758 38.9833 111.771 38.6117C111.771 38.0965 111.859 37.6849 112.025 37.3835C112.169 37.0983 112.399 36.8655 112.682 36.7183C112.989 36.5507 113.325 36.443 113.673 36.4008C114.076 36.345 114.482 36.3211 114.893 36.3211L119.482 36.361V39.722H119.484ZM137.605 35.1486L142.402 29.4252H145.389V26.5794H137.28V29.4252H138.699L135.664 33.1196L132.175 29.4252H133.919V26.5794H124.788V29.4252H127.768L132.952 34.911L128.229 40.5467H124.788V43.3924H133.341V40.5467H131.953L134.927 37.0198L138.294 40.5467H136.916V43.3924H146.078V40.5467H142.741L137.605 35.1486ZM154.648 26.5794H148.029V29.4252H151.183V40.5467H148.029V43.3924H157.811V40.5467H154.648V26.5794ZM106.263 30.8449C105.899 29.847 105.315 28.9437 104.555 28.2016C103.795 27.4595 102.878 26.8975 101.872 26.5571C100.784 26.1917 99.6425 26.0095 98.4948 26.0179C97.9875 26.0179 97.4803 26.0658 96.981 26.1599C96.5056 26.2556 96.0462 26.3816 95.5852 26.5412C95.1583 26.6913 94.7425 26.8715 94.341 27.0803C94.0209 27.2448 93.709 27.4248 93.4062 27.6195L88.1821 25.8281L87.2936 28.6579L90.9162 29.8623V48.4507H87.7211V51.2965H97.5664V48.4507H94.3713V43.402C94.8978 43.5541 95.4325 43.6761 95.9729 43.7673C96.7497 43.9013 97.5425 43.9651 98.3353 43.9571C99.5955 43.9571 100.762 43.7194 101.8 43.26C102.832 42.8074 103.754 42.137 104.502 41.2948C105.276 40.4212 105.868 39.403 106.246 38.2991C106.657 37.149 106.865 35.8569 106.865 34.4707C106.865 33.0845 106.667 31.8945 106.262 30.8481L106.263 30.8449ZM103.354 34.4755C103.36 35.3816 103.251 36.2849 103.028 37.1633C102.838 37.9084 102.513 38.6124 102.07 39.2402C101.659 39.8049 101.117 40.2618 100.492 40.5722C99.8651 40.8896 99.1281 41.0475 98.305 41.0475H98.2492C97.2389 41.0569 96.2343 40.8962 95.2774 40.5722C94.9634 40.4757 94.6607 40.3457 94.3745 40.1846V30.2371C94.691 29.9995 95.0309 29.7947 95.389 29.6262C95.8111 29.4338 96.2487 29.2774 96.6971 29.1588C97.27 29.0166 97.8582 28.9448 98.4486 28.9451H98.4565C101.746 28.9451 103.355 30.7524 103.355 34.4771L103.354 34.4755ZM158.69 27.318C158.69 27.0006 158.436 26.8347 158.095 26.8347H157.398L157.406 28.3724H157.699V27.8412H158.025L158.39 28.3724H158.747L158.336 27.7854C158.44 27.761 158.533 27.7011 158.598 27.6158C158.663 27.5305 158.697 27.4253 158.693 27.318H158.69ZM158.063 27.6035H157.69V27.0963H158.063C158.261 27.0963 158.372 27.184 158.372 27.3499C158.372 27.4998 158.261 27.6035 158.063 27.6035Z" fill="#2A2A2C"/>
<path d="M157.991 26.111C157.589 26.1126 157.203 26.2738 156.92 26.559C156.636 26.8443 156.477 27.2304 156.477 27.6327V27.6407C156.477 27.8401 156.517 28.0375 156.594 28.2216C156.67 28.4057 156.783 28.5729 156.924 28.7135C157.065 28.8541 157.233 28.9655 157.418 29.0412C157.602 29.1168 157.8 29.1554 157.999 29.1545C158.401 29.1528 158.787 28.9917 159.07 28.7065C159.354 28.4212 159.513 28.0351 159.513 27.6327V27.6248C159.511 27.2224 159.35 26.8371 159.065 26.5534C158.78 26.2696 158.393 26.1105 157.991 26.111ZM159.331 27.6327C159.312 27.9754 159.162 28.2977 158.913 28.5338C158.664 28.7698 158.334 28.9019 157.991 28.9029C157.648 28.9039 157.317 28.7738 157.067 28.5392C156.816 28.3046 156.665 27.9832 156.643 27.6407V27.6327C156.663 27.2901 156.812 26.9678 157.061 26.7317C157.31 26.4956 157.64 26.3636 157.983 26.3626C158.327 26.3616 158.657 26.4916 158.908 26.7262C159.158 26.9608 159.31 27.2822 159.331 27.6248V27.6327ZM55.9821 28.4335C55.2055 27.6467 54.2672 27.0382 53.2321 26.6501C52.1697 26.2386 50.9813 26.0312 49.6892 26.0312C48.5082 26.0171 47.3352 26.2271 46.2325 26.6501C45.211 27.0465 44.2847 27.6543 43.5143 28.4335C42.7614 29.1944 42.1744 30.1531 41.7549 31.2633C41.3353 32.3736 41.1359 33.6417 41.1359 35.0199C41.1359 36.3981 41.3417 37.6599 41.7549 38.7686C42.168 39.8772 42.7614 40.8295 43.5143 41.5904C44.285 42.3673 45.2114 42.9723 46.2325 43.3658C47.3359 43.7856 48.5087 43.9929 49.6892 43.9768C50.9813 43.9768 52.1697 43.771 53.2321 43.3658C54.2689 42.983 55.2069 42.3768 55.9821 41.5904C56.765 40.7845 57.3699 39.8231 57.7575 38.7686C58.1691 37.6663 58.3844 36.4061 58.3844 35.0199C58.3844 33.6337 58.1707 32.356 57.7575 31.2553C57.3665 30.2025 56.762 29.2418 55.9821 28.4335ZM53.5559 39.4991C52.7232 40.5216 51.4231 41.0448 49.7195 41.0448C48.0159 41.0448 46.778 40.5296 45.947 39.4991C45.1063 38.4447 44.6788 36.9389 44.6788 35.0199C44.6788 33.1009 45.1063 31.5712 45.947 30.5168C46.7876 29.4624 48.0558 28.9471 49.7195 28.9471C51.3833 28.9471 52.7072 29.4704 53.5479 30.5248C54.4045 31.5792 54.84 33.093 54.84 35.0199C54.84 36.9469 54.4045 38.4607 53.5559 39.4991ZM38.362 39.4433C37.8971 39.7541 37.4035 40.0195 36.888 40.2361C36.373 40.4668 35.8401 40.6551 35.2945 40.7992C34.6678 40.9612 34.0227 41.0411 33.3755 41.0369C31.7022 41.0369 30.434 40.5137 29.6029 39.4752C28.7543 38.4128 28.3268 36.899 28.3268 34.9721C28.3268 33.0451 28.7543 31.5313 29.6029 30.4849C30.4356 29.4624 31.7038 28.9392 33.3755 28.9392C34.2401 28.9392 34.9132 28.995 35.3886 29.113C35.8161 29.2327 36.0617 29.3029 36.2053 29.3507L36.7126 32.1088L39.6301 31.4659L38.7655 27.0026L38.6539 26.9468C38.2258 26.7579 37.783 26.6043 37.3299 26.4874C36.7893 26.3502 36.2412 26.2442 35.6885 26.17C34.9116 26.0583 34.1348 26.0121 33.35 26.02C32.1728 26.0118 31.004 26.2189 29.9012 26.631C28.8786 27.0215 27.9517 27.6269 27.1831 28.4064C26.4049 29.213 25.8054 30.1745 25.4236 31.2282C25.0121 32.3225 24.8047 33.5907 24.8047 34.9689C24.8047 36.3471 25.0105 37.6168 25.4236 38.7175C25.8039 39.7767 26.4034 40.7437 27.1831 41.5553C27.9513 42.3371 28.8782 42.9452 29.9012 43.3387C31.0009 43.7636 32.1711 43.9763 33.35 43.9656C34.2145 43.9736 35.0695 43.846 35.9022 43.6083C36.6166 43.408 37.3138 43.1509 37.9871 42.8394C38.4787 42.6196 38.9528 42.3625 39.4052 42.0705C40.0002 41.6749 40.0241 41.651 40.0241 41.5074V41.4357L38.5582 39.3029L38.3604 39.4369L38.362 39.4433ZM69.592 40.9268C69.5681 40.9268 69.5202 40.9268 68.9811 41.0225C68.5775 41.0783 68.1644 41.1103 67.7528 41.1103C67.0557 41.0624 66.5245 40.8646 66.1672 40.5153C65.8022 40.1516 65.535 39.7017 65.3904 39.2072C65.224 38.6484 65.1307 38.0704 65.1128 37.4876C65.0969 36.8687 65.0889 36.3072 65.0889 35.8V29.4193H69.8457V26.5736H65.0889V22.5234L61.68 23.3242V26.5815H58.5248V29.4273H61.68V37.4733C61.68 38.5436 61.814 39.4864 62.0836 40.2871C62.3243 41.0422 62.7241 41.7368 63.2561 42.3242C63.7776 42.877 64.421 43.3003 65.1352 43.5604C65.9216 43.8366 66.7502 43.9732 67.5837 43.964C67.941 43.964 68.2808 43.9401 68.6301 43.9082C68.9157 43.8763 69.2012 43.8204 69.4788 43.7502C69.7431 43.6932 70.0028 43.6164 70.2556 43.5205L70.4614 43.4408L69.7803 40.9284H69.5904L69.592 40.9268ZM87.0718 31.2553C86.6823 30.2012 86.0807 29.2381 85.3044 28.4255C84.5216 27.6407 83.5817 27.0302 82.5463 26.6342C81.476 26.2306 80.2876 26.0232 79.0035 26.0232C77.7194 26.0232 76.5932 26.229 75.5547 26.6421C74.5332 27.0385 73.6069 27.6463 72.8366 28.4255C72.0516 29.2345 71.449 30.2021 71.0691 31.2633C70.6576 32.3736 70.4582 33.6417 70.4582 35.0199C70.4582 36.3981 70.664 37.6599 71.0691 38.7686C71.4511 39.8241 72.0536 40.786 72.8366 41.5904C73.6073 42.3673 74.5336 42.9723 75.5547 43.3658C76.6577 43.7773 77.8263 43.9843 79.0035 43.9768C80.2114 43.9852 81.4111 43.7783 82.5463 43.3658C83.5825 42.9788 84.5231 42.3733 85.3044 41.5904C86.0822 40.782 86.684 39.8212 87.0718 38.7686C87.4913 37.6583 87.7067 36.3981 87.7067 35.0199C87.7067 33.6417 87.5009 32.364 87.0718 31.2553ZM82.8781 39.4912C82.0295 40.5216 80.7773 41.0369 79.0418 41.0369C77.3461 41.0369 76.1083 40.5296 75.2692 39.4912C74.4206 38.4447 73.9931 36.9309 73.9931 35.012C73.9931 33.093 74.4206 31.5632 75.2692 30.5088C76.1178 29.4544 77.3541 28.9392 79.0418 28.9392C80.7294 28.9392 82.0215 29.4704 82.8702 30.5088C83.7347 31.5712 84.1622 33.085 84.1622 35.012C84.1622 36.9389 83.7268 38.4607 82.8781 39.4912Z" fill="#2A2A2C"/>
</svg>
