<svg width="420" height="70" viewBox="0 0 420 70" fill="none" xmlns="http://www.w3.org/2000/svg">
<path d="M63.3323 6.32031H6.66797V62.9846H63.3323V6.32031Z" fill="url(#paint0_linear_1870_109)"/>
<path d="M14.4444 37.4233C14.4444 37.5727 14.2949 37.6424 14.0957 37.6424H12.1337C11.9346 37.6424 11.7852 37.5727 11.7852 37.4233C11.7852 37.284 11.8947 37.2342 12.0043 37.1642C12.1735 37.0548 12.2831 36.945 12.3428 36.8057C12.4027 36.6563 12.4523 36.4672 12.4523 35.7699V31.8757C12.4523 31.4076 12.4325 31.1986 12.1834 31.0391C12.0142 30.9297 11.8449 30.9099 11.8449 30.7305C11.8449 30.6207 11.9346 30.5312 12.1438 30.5312H14.0758C14.285 30.5312 14.3846 30.611 14.3846 30.7305C14.3846 30.9099 14.2154 30.9297 14.0459 31.0391C13.797 31.1986 13.777 31.4076 13.777 31.8757V35.7699C13.777 36.4672 13.8268 36.6563 13.8865 36.8057C13.9465 36.945 14.0659 37.0649 14.2253 37.1642C14.3348 37.2342 14.4444 37.284 14.4444 37.4233Z" fill="black"/>
<path d="M20.9735 37.415C20.9735 37.5745 20.8243 37.6442 20.635 37.6442H18.7228C18.5435 37.6442 18.3941 37.5745 18.3941 37.415C18.3941 37.2955 18.4938 37.236 18.6033 37.1659C18.7626 37.0667 18.8821 36.9468 18.9518 36.8075C19.0216 36.6682 19.0714 36.4491 19.0714 35.7518V34.3575C19.0714 33.6804 18.7128 33.2819 18.1351 33.2819C17.8861 33.2819 17.6073 33.3617 17.3882 33.5808C17.0296 33.9392 16.93 34.477 16.93 35.7518C16.93 36.4491 16.9798 36.6682 17.0496 36.8075C17.1193 36.957 17.2388 37.0764 17.3882 37.1659C17.5176 37.2457 17.5974 37.2955 17.5974 37.415C17.5974 37.5745 17.4579 37.6442 17.2687 37.6442H15.3763C15.187 37.6442 15.0477 37.5745 15.0477 37.415C15.0477 37.2955 15.1473 37.236 15.2569 37.1659C15.3962 37.0764 15.5357 36.957 15.6053 36.8075C15.6653 36.6682 15.7149 36.4491 15.7149 35.7518V34.2279C15.7149 33.8695 15.7149 33.6505 15.6353 33.4909C15.5657 33.3516 15.4561 33.2819 15.2867 33.222C15.187 33.1823 15.0078 33.1325 15.0078 32.9831C15.0078 32.8636 15.0876 32.7838 15.3166 32.734C15.6552 32.6644 16.0336 32.5648 16.2926 32.4554C16.442 32.3955 16.5416 32.3359 16.6811 32.3359C16.8204 32.3359 16.93 32.4056 16.93 32.6344V33.1924C16.93 33.222 16.9401 33.2422 16.9699 33.2422C16.9897 33.2422 16.9998 33.222 17.0197 33.1924C17.3783 32.6644 17.9458 32.3359 18.633 32.3359C19.181 32.3359 19.6888 32.5648 19.9876 33.0029C20.2067 33.3317 20.2964 33.7302 20.2964 34.3474V35.7518C20.2964 36.4491 20.3462 36.6682 20.4159 36.8075C20.4856 36.9468 20.5951 37.0764 20.7545 37.1659C20.884 37.236 20.9735 37.2955 20.9735 37.415Z" fill="black"/>
<path d="M27.4071 37.415C27.4071 37.5745 27.2579 37.6442 27.0686 37.6442H25.1563C24.9771 37.6442 24.8277 37.5745 24.8277 37.415C24.8277 37.2955 24.9273 37.236 25.0369 37.1659C25.1962 37.0667 25.3157 36.9468 25.3853 36.8075C25.4552 36.6682 25.505 36.4491 25.505 35.7518V34.3575C25.505 33.6804 25.1464 33.2819 24.5687 33.2819C24.3197 33.2819 24.0409 33.3617 23.8217 33.5808C23.4632 33.9392 23.3635 34.477 23.3635 35.7518C23.3635 36.4491 23.4134 36.6682 23.4832 36.8075C23.5529 36.957 23.6723 37.0764 23.8217 37.1659C23.9511 37.2457 24.0309 37.2955 24.0309 37.415C24.0309 37.5745 23.8914 37.6442 23.7023 37.6442H21.8099C21.6206 37.6442 21.4813 37.5745 21.4813 37.415C21.4813 37.2955 21.5809 37.236 21.6904 37.1659C21.8298 37.0764 21.9693 36.957 22.0389 36.8075C22.0989 36.6682 22.1485 36.4491 22.1485 35.7518V34.2279C22.1485 33.8695 22.1485 33.6505 22.0689 33.4909C21.9992 33.3516 21.8897 33.2819 21.7202 33.222C21.6206 33.1823 21.4414 33.1325 21.4414 32.9831C21.4414 32.8636 21.5212 32.7838 21.7502 32.734C22.0887 32.6644 22.4672 32.5648 22.7262 32.4554C22.8756 32.3955 22.9752 32.3359 23.1147 32.3359C23.254 32.3359 23.3635 32.4056 23.3635 32.6344V33.1924C23.3635 33.222 23.3737 33.2422 23.4034 33.2422C23.4233 33.2422 23.4334 33.222 23.4533 33.1924C23.8118 32.6644 24.3794 32.3359 25.0666 32.3359C25.6145 32.3359 26.1223 32.5648 26.4212 33.0029C26.6403 33.3317 26.73 33.7302 26.73 34.3474V35.7518C26.73 36.4491 26.7798 36.6682 26.8494 36.8075C26.9191 36.9468 27.0287 37.0764 27.188 37.1659C27.3176 37.236 27.4071 37.2955 27.4071 37.415Z" fill="black"/>
<path d="M32.9717 35.0148C32.9717 36.5087 31.8463 37.7539 30.3323 37.7539C28.7688 37.7539 27.7031 36.7079 27.7031 35.0844C27.7031 33.5808 28.8186 32.3558 30.3524 32.3359C31.9957 32.3359 32.9717 33.4909 32.9717 35.0148ZM30.2528 32.9531C29.5257 32.9531 29.0176 33.5808 29.0176 34.6863C29.0176 35.951 29.5157 37.1165 30.4419 37.1165C31.2387 37.1165 31.6669 36.3394 31.6669 35.3335C31.6669 34.2182 31.2387 32.9531 30.2528 32.9531Z" fill="black"/>
<path d="M38.9257 32.6644C38.9257 32.7839 38.8558 32.8337 38.7462 32.9033C38.577 33.0131 38.4274 33.1127 38.2184 33.4314C38.069 33.6606 37.9196 33.9591 37.7402 34.3575L36.2961 37.6143C36.2661 37.6839 36.2167 37.7139 36.1268 37.7139H35.41C35.3302 37.7139 35.2804 37.694 35.2505 37.6143L33.8264 33.9194C33.6571 33.4812 33.5674 33.2423 33.3882 33.0827C33.2886 32.9932 33.1691 32.9434 33.0794 32.8936C32.9798 32.8438 32.9102 32.7741 32.9102 32.6745C32.9102 32.5449 32.9997 32.4453 33.2586 32.4453H35.1709C35.3501 32.4453 35.4797 32.5251 35.4797 32.6644C35.4797 32.7741 35.3999 32.8337 35.3302 32.8738C35.161 32.9734 34.9917 33.043 34.9917 33.282C34.9917 33.3913 35.0214 33.5209 35.1012 33.74C35.2905 34.2482 36.047 36.19 36.107 36.3496C36.1171 36.3694 36.1268 36.3795 36.1369 36.3795C36.1567 36.3795 36.1669 36.3694 36.1766 36.3496L36.8837 34.5867C37.1129 34.0089 37.1926 33.6606 37.1926 33.4314C37.1926 33.1427 37.093 33.0329 36.8938 32.9135C36.7642 32.8337 36.6945 32.7839 36.6945 32.6644C36.6945 32.5053 36.8541 32.4453 37.0432 32.4453H38.5672C38.7761 32.4453 38.9257 32.5053 38.9257 32.6644Z" fill="black"/>
<path d="M43.9185 37.1364C43.9185 37.206 43.8988 37.2757 43.849 37.3453C43.6892 37.5843 43.3507 37.7539 42.9925 37.7539C42.6136 37.7539 42.2154 37.5345 42.1157 36.9468C42.1157 36.9371 42.076 36.9371 42.076 36.9371C41.6979 37.4948 41.05 37.7539 40.4429 37.7539C39.636 37.7539 38.8789 37.2858 38.8789 36.4491C38.8789 36.0207 39.0984 35.5728 39.5461 35.2938C40.0546 34.9751 40.7115 34.8358 41.2094 34.6066C41.7572 34.3474 42.0062 34.0586 42.0062 33.6804C42.0062 33.3913 41.8467 33.1127 41.4882 33.013C41.4085 32.9932 41.3292 32.9831 41.2393 32.9831C41.0005 32.9831 40.7413 33.0629 40.5124 33.252C40.1936 33.5209 40.0545 33.8396 39.9148 33.9991C39.8351 34.0987 39.7554 34.1384 39.6061 34.1384C39.347 34.1384 39.2771 33.9092 39.2771 33.5808C39.2771 33.3216 39.327 32.9932 39.4565 32.8336C39.5959 32.6546 39.8948 32.5251 40.2434 32.4453C40.5321 32.3756 40.911 32.3359 41.2393 32.3359C42.4546 32.3359 43.311 33.013 43.311 34.0388C43.311 34.756 43.271 35.5327 43.271 36.1503C43.271 36.6682 43.331 36.9468 43.5501 36.9468C43.6 36.9468 43.6593 36.9371 43.7194 36.9371C43.849 36.9371 43.9185 37.0266 43.9185 37.1364ZM42.0062 34.9354C42.0062 34.9151 41.9963 34.9054 41.9763 34.9054C41.9567 34.9054 41.9465 34.9151 41.9465 34.9151C41.6178 35.1545 41.07 35.2938 40.6518 35.5825C40.333 35.8016 40.2136 36.0806 40.2136 36.3297C40.2136 36.748 40.5222 36.9967 40.911 36.9967C41.2593 36.9967 41.6378 36.7978 41.8369 36.3993C41.9963 36.0608 42.0062 35.702 42.0062 35.1343V34.9354Z" fill="black"/>
<path d="M47.9115 36.7077C47.9115 36.8073 47.8617 36.9069 47.7922 37.0065C47.5232 37.4249 46.975 37.7537 46.3377 37.7537C45.6804 37.7537 45.2622 37.435 45.0529 37.0665C44.8738 36.7376 44.824 36.3493 44.824 35.8414C44.824 35.0744 44.9037 34.0985 44.9037 33.3813C44.9037 33.3116 44.8738 33.2817 44.8043 33.2817C44.5648 33.2817 44.1867 33.2817 44.1867 33.2817C44.1069 33.2817 44.0469 33.2319 44.0469 33.1424V32.7738C44.0469 32.684 44.0967 32.6443 44.1867 32.6244C44.7144 32.5248 44.9736 32.3256 45.1028 32.0765C45.2021 31.8773 45.2323 31.6384 45.2822 31.3893C45.3019 31.2897 45.3517 31.25 45.4314 31.25H45.9694C46.0491 31.25 46.099 31.2998 46.099 31.3796C46.099 31.3796 46.099 32.2956 46.099 32.3653C46.099 32.5843 46.1288 32.6244 46.3479 32.6244C46.8757 32.6244 47.085 32.5548 47.4533 32.5548C47.6324 32.5548 47.7922 32.5645 47.7922 32.7439C47.7922 32.8135 47.7619 32.8832 47.7521 32.9731C47.7121 33.2619 47.5825 33.3214 47.2939 33.3214C47.0151 33.3214 46.7461 33.2817 46.1983 33.2817C46.1288 33.2817 46.0888 33.3214 46.0888 33.391C46.0789 33.7697 46.0687 34.188 46.0687 34.5865C46.0687 35.3433 46.099 36.0403 46.2183 36.3691C46.3679 36.7676 46.6762 36.8672 46.9055 36.8672C47.3437 36.8672 47.5232 36.5283 47.7321 36.5283C47.8417 36.5283 47.9115 36.5983 47.9115 36.7077Z" fill="black"/>
<path d="M53.6865 35.0148C53.6865 36.5087 52.5611 37.7539 51.0473 37.7539C49.4841 37.7539 48.418 36.7079 48.418 35.0844C48.418 33.5808 49.5335 32.3558 51.0673 32.3359C52.7107 32.3359 53.6865 33.4909 53.6865 35.0148ZM50.9676 32.9531C50.2407 32.9531 49.733 33.5808 49.733 34.6863C49.733 35.951 50.2305 37.1165 51.1572 37.1165C51.9536 37.1165 52.3824 36.3394 52.3824 35.3335C52.3824 34.2182 51.9536 32.9531 50.9676 32.9531Z" fill="black"/>
<path d="M58.2132 33.168C58.2132 33.477 58.0738 33.696 57.815 33.696C57.6855 33.696 57.5759 33.6462 57.4365 33.5665C57.2971 33.4867 57.1978 33.447 57.0682 33.447C56.9186 33.447 56.769 33.5166 56.63 33.656C56.4108 33.875 56.1218 34.2638 56.1218 35.7776C56.1218 36.4745 56.1717 36.6838 56.2416 36.8333C56.3111 36.9827 56.4305 37.0921 56.5801 37.1816C56.7097 37.2614 56.7894 37.3213 56.7894 37.4407C56.7894 37.5902 56.6496 37.6598 56.4607 37.6598H54.5586C54.369 37.6598 54.2296 37.5902 54.2296 37.4407C54.2296 37.3213 54.3191 37.2516 54.4385 37.1816C54.5881 37.0921 54.7074 36.9827 54.7773 36.8333C54.8472 36.6838 54.8971 36.4648 54.8971 35.7776V34.2338C54.8971 33.875 54.8771 33.656 54.7974 33.5065C54.7278 33.3773 54.6379 33.3077 54.4589 33.2376C54.3489 33.1979 54.1797 33.138 54.1797 32.9987C54.1797 32.8691 54.2692 32.7897 54.4785 32.7399C54.8669 32.65 55.1755 32.5706 55.5344 32.4111C55.6436 32.3613 55.7036 32.3516 55.7732 32.3516C55.9228 32.3516 56.0319 32.4411 56.0319 32.65C56.0319 32.65 56.0319 33.1481 56.0319 33.4271C56.0319 33.447 56.0319 33.4668 56.0523 33.4668C56.0622 33.4668 56.0622 33.4567 56.0724 33.4369C56.2911 32.959 56.8589 32.3516 57.4766 32.3516C57.7157 32.3516 57.8944 32.4309 58.0145 32.5606C58.1634 32.7197 58.2132 32.9687 58.2132 33.168Z" fill="black"/>
<path d="M35 1L1 35L35 69L69 35L35 1Z" stroke="black" stroke-miterlimit="10"/>
<path d="M39.2802 47.6211C39.2261 47.5776 39.1479 47.5705 39.0871 47.6052L36.6213 48.9781L35.1494 46.5157C35.0869 46.4114 34.9148 46.4114 34.8505 46.5157L33.3786 48.9781L30.9144 47.6052C30.8519 47.5705 30.7754 47.5776 30.7198 47.6211C30.6642 47.666 30.6433 47.7408 30.6642 47.8088L32.0753 52.3044C32.0978 52.3773 32.1656 52.4275 32.2421 52.4275H37.7596C37.8343 52.4275 37.9021 52.3773 37.9247 52.3044L39.3376 47.8088C39.3584 47.7408 39.3357 47.666 39.2802 47.6211Z" fill="black"/>
<path d="M38.6304 53.1738C38.6304 53.0782 38.5522 53 38.4566 53H31.5488C31.4532 53 31.375 53.0782 31.375 53.1738C31.375 53.2694 31.4532 53.3476 31.5488 53.3476H38.4566C38.5537 53.3476 38.6304 53.2694 38.6304 53.1738Z" fill="black"/>
<path d="M19.4128 27.2984V28.1417H18.9531V25.8359H19.8937C20.031 25.8359 20.1523 25.8531 20.2576 25.8878C20.363 25.9223 20.4511 25.9714 20.5221 26.0352C20.5929 26.0988 20.6463 26.1757 20.6826 26.2657C20.7189 26.3558 20.7369 26.4568 20.7369 26.5688C20.7369 26.6796 20.7189 26.7803 20.6826 26.8701C20.6463 26.9602 20.5929 27.0369 20.5221 27.1C20.4511 27.1631 20.3634 27.212 20.2585 27.2465C20.1536 27.2812 20.0331 27.2984 19.8969 27.2984H19.4128ZM19.4128 26.2591V26.8784H19.8855C20.0117 26.8784 20.1067 26.8528 20.1704 26.8019C20.234 26.7508 20.2658 26.673 20.2658 26.5688C20.2658 26.4655 20.234 26.3882 20.1704 26.3365C20.1067 26.285 20.0117 26.2591 19.8855 26.2591H19.4128Z" fill="black"/>
<path d="M22.883 28.1417H21.1602V25.8359H22.8699V26.2575H21.6198V26.7681H22.8122V27.1897H21.6198V27.7201H22.883V28.1417Z" fill="black"/>
<path d="M24.3618 25.8359C24.499 25.8359 24.6204 25.8518 24.7259 25.8836C24.8313 25.9155 24.9196 25.9614 24.9911 26.0211C25.0624 26.081 25.1162 26.1546 25.1525 26.2418C25.1887 26.3292 25.2068 26.4277 25.2068 26.5376C25.2068 26.6319 25.1909 26.7186 25.1591 26.7978C25.1271 26.8768 25.0808 26.9454 25.0199 27.0036C24.9589 27.0617 24.8847 27.1093 24.7975 27.1461C24.7101 27.1829 24.6111 27.2067 24.5001 27.2178L25.21 28.1417H24.6533L23.9813 27.2244H23.8464V28.1417H23.3867V25.8359H24.3618ZM23.8464 26.2591V26.8241H24.3536C24.4799 26.8241 24.5748 26.8008 24.6386 26.7542C24.7023 26.7074 24.7341 26.6353 24.7341 26.5376C24.7341 26.4409 24.7014 26.3703 24.6361 26.3258C24.5707 26.2815 24.4765 26.2591 24.3536 26.2591H23.8464Z" fill="black"/>
<path d="M27.213 26.4179C27.1217 26.362 27.0217 26.3151 26.9125 26.2778C26.8031 26.2406 26.6853 26.2219 26.5592 26.2219C26.4943 26.2219 26.4349 26.2283 26.3811 26.2408C26.3274 26.2535 26.2811 26.2716 26.2421 26.2951C26.2031 26.3187 26.1726 26.3477 26.1506 26.3816C26.1286 26.4158 26.1177 26.4547 26.1177 26.4985C26.1177 26.5414 26.1295 26.5771 26.1531 26.6055C26.1767 26.6341 26.2096 26.6583 26.2519 26.6781C26.2941 26.6979 26.3445 26.7146 26.4026 26.7284C26.4609 26.7421 26.5245 26.7544 26.5936 26.7653L26.7238 26.7868C26.827 26.8032 26.9234 26.8275 27.0129 26.8593C27.1022 26.8911 27.18 26.9328 27.246 26.9845C27.3119 27.0361 27.3637 27.0987 27.4016 27.1723C27.4395 27.2457 27.4585 27.3326 27.4585 27.4325C27.4585 27.5599 27.4325 27.6705 27.381 27.7644C27.3294 27.8582 27.2599 27.9363 27.1727 27.9983C27.0853 28.0603 26.9848 28.1066 26.8712 28.1374C26.7575 28.1681 26.6387 28.1834 26.5147 28.1834C26.4267 28.1834 26.3384 28.1772 26.2494 28.1645C26.1606 28.152 26.0741 28.1331 25.9901 28.1077C25.9061 28.0825 25.8259 28.051 25.7496 28.0131C25.6733 27.9753 25.6044 27.9315 25.543 27.8821L25.7817 27.5115C25.8234 27.5445 25.8713 27.576 25.9251 27.6062C25.9788 27.6364 26.0373 27.663 26.1004 27.6861C26.1635 27.7091 26.23 27.7274 26.2997 27.7404C26.3694 27.7536 26.4416 27.7603 26.5162 27.7603C26.5799 27.7603 26.6396 27.7542 26.695 27.7422C26.7504 27.73 26.7984 27.712 26.8392 27.6877C26.8798 27.6635 26.9116 27.6344 26.9346 27.6005C26.9577 27.5665 26.9693 27.5268 26.9693 27.4818C26.9693 27.4423 26.9588 27.4084 26.9378 27.3798C26.9171 27.3512 26.886 27.3269 26.8449 27.3065C26.8036 27.2861 26.7527 27.2686 26.6918 27.2538C26.6308 27.2389 26.5602 27.225 26.48 27.2118L26.3334 27.1887C26.2314 27.1723 26.1374 27.1483 26.0518 27.1171C25.9662 27.0858 25.892 27.0438 25.8294 26.9911C25.7669 26.9383 25.7179 26.8742 25.6829 26.7984C25.6477 26.7226 25.6302 26.6326 25.6302 26.5282C25.6302 26.4086 25.6552 26.3028 25.7051 26.2111C25.7551 26.1195 25.8221 26.0431 25.9061 25.9822C25.9901 25.9213 26.0875 25.8751 26.1983 25.8439C26.3093 25.8126 26.4262 25.7969 26.5491 25.7969C26.6294 25.7969 26.7071 25.8017 26.7823 25.811C26.8574 25.8203 26.9307 25.8348 27.0022 25.8546C27.0735 25.8744 27.1446 25.8998 27.2154 25.9313C27.2863 25.9625 27.358 25.9996 27.4304 26.0424L27.213 26.4179Z" fill="black"/>
<path d="M28.9997 25.7969C29.1775 25.7969 29.3405 25.8267 29.4888 25.8866C29.637 25.9465 29.7646 26.0297 29.8718 26.1361C29.9789 26.2426 30.0622 26.3689 30.122 26.515C30.1819 26.661 30.2119 26.8202 30.2119 26.9927C30.2119 27.165 30.1819 27.3242 30.122 27.4702C30.0622 27.6164 29.9789 27.7425 29.8718 27.8491C29.7646 27.9556 29.637 28.0389 29.4888 28.0986C29.3405 28.1584 29.1775 28.1885 28.9997 28.1885C28.8217 28.1885 28.6587 28.1584 28.5104 28.0986C28.3622 28.0389 28.2346 27.9556 28.1276 27.8491C28.0205 27.7425 27.9372 27.6164 27.8781 27.4702C27.8188 27.3242 27.7891 27.165 27.7891 26.9927C27.7891 26.8202 27.8188 26.661 27.8781 26.515C27.9372 26.3689 28.0205 26.2426 28.1276 26.1361C28.2346 26.0297 28.3622 25.9465 28.5104 25.8866C28.6587 25.8267 28.8217 25.7969 28.9997 25.7969ZM28.9997 26.2383C28.8943 26.2383 28.7967 26.2567 28.7073 26.2935C28.6178 26.3303 28.5404 26.3816 28.475 26.4474C28.4098 26.5133 28.359 26.5927 28.3227 26.6854C28.2864 26.7782 28.2684 26.8806 28.2684 26.9927C28.2684 27.1046 28.2864 27.2069 28.3227 27.2999C28.359 27.3926 28.4098 27.472 28.475 27.5378C28.5404 27.6037 28.6178 27.655 28.7073 27.6918C28.7967 27.7286 28.8943 27.747 28.9997 27.747C29.1062 27.747 29.2041 27.7286 29.2937 27.6918C29.3831 27.655 29.4602 27.6037 29.5251 27.5378C29.5898 27.472 29.6404 27.3926 29.6765 27.2999C29.7128 27.2069 29.731 27.1046 29.731 26.9927C29.731 26.8806 29.7128 26.7782 29.6765 26.6854C29.6404 26.5927 29.5898 26.5133 29.5251 26.4474C29.4602 26.3816 29.3831 26.3303 29.2937 26.2935C29.2041 26.2567 29.1062 26.2383 28.9997 26.2383Z" fill="black"/>
<path d="M32.7185 28.1417H32.2869L31.1175 26.6017L31.1159 28.1417H30.6562V25.8359H31.0863L32.2572 27.3759V25.8359H32.7185V28.1417Z" fill="black"/>
<path d="M35.402 28.1417H34.9112L34.7104 27.6048H33.7271L33.526 28.1417H33.0469L33.9444 25.8359H34.5045L35.402 28.1417ZM33.8851 27.1815H34.5522L34.2195 26.2904L33.8851 27.1815Z" fill="black"/>
<path d="M37.4129 28.1417H35.7344V25.8359H36.1941V27.7119H37.4129V28.1417Z" fill="black"/>
<path d="M38.2175 28.1417H37.7578V25.8359H38.2175V28.1417Z" fill="black"/>
<path d="M40.4799 26.195L39.2827 27.7183H40.4799V28.1417H38.6719V27.7827L39.8694 26.2591H38.6749V25.8359H40.4799V26.195Z" fill="black"/>
<path d="M43.0621 28.1417H42.5714L42.3704 27.6048H41.387L41.1861 28.1417H40.707L41.6043 25.8359H42.1645L43.0621 28.1417ZM41.5449 27.1815H42.2121L41.8793 26.2904L41.5449 27.1815Z" fill="black"/>
<path d="M44.8619 26.2657H44.1472V28.1417H43.6874V26.2657H42.9727V25.8359H44.8619V26.2657Z" fill="black"/>
<path d="M45.6664 28.1417H45.207V25.8359H45.6664V28.1417Z" fill="black"/>
<path d="M47.328 25.7969C47.5059 25.7969 47.6687 25.8267 47.8172 25.8866C47.9653 25.9465 48.0926 26.0297 48.1999 26.1361C48.3072 26.2426 48.3907 26.3689 48.4503 26.515C48.51 26.661 48.5403 26.8202 48.5403 26.9927C48.5403 27.165 48.51 27.3242 48.4503 27.4702C48.3907 27.6164 48.3072 27.7425 48.1999 27.8491C48.0926 27.9556 47.9653 28.0389 47.8172 28.0986C47.6687 28.1584 47.5059 28.1885 47.328 28.1885C47.1497 28.1885 46.9868 28.1584 46.8384 28.0986C46.6907 28.0389 46.563 27.9556 46.4557 27.8491C46.3488 27.7425 46.2657 27.6164 46.2063 27.4702C46.147 27.3242 46.1172 27.165 46.1172 26.9927C46.1172 26.8202 46.147 26.661 46.2063 26.515C46.2657 26.3689 46.3488 26.2426 46.4557 26.1361C46.563 26.0297 46.6907 25.9465 46.8384 25.8866C46.9868 25.8267 47.1497 25.7969 47.328 25.7969ZM47.328 26.2383C47.2226 26.2383 47.1247 26.2567 47.0356 26.2935C46.946 26.3303 46.8686 26.3816 46.8032 26.4474C46.7379 26.5133 46.6873 26.5927 46.651 26.6854C46.6147 26.7782 46.5966 26.8806 46.5966 26.9927C46.5966 27.1046 46.6147 27.2069 46.651 27.2999C46.6873 27.3926 46.7379 27.472 46.8032 27.5378C46.8686 27.6037 46.946 27.655 47.0356 27.6918C47.1247 27.7286 47.2226 27.747 47.328 27.747C47.4345 27.747 47.5323 27.7286 47.6219 27.6918C47.7114 27.655 47.7885 27.6037 47.8531 27.5378C47.9181 27.472 47.9687 27.3926 48.0049 27.2999C48.0408 27.2069 48.059 27.1046 48.059 26.9927C48.059 26.8806 48.0408 26.7782 48.0049 26.6854C47.9687 26.5927 47.9181 26.5133 47.8531 26.4474C47.7885 26.3816 47.7114 26.3303 47.6219 26.2935C47.5323 26.2567 47.4345 26.2383 47.328 26.2383Z" fill="black"/>
<path d="M51.0467 28.1417H50.6149L49.4456 26.6017L49.4438 28.1417H48.9844V25.8359H49.4143L50.5854 27.3759V25.8359H51.0467V28.1417Z" fill="black"/>
<path d="M97.802 31.38V33H89.936V31.956L93.734 27.852C95.174 26.286 95.732 25.44 95.732 24.342C95.732 23.136 94.886 22.29 93.644 22.29C92.294 22.29 91.394 23.172 91.394 24.522H89.612C89.612 22.272 91.304 20.652 93.716 20.652C95.984 20.652 97.64 22.128 97.64 24.126C97.64 25.512 97.118 26.484 95.12 28.608L92.672 31.38H97.802ZM99.4797 26.934C99.4797 22.902 101.082 20.652 103.962 20.652C106.842 20.652 108.462 22.902 108.462 26.934C108.462 30.966 106.878 33.18 103.962 33.18C101.046 33.18 99.4797 30.966 99.4797 26.934ZM101.352 26.934C101.352 29.94 102.252 31.542 103.962 31.542C105.672 31.542 106.59 29.958 106.59 26.934C106.59 23.892 105.672 22.29 103.962 22.29C102.288 22.29 101.352 23.892 101.352 26.934ZM118.14 31.38V33H110.274V31.956L114.072 27.852C115.512 26.286 116.07 25.44 116.07 24.342C116.07 23.136 115.224 22.29 113.982 22.29C112.632 22.29 111.732 23.172 111.732 24.522H109.95C109.95 22.272 111.642 20.652 114.054 20.652C116.322 20.652 117.978 22.128 117.978 24.126C117.978 25.512 117.456 26.484 115.458 28.608L113.01 31.38H118.14ZM123.904 33.18C121.528 33.18 119.71 31.632 119.62 29.472H121.438C121.564 30.768 122.554 31.542 123.904 31.542C125.578 31.542 126.406 30.498 126.406 29.112C126.406 27.852 125.506 26.754 123.886 26.754C122.806 26.754 121.996 27.204 121.492 28.086L120.016 27.618L121.096 20.832H127.594V22.452H122.41L121.87 25.962C122.554 25.422 123.328 25.17 124.156 25.17C126.838 25.17 128.296 27.042 128.296 29.112C128.296 31.29 126.73 33.18 123.904 33.18ZM138.172 33H134.086V20.076H138.172C142.294 20.076 144.67 22.704 144.67 26.484C144.67 30.21 142.204 33 138.172 33ZM136.066 21.786V31.29H138.082C141.052 31.29 142.654 29.454 142.654 26.484C142.654 23.568 141.07 21.786 138.082 21.786H136.066ZM154.518 23.46L149.748 36.474H147.768L149.136 32.874L145.374 23.46H147.336L150.108 30.732L152.682 23.46H154.518ZM157.627 27.618V33H155.809V23.46H157.501V25.044C158.149 23.982 159.229 23.28 160.543 23.28C162.505 23.28 163.801 24.54 163.801 26.826V33H161.983V27.438C161.983 25.8 161.263 24.882 159.913 24.882C158.671 24.882 157.627 25.926 157.627 27.618ZM171.993 33V31.524C171.399 32.586 170.337 33.18 168.933 33.18C166.953 33.18 165.657 32.046 165.657 30.3C165.657 28.428 167.151 27.456 169.995 27.456C170.553 27.456 171.003 27.474 171.777 27.564V26.862C171.777 25.494 171.039 24.72 169.779 24.72C168.447 24.72 167.637 25.512 167.583 26.844H165.927C166.017 24.702 167.547 23.28 169.779 23.28C172.137 23.28 173.505 24.612 173.505 26.88V33H171.993ZM167.385 30.246C167.385 31.236 168.123 31.884 169.293 31.884C170.823 31.884 171.777 30.93 171.777 29.472V28.698C171.075 28.608 170.571 28.59 170.103 28.59C168.285 28.59 167.385 29.13 167.385 30.246ZM177.754 33H175.936V23.46H177.628V25.044C178.276 23.946 179.302 23.28 180.616 23.28C182.02 23.28 183.082 24 183.514 25.26C184.18 24.036 185.278 23.28 186.736 23.28C188.698 23.28 189.958 24.558 189.958 26.826V33H188.14V27.402C188.14 25.818 187.438 24.882 186.106 24.882C184.864 24.882 183.856 25.926 183.856 27.528V33H182.038V27.402C182.038 25.818 181.336 24.882 180.004 24.882C178.744 24.882 177.754 25.926 177.754 27.528V33ZM194.603 21.246C194.603 21.93 194.063 22.452 193.289 22.452C192.515 22.452 191.957 21.93 191.957 21.246C191.957 20.544 192.515 20.04 193.289 20.04C194.063 20.04 194.603 20.544 194.603 21.246ZM194.207 33H192.389V23.46H194.207V33ZM200.493 33.198C197.883 33.198 196.047 31.146 196.047 28.23C196.047 25.35 197.919 23.28 200.493 23.28C202.851 23.28 204.561 24.846 204.903 27.33H202.995C202.797 25.8 201.843 24.882 200.511 24.882C198.945 24.882 197.919 26.214 197.919 28.23C197.919 30.264 198.945 31.578 200.511 31.578C201.861 31.578 202.797 30.678 203.013 29.13H204.903C204.579 31.65 202.887 33.198 200.493 33.198ZM216.02 28.158V33H214.022V28.158L209.378 20.076H211.538L215.084 26.304L218.666 20.076H220.682L216.02 28.158ZM224.292 21.246C224.292 21.93 223.752 22.452 222.978 22.452C222.204 22.452 221.646 21.93 221.646 21.246C221.646 20.544 222.204 20.04 222.978 20.04C223.752 20.04 224.292 20.544 224.292 21.246ZM223.896 33H222.078V23.46H223.896V33ZM230.344 33.18C227.59 33.18 225.736 31.182 225.736 28.176C225.736 25.35 227.662 23.28 230.29 23.28C233.134 23.28 235.024 25.584 234.7 28.68H227.59C227.734 30.624 228.706 31.758 230.308 31.758C231.658 31.758 232.594 31.02 232.9 29.778H234.7C234.232 31.902 232.594 33.18 230.344 33.18ZM230.254 24.648C228.796 24.648 227.806 25.692 227.608 27.474H232.774C232.684 25.71 231.73 24.648 230.254 24.648ZM238.469 33H236.633V20.076H238.469V33ZM240.308 28.23C240.308 25.332 241.964 23.28 244.538 23.28C245.816 23.28 246.932 23.928 247.598 25.098V20.076H249.416V33H247.724V31.29C247.04 32.496 245.888 33.18 244.538 33.18C241.964 33.18 240.308 31.092 240.308 28.23ZM242.198 28.23C242.198 30.354 243.314 31.56 244.898 31.56C246.446 31.56 247.598 30.3 247.598 28.194C247.598 26.052 246.41 24.882 244.898 24.882C243.314 24.882 242.198 26.07 242.198 28.23ZM260.331 28.5H257.829V33H255.849V20.076H260.331C263.229 20.076 265.101 21.552 265.101 24.252C265.101 26.97 263.229 28.5 260.331 28.5ZM260.313 21.75H257.829V26.826H260.313C262.059 26.826 263.121 25.872 263.121 24.27C263.121 22.668 262.059 21.75 260.313 21.75ZM270.686 33.18C267.932 33.18 266.078 31.182 266.078 28.176C266.078 25.35 268.004 23.28 270.632 23.28C273.476 23.28 275.366 25.584 275.042 28.68H267.932C268.076 30.624 269.048 31.758 270.65 31.758C272 31.758 272.936 31.02 273.242 29.778H275.042C274.574 31.902 272.936 33.18 270.686 33.18ZM270.596 24.648C269.138 24.648 268.148 25.692 267.95 27.474H273.116C273.026 25.71 272.072 24.648 270.596 24.648ZM278.793 28.122V33H276.975V23.46H278.667V25.476C279.333 24.162 280.773 23.334 282.339 23.334V25.224C280.287 25.116 278.793 26.016 278.793 28.122ZM291.338 30.156C291.338 32.028 289.88 33.18 287.342 33.18C284.822 33.18 283.328 31.938 283.148 29.886H284.894C284.966 31.074 285.92 31.812 287.378 31.812C288.656 31.812 289.502 31.362 289.502 30.462C289.502 29.67 289.016 29.328 287.828 29.094L286.28 28.806C284.516 28.464 283.526 27.564 283.526 26.124C283.526 24.45 284.984 23.28 287.198 23.28C289.484 23.28 291.032 24.504 291.194 26.466H289.448C289.34 25.314 288.494 24.648 287.216 24.648C286.064 24.648 285.29 25.134 285.29 25.962C285.29 26.736 285.776 27.096 286.928 27.312L288.548 27.618C290.438 27.96 291.338 28.788 291.338 30.156ZM297.319 33.18C294.619 33.18 292.639 31.056 292.639 28.23C292.639 25.404 294.619 23.28 297.319 23.28C300.019 23.28 301.999 25.404 301.999 28.23C301.999 31.056 300.019 33.18 297.319 33.18ZM297.319 31.578C298.885 31.578 300.127 30.318 300.127 28.23C300.127 26.142 298.885 24.9 297.319 24.9C295.753 24.9 294.529 26.142 294.529 28.23C294.529 30.318 295.753 31.578 297.319 31.578ZM305.67 27.618V33H303.852V23.46H305.544V25.044C306.192 23.982 307.272 23.28 308.586 23.28C310.548 23.28 311.844 24.54 311.844 26.826V33H310.026V27.438C310.026 25.8 309.306 24.882 307.956 24.882C306.714 24.882 305.67 25.926 305.67 27.618ZM320.036 33V31.524C319.442 32.586 318.38 33.18 316.976 33.18C314.996 33.18 313.7 32.046 313.7 30.3C313.7 28.428 315.194 27.456 318.038 27.456C318.596 27.456 319.046 27.474 319.82 27.564V26.862C319.82 25.494 319.082 24.72 317.822 24.72C316.49 24.72 315.68 25.512 315.626 26.844H313.97C314.06 24.702 315.59 23.28 317.822 23.28C320.18 23.28 321.548 24.612 321.548 26.88V33H320.036ZM315.428 30.246C315.428 31.236 316.166 31.884 317.336 31.884C318.866 31.884 319.82 30.93 319.82 29.472V28.698C319.118 28.608 318.614 28.59 318.146 28.59C316.328 28.59 315.428 29.13 315.428 30.246ZM325.815 33H323.979V20.076H325.815V33ZM330.552 21.246C330.552 21.93 330.012 22.452 329.238 22.452C328.464 22.452 327.906 21.93 327.906 21.246C327.906 20.544 328.464 20.04 329.238 20.04C330.012 20.04 330.552 20.544 330.552 21.246ZM330.156 33H328.338V23.46H330.156V33ZM339.898 33H332.032V31.578L337.45 25.026H332.122V23.46H339.718V24.918L334.3 31.416H339.898V33ZM347.476 33V31.524C346.882 32.586 345.82 33.18 344.416 33.18C342.436 33.18 341.14 32.046 341.14 30.3C341.14 28.428 342.634 27.456 345.478 27.456C346.036 27.456 346.486 27.474 347.26 27.564V26.862C347.26 25.494 346.522 24.72 345.262 24.72C343.93 24.72 343.12 25.512 343.066 26.844H341.41C341.5 24.702 343.03 23.28 345.262 23.28C347.62 23.28 348.988 24.612 348.988 26.88V33H347.476ZM342.868 30.246C342.868 31.236 343.606 31.884 344.776 31.884C346.306 31.884 347.26 30.93 347.26 29.472V28.698C346.558 28.608 346.054 28.59 345.586 28.59C343.768 28.59 342.868 29.13 342.868 30.246ZM356.712 31.236V32.838C356.154 33.09 355.668 33.18 355.092 33.18C353.328 33.18 352.104 32.226 352.104 30.12V25.008H349.998V23.46H352.104V20.634H353.922V23.46H356.802V25.008H353.922V29.706C353.922 31.02 354.552 31.488 355.524 31.488C355.956 31.488 356.334 31.416 356.712 31.236ZM360.751 21.246C360.751 21.93 360.211 22.452 359.437 22.452C358.663 22.452 358.105 21.93 358.105 21.246C358.105 20.544 358.663 20.04 359.437 20.04C360.211 20.04 360.751 20.544 360.751 21.246ZM360.355 33H358.537V23.46H360.355V33ZM366.875 33.18C364.175 33.18 362.195 31.056 362.195 28.23C362.195 25.404 364.175 23.28 366.875 23.28C369.575 23.28 371.555 25.404 371.555 28.23C371.555 31.056 369.575 33.18 366.875 33.18ZM366.875 31.578C368.441 31.578 369.683 30.318 369.683 28.23C369.683 26.142 368.441 24.9 366.875 24.9C365.309 24.9 364.085 26.142 364.085 28.23C364.085 30.318 365.309 31.578 366.875 31.578ZM375.226 27.618V33H373.408V23.46H375.1V25.044C375.748 23.982 376.828 23.28 378.142 23.28C380.104 23.28 381.4 24.54 381.4 26.826V33H379.582V27.438C379.582 25.8 378.862 24.882 377.512 24.882C376.27 24.882 375.226 25.926 375.226 27.618ZM92.384 51H90.404V38.076H92.384V51ZM96.8593 45.618V51H95.0413V41.46H96.7333V43.044C97.3813 41.982 98.4613 41.28 99.7753 41.28C101.737 41.28 103.033 42.54 103.033 44.826V51H101.215V45.438C101.215 43.8 100.495 42.882 99.1453 42.882C97.9033 42.882 96.8593 43.926 96.8593 45.618ZM107.266 45.618V51H105.448V41.46H107.14V43.044C107.788 41.982 108.868 41.28 110.182 41.28C112.144 41.28 113.439 42.54 113.439 44.826V51H111.622V45.438C111.622 43.8 110.902 42.882 109.552 42.882C108.31 42.882 107.266 43.926 107.266 45.618ZM119.85 51.18C117.15 51.18 115.17 49.056 115.17 46.23C115.17 43.404 117.15 41.28 119.85 41.28C122.55 41.28 124.53 43.404 124.53 46.23C124.53 49.056 122.55 51.18 119.85 51.18ZM119.85 49.578C121.416 49.578 122.658 48.318 122.658 46.23C122.658 44.142 121.416 42.9 119.85 42.9C118.284 42.9 117.06 44.142 117.06 46.23C117.06 48.318 118.284 49.578 119.85 49.578ZM134.004 41.46L130.422 51H128.442L124.86 41.46H126.822L129.468 48.912L132.15 41.46H134.004ZM140.862 51V49.524C140.268 50.586 139.206 51.18 137.802 51.18C135.822 51.18 134.526 50.046 134.526 48.3C134.526 46.428 136.02 45.456 138.864 45.456C139.422 45.456 139.872 45.474 140.646 45.564V44.862C140.646 43.494 139.908 42.72 138.648 42.72C137.316 42.72 136.506 43.512 136.452 44.844H134.796C134.886 42.702 136.416 41.28 138.648 41.28C141.006 41.28 142.374 42.612 142.374 44.88V51H140.862ZM136.254 48.246C136.254 49.236 136.992 49.884 138.162 49.884C139.692 49.884 140.646 48.93 140.646 47.472V46.698C139.944 46.608 139.44 46.59 138.972 46.59C137.154 46.59 136.254 47.13 136.254 48.246ZM150.099 49.236V50.838C149.541 51.09 149.055 51.18 148.479 51.18C146.715 51.18 145.491 50.226 145.491 48.12V43.008H143.385V41.46H145.491V38.634H147.309V41.46H150.189V43.008H147.309V47.706C147.309 49.02 147.939 49.488 148.911 49.488C149.343 49.488 149.721 49.416 150.099 49.236ZM155.656 51.18C152.956 51.18 150.976 49.056 150.976 46.23C150.976 43.404 152.956 41.28 155.656 41.28C158.356 41.28 160.336 43.404 160.336 46.23C160.336 49.056 158.356 51.18 155.656 51.18ZM155.656 49.578C157.222 49.578 158.464 48.318 158.464 46.23C158.464 44.142 157.222 42.9 155.656 42.9C154.09 42.9 152.866 44.142 152.866 46.23C152.866 48.318 154.09 49.578 155.656 49.578ZM164.008 46.122V51H162.19V41.46H163.882V43.476C164.548 42.162 165.988 41.334 167.554 41.334V43.224C165.502 43.116 164.008 44.016 164.008 46.122ZM181.79 51L180.62 47.796H175.04L173.852 51H171.854L176.804 38.076H178.982L183.896 51H181.79ZM177.848 40.236L175.634 46.194H180.026L177.848 40.236ZM193.066 51L190.906 43.908L188.728 51H186.892L184.138 41.46H185.92L187.846 48.408L190.006 41.46H191.806L193.93 48.426L195.856 41.46H197.656L194.884 51H193.066ZM204.618 51V49.524C204.024 50.586 202.962 51.18 201.558 51.18C199.578 51.18 198.282 50.046 198.282 48.3C198.282 46.428 199.776 45.456 202.62 45.456C203.178 45.456 203.628 45.474 204.402 45.564V44.862C204.402 43.494 203.664 42.72 202.404 42.72C201.072 42.72 200.262 43.512 200.208 44.844H198.552C198.642 42.702 200.172 41.28 202.404 41.28C204.762 41.28 206.13 42.612 206.13 44.88V51H204.618ZM200.01 48.246C200.01 49.236 200.748 49.884 201.918 49.884C203.448 49.884 204.402 48.93 204.402 47.472V46.698C203.7 46.608 203.196 46.59 202.728 46.59C200.91 46.59 200.01 47.13 200.01 48.246ZM210.379 46.122V51H208.561V41.46H210.253V43.476C210.919 42.162 212.359 41.334 213.925 41.334V43.224C211.873 43.116 210.379 44.016 210.379 46.122ZM214.644 46.23C214.644 43.332 216.3 41.28 218.874 41.28C220.152 41.28 221.268 41.928 221.934 43.098V38.076H223.752V51H222.06V49.29C221.376 50.496 220.224 51.18 218.874 51.18C216.3 51.18 214.644 49.092 214.644 46.23ZM216.534 46.23C216.534 48.354 217.65 49.56 219.234 49.56C220.782 49.56 221.934 48.3 221.934 46.194C221.934 44.052 220.746 42.882 219.234 42.882C217.65 42.882 216.534 44.07 216.534 46.23ZM240.031 51L237.295 40.866L234.541 51H232.507L229.141 38.076H231.085L233.569 48.03L236.287 38.076H238.339L241.021 48.048L243.505 38.076H245.449L242.083 51H240.031ZM249.288 39.246C249.288 39.93 248.748 40.452 247.974 40.452C247.2 40.452 246.642 39.93 246.642 39.246C246.642 38.544 247.2 38.04 247.974 38.04C248.748 38.04 249.288 38.544 249.288 39.246ZM248.892 51H247.074V41.46H248.892V51ZM253.234 45.618V51H251.416V41.46H253.108V43.044C253.756 41.982 254.836 41.28 256.15 41.28C258.112 41.28 259.408 42.54 259.408 44.826V51H257.59V45.438C257.59 43.8 256.87 42.882 255.52 42.882C254.278 42.882 253.234 43.926 253.234 45.618ZM263.641 45.618V51H261.823V41.46H263.515V43.044C264.163 41.982 265.243 41.28 266.557 41.28C268.519 41.28 269.814 42.54 269.814 44.826V51H267.997V45.438C267.997 43.8 267.277 42.882 265.927 42.882C264.685 42.882 263.641 43.926 263.641 45.618ZM276.153 51.18C273.399 51.18 271.545 49.182 271.545 46.176C271.545 43.35 273.471 41.28 276.099 41.28C278.943 41.28 280.833 43.584 280.509 46.68H273.399C273.543 48.624 274.515 49.758 276.117 49.758C277.467 49.758 278.403 49.02 278.709 47.778H280.509C280.041 49.902 278.403 51.18 276.153 51.18ZM276.063 42.648C274.605 42.648 273.615 43.692 273.417 45.474H278.583C278.493 43.71 277.539 42.648 276.063 42.648ZM284.26 46.122V51H282.442V41.46H284.134V43.476C284.8 42.162 286.24 41.334 287.806 41.334V43.224C285.754 43.116 284.26 44.016 284.26 46.122Z" fill="#2A2A2C"/>
<defs>
<linearGradient id="paint0_linear_1870_109" x1="12.5223" y1="57.0955" x2="63.3308" y2="6.32032" gradientUnits="userSpaceOnUse">
<stop stop-color="#F56DCB"/>
<stop offset="1" stop-color="#FF96DF"/>
</linearGradient>
</defs>
</svg>
