<?xml version="1.0" encoding="UTF-8"?>
<svg width="191px" height="147px" viewBox="0 0 191 147" version="1.1" xmlns="http://www.w3.org/2000/svg" xmlns:xlink="http://www.w3.org/1999/xlink">
    <title>kc</title>
    <g id="Page-1" stroke="none" stroke-width="1" fill="none" fill-rule="evenodd">
        <path d="M36.08,144 L36.08,108.72 L36.472,108.72 L61.56,144 L102.72,144 L65.48,96.96 L98.8,53.84 L59.6,53.84 L36.472,87.16 L36.08,87.16 L36.08,0.92 L0.8,0.92 L0.8,144 L36.08,144 Z M155.906061,146.94 C162.962061,146.94 169.528061,145.764 175.604061,143.412 C181.680061,141.06 186.612728,137.858667 190.402061,133.808 L190.402061,133.808 L170.998061,110.484 C168.384728,113.097333 166.032728,114.926667 163.942061,115.972 C161.851394,117.017333 159.172728,117.54 155.906061,117.54 C151.986061,117.54 148.392728,116.037333 145.126061,113.032 C141.859394,110.026667 140.226061,105.322667 140.226061,98.92 C140.226061,92.5173333 141.859394,87.8133333 145.126061,84.808 C148.392728,81.8026667 151.986061,80.3 155.906061,80.3 C159.303394,80.3 162.243394,81.084 164.726061,82.652 C167.208728,84.22 169.364728,85.788 171.194061,87.356 L171.194061,87.356 L190.598061,63.64 C186.155394,59.8506667 181.255394,56.78 175.898061,54.428 C170.540728,52.076 163.876728,50.9 155.906061,50.9 C148.066061,50.9 141.010061,52.1086667 134.738061,54.526 C128.466061,56.9433333 123.108728,60.308 118.666061,64.62 C114.223394,68.932 110.826061,74.028 108.474061,79.908 C106.122061,85.788 104.946061,92.1253333 104.946061,98.92 C104.946061,105.714667 106.122061,112.052 108.474061,117.932 C110.826061,123.812 114.223394,128.908 118.666061,133.22 C123.108728,137.532 128.466061,140.896667 134.738061,143.314 C141.010061,145.731333 148.066061,146.94 155.906061,146.94 Z" id="kc" fill="#FFFFFF" fill-rule="nonzero"></path>
    </g>
</svg>