<?xml version="1.0" encoding="UTF-8"?>
<svg width="146px" height="146px" viewBox="0 0 146 146" version="1.1" xmlns="http://www.w3.org/2000/svg" xmlns:xlink="http://www.w3.org/1999/xlink">
    <!-- Generator: Sketch 56.2 (81672) - https://sketch.com -->
    <title>Combined Shape</title>
    <desc>Created with Sketch.</desc>
    <g id="Skapa" stroke="none" stroke-width="1" fill="none" fill-rule="evenodd">
        <path d="M129.3,87 C129.3,82.5264935 132.926494,78.9 137.4,78.9 C141.873506,78.9 145.5,82.5264935 145.5,87 L145.5,137.4 C145.5,141.873506 141.873506,145.5 137.4,145.5 L8.6,145.5 C4.12649353,145.5 0.5,141.873506 0.5,137.4 L0.5,8.6 C0.5,4.12649353 4.12649353,0.5 8.6,0.5 L59,0.5 C63.4735065,0.5 67.1,4.12649353 67.1,8.6 C67.1,13.0735065 63.4735065,16.7 59,16.7 L16.7,16.7 L16.7,129.3 L129.3,129.3 L129.3,87 Z M90.9860574,65.2740371 C87.8228106,68.4372839 82.6941743,68.4372839 79.5309275,65.2740371 C76.3676807,62.1107903 76.3676807,56.982154 79.5309275,53.8189072 L116.649835,16.7 L109.4,16.7 C104.926494,16.7 101.3,13.0735065 101.3,8.6 C101.3,4.12649353 104.926494,0.5 109.4,0.5 L137.4,0.5 C139.575291,0.5 141.619946,1.36481593 143.127565,2.87243507 C144.635184,4.38005421 145.5,6.42470873 145.5,8.6 L145.5,36.6 C145.5,41.0735065 141.873506,44.7 137.4,44.7 C132.926494,44.7 129.3,41.0735065 129.3,36.6 L129.3,26.9600944 L90.9860574,65.2740371 Z" id="Combined-Shape" fill="#FFFFFF" fill-rule="nonzero"></path>
    </g>
</svg>