<svg width="171" height="49" viewBox="0 0 171 49" fill="none" xmlns="http://www.w3.org/2000/svg">
<path fill-rule="evenodd" clip-rule="evenodd" d="M21.1688 0.34375L21.2985 0.350924C21.3842 0.360489 21.4672 0.37962 21.5412 0.408316L21.6445 0.458535L41.6472 12.001C41.8832 12.136 42.0802 12.4465 42.1211 12.7301L42.1289 12.8348V35.921C42.1289 36.1847 41.9633 36.506 41.7441 36.6855L41.6472 36.7532L21.6445 48.2968C21.5451 48.3547 21.4208 48.3904 21.2914 48.4036L21.161 48.4093C20.9826 48.4117 20.8188 48.374 20.6875 48.2968L0.684388 36.7532C0.418917 36.5989 0.207031 36.2224 0.207031 35.921V12.8348C0.207031 12.5268 0.418917 12.1529 0.684388 12.001L20.6875 0.458535C20.8188 0.382011 20.9948 0.34375 21.1688 0.34375ZM21.2023 12.2909L18.4701 17.0137L17.8464 18.1025L14.9247 23.2325C14.9168 23.2421 14.9168 23.2497 14.9091 23.2601L14.8972 23.2865C14.7998 23.4352 14.7088 23.5852 14.6219 23.7365C14.1837 24.5179 13.8962 25.3489 13.7517 26.1996C13.6864 26.6008 13.6475 27.0125 13.6475 27.4264C13.6475 31.5886 17.035 34.9765 21.2023 34.9801C25.3641 34.9765 28.7546 31.5886 28.7546 27.4264C28.7546 27.0125 28.7132 26.6008 28.6455 26.1996C28.5068 25.3489 28.2147 24.5179 27.7729 23.7365C27.6887 23.5882 27.5993 23.4352 27.5044 23.2865L27.4884 23.2601C27.4848 23.2497 27.4768 23.2421 27.4688 23.2325L24.5493 18.1025L23.9296 17.0137L21.2023 12.2909Z" fill="#2A2A2C"/>
<path d="M58.1464 36.0535C57.9688 36.0535 57.8748 36.1371 57.8435 36.3042L57.081 42.6025C57.0601 42.78 57.1541 42.895 57.3422 42.895H57.8227C58.0001 42.895 58.1046 42.8114 58.1256 42.6442L58.4493 39.8868H60.1727C60.3503 39.8868 60.4339 39.8032 60.4652 39.6361L60.5174 39.2392C60.5487 39.0407 60.4443 38.9467 60.2458 38.9467H58.5642L58.8045 37.004H61.1963C61.3739 37.004 61.4679 36.9205 61.4888 36.7532L61.541 36.3459C61.5723 36.1684 61.4784 36.0535 61.2799 36.0535H58.1464ZM64.8487 37.7978C64.6816 37.7978 64.5875 37.8813 64.5562 38.0484L64.3369 39.5943C64.2011 40.5553 63.7519 42.0907 62.8954 42.0907C62.5507 42.0907 62.3836 41.8505 62.509 41.0671L62.9372 38.0902C62.9686 37.9126 62.8746 37.7978 62.6865 37.7978H62.2061C62.0389 37.7978 61.9449 37.8813 61.9136 38.0484L61.4645 41.1611C61.2765 42.4145 61.736 43.0203 62.5299 43.0203C63.3028 43.0203 63.9609 42.31 64.4309 40.9104L64.4622 40.9L64.4935 40.9209L64.0235 42.3727C63.9922 42.4563 63.9817 42.5085 63.9713 42.6025C63.9504 42.7905 64.0235 42.895 64.2116 42.895H64.6606C64.8277 42.895 64.9218 42.8114 64.9532 42.6442L65.5903 38.0902C65.6216 37.9126 65.5276 37.7978 65.3292 37.7978H64.8487ZM68.7055 37.6724C67.6088 37.6724 66.7731 38.4663 66.5329 40.0748L66.4076 40.879C66.1987 42.3205 66.7105 43.0203 67.9012 43.0203C68.2772 43.0203 68.789 42.9054 69.2174 42.7174C69.3635 42.6547 69.4366 42.5607 69.4575 42.425L69.5202 42.0803C69.5619 41.8609 69.4471 41.7564 69.2277 41.8505C68.8517 42.028 68.4443 42.1324 68.0893 42.1324C67.5148 42.1324 67.2849 41.8505 67.379 41.1924L67.3999 41.0671C69.4262 40.8791 70.2095 40.0017 70.22 38.9885C70.2305 38.2052 69.6664 37.6724 68.7055 37.6724ZM68.6533 38.5289C68.9875 38.5289 69.2069 38.7378 69.2069 39.1139C69.2069 39.5004 68.9875 39.8451 68.4757 40.1896C68.2251 40.2941 67.9012 40.3777 67.5043 40.4404L67.567 40.0122C67.7236 38.9989 68.1937 38.5289 68.6533 38.5289ZM71.8954 35.761C71.7178 35.761 71.6238 35.855 71.6133 36.0221C71.582 36.7011 71.5194 37.38 71.3941 38.2887L70.7986 42.6025C70.7673 42.78 70.8613 42.895 71.0494 42.895H71.5298C71.6969 42.895 71.7909 42.8114 71.8223 42.6442L72.4594 38.1007C72.5743 37.286 72.6265 36.5757 72.6474 36.0326C72.6578 35.8655 72.5535 35.761 72.3759 35.761H71.8954ZM73.8937 42.895C74.0608 42.895 74.1549 42.8114 74.1862 42.6442L74.8128 38.0902C74.8442 37.9126 74.7502 37.7978 74.5622 37.7978H74.0817C73.9146 37.7978 73.8206 37.8813 73.7892 38.0484L73.1626 42.6025C73.1312 42.78 73.2252 42.895 73.4133 42.895H73.8937ZM75.1993 36.1266C75.2411 35.7714 75.0114 35.5625 74.5935 35.5625C74.1966 35.5625 73.9564 35.7192 73.9146 36.0743L73.8728 36.3668C73.8206 36.7115 74.0713 36.9308 74.4681 36.9308C74.886 36.9308 75.1054 36.7637 75.1575 36.419L75.1993 36.1266ZM78.6809 37.6724C77.8557 37.6724 77.1141 38.5812 76.6128 40.3882L76.5815 40.409L76.5397 40.3882L76.9888 38.7796C77.0201 38.6543 77.0515 38.5185 77.0618 38.4036L77.1036 38.0902C77.1246 37.9126 77.041 37.7978 76.853 37.7978H76.4457C76.2786 37.7978 76.1845 37.8813 76.1531 38.0484L75.5265 42.6025C75.4952 42.78 75.5892 42.895 75.7771 42.895H76.2576C76.4247 42.895 76.5187 42.8114 76.5501 42.6442L76.5605 42.5711C76.8947 40.0748 77.6573 38.6334 78.3153 38.6334C78.6077 38.6334 78.7644 38.8423 78.6495 39.563L78.1691 42.6025C78.1482 42.78 78.2317 42.895 78.4198 42.895H78.9002C79.0674 42.895 79.1717 42.8114 79.1927 42.6442L79.6522 39.5839C79.8716 38.1842 79.4747 37.6724 78.6809 37.6724ZM82.5379 37.6724C81.7337 37.6724 81.0965 38.247 80.8877 39.5107L80.6265 41.1611C80.4175 42.3936 80.9085 43.0203 81.7024 43.0203C82.4857 43.0203 83.1229 42.31 83.6033 40.9104L83.645 40.9L83.666 40.9209L83.196 42.3727C83.1124 42.6025 83.0706 42.895 83.0079 43.271C82.9244 43.8246 82.6737 44.0544 82.0679 44.0544C81.7337 44.0544 81.3159 43.9812 80.9294 43.8663C80.7414 43.8141 80.616 43.8976 80.5951 44.0857L80.5533 44.4512C80.5325 44.6184 80.6056 44.7228 80.7727 44.7646C81.2009 44.8796 81.7024 44.9526 82.0679 44.9526C83.3005 44.9526 83.8644 44.4408 84.042 43.177L84.7628 38.0902C84.7941 37.9126 84.7 37.7978 84.512 37.7978H84.1047C83.9376 37.7978 83.8331 37.8813 83.8123 38.0484L83.7705 38.32C83.4466 37.9336 82.9975 37.6724 82.5379 37.6724ZM82.7259 38.5707C83.0289 38.5707 83.3735 38.7692 83.6033 39.0825L83.4884 39.9181C83.3108 40.8372 82.8303 42.0907 82.0679 42.0907C81.7127 42.0907 81.5456 41.8505 81.6814 41.0671L81.9217 39.5735C82.0366 38.8528 82.3185 38.5707 82.7259 38.5707Z" fill="#2A2A2C"/>
<path d="M91.1971 36.0535C91.0195 36.0535 90.9255 36.1371 90.8942 36.3042L90.1318 42.6025C90.1108 42.7905 90.2048 42.895 90.4137 42.895H93.5577C93.7353 42.895 93.8293 42.8114 93.8501 42.6339L93.8919 42.2474C93.9128 42.0593 93.8188 41.955 93.6412 41.955H91.2494L91.9491 36.3459C91.9701 36.1684 91.8656 36.0535 91.6776 36.0535H91.1971ZM95.5099 42.895C95.677 42.895 95.771 42.8114 95.8024 42.6442L96.4291 38.0902C96.4604 37.9126 96.3664 37.7978 96.1784 37.7978H95.6979C95.5308 37.7978 95.4368 37.8813 95.4055 38.0484L94.7787 42.6025C94.7474 42.78 94.8415 42.895 95.0294 42.895H95.5099ZM96.8156 36.1266C96.8573 35.7714 96.6275 35.5625 96.2097 35.5625C95.8128 35.5625 95.5726 35.7192 95.5308 36.0743L95.4891 36.3668C95.4368 36.7115 95.6875 36.9308 96.0844 36.9308C96.5022 36.9308 96.7215 36.7637 96.7738 36.419L96.8156 36.1266ZM99.942 35.6356C98.9497 35.6356 98.3544 36.1684 98.1976 37.3069L98.1141 37.8605L97.55 37.9544C97.3724 37.9858 97.3203 38.0484 97.2994 38.2052L97.268 38.4036C97.2471 38.5916 97.3203 38.6647 97.5187 38.6647H97.9992L97.3724 43.1874C97.2889 43.8663 97.0905 44.0649 96.704 44.0649C96.5682 44.0649 96.4011 44.0439 96.2235 43.9917C96.0459 43.9499 95.9311 44.023 95.8998 44.211L95.8579 44.5349C95.8266 44.702 95.9101 44.8064 96.0772 44.8586C96.3071 44.9109 96.5995 44.9526 96.8084 44.9526C97.7276 44.9526 98.2289 44.4304 98.4065 43.1561L99.0333 38.6647H99.7017C99.8688 38.6647 99.9628 38.5812 99.9838 38.4141L100.036 38.0902C100.067 37.9126 99.9733 37.7978 99.7748 37.7978H99.1586L99.2317 37.2965C99.3152 36.6906 99.5346 36.4921 99.9315 36.4921C100.067 36.4921 100.255 36.5235 100.422 36.5653C100.61 36.5966 100.725 36.5339 100.746 36.3459L100.788 36.0326C100.809 35.855 100.736 35.7506 100.569 35.7088C100.37 35.667 100.12 35.6356 99.942 35.6356ZM102.663 37.6724C101.566 37.6724 100.731 38.4663 100.49 40.0748L100.365 40.879C100.156 42.3205 100.668 43.0203 101.859 43.0203C102.235 43.0203 102.747 42.9054 103.175 42.7174C103.321 42.6547 103.394 42.5607 103.415 42.425L103.478 42.0803C103.52 41.8609 103.405 41.7564 103.185 41.8505C102.809 42.028 102.402 42.1324 102.047 42.1324C101.472 42.1324 101.243 41.8505 101.337 41.1924L101.357 41.0671C103.384 40.8791 104.168 40.0017 104.178 38.9885C104.188 38.2052 103.624 37.6724 102.663 37.6724ZM102.611 38.5289C102.945 38.5289 103.164 38.7378 103.164 39.1139C103.164 39.5004 102.945 39.8451 102.433 40.1896C102.183 40.2941 101.859 40.3777 101.462 40.4404L101.524 40.0122C101.681 38.9989 102.151 38.5289 102.611 38.5289ZM106.166 35.6356C105.759 35.6356 105.55 35.7714 105.497 36.1161L105.466 36.3773C105.425 36.6593 105.54 36.8682 105.769 36.9413L105.487 37.6934C105.414 37.8813 105.497 37.9858 105.686 37.9858H105.884C106.02 37.9858 106.125 37.9336 106.177 37.7978L106.573 37.0144C106.657 36.8368 106.688 36.7115 106.719 36.5131L106.762 36.2206C106.803 35.8655 106.585 35.6356 106.166 35.6356ZM108.961 37.6724C107.884 37.6724 107.373 38.1007 107.237 38.8214L107.206 38.9781C107.101 39.6152 107.373 40.1897 108.063 40.503L108.867 40.8687C109.138 41.0045 109.264 41.2551 109.221 41.5058L109.211 41.558C109.149 41.9445 108.908 42.1324 108.469 42.1324C108.376 42.1324 108.25 42.1221 108.073 42.1011C107.864 42.0385 107.561 41.9235 107.3 41.7982C107.122 41.7147 106.987 41.7877 106.955 41.9863L106.903 42.3623C106.882 42.5294 106.924 42.6339 107.08 42.7069C107.519 42.9054 108.073 43.0203 108.512 43.0203C109.546 43.0203 110.12 42.4668 110.214 41.6624L110.235 41.4953C110.308 40.8582 110.016 40.3359 109.421 40.0643L108.574 39.6675C108.292 39.5421 108.166 39.3019 108.209 39.0407L108.219 38.9885C108.271 38.696 108.469 38.5289 108.929 38.5289C109.023 38.5289 109.19 38.5394 109.305 38.5499C109.483 38.5916 109.681 38.6647 109.88 38.7378C110.057 38.8005 110.173 38.7273 110.204 38.5289L110.266 38.1634C110.287 37.9962 110.224 37.8813 110.057 37.8396C109.671 37.7352 109.254 37.6724 108.961 37.6724Z" fill="#2A2A2C"/>
<path d="M118.442 36.058C118.285 36.058 118.18 36.1207 118.128 36.267L115.444 42.5757C115.371 42.7638 115.454 42.8995 115.664 42.8995H116.185C116.352 42.8995 116.447 42.8369 116.509 42.6906C116.698 42.252 116.865 41.8237 117.042 41.3746H119.392C119.455 41.8028 119.517 42.2206 119.559 42.6385C119.581 42.8056 119.684 42.8995 119.863 42.8995H120.405C120.603 42.8995 120.687 42.7846 120.656 42.6071L119.517 36.3088C119.486 36.1416 119.392 36.058 119.225 36.058H118.442ZM118.724 36.9877C118.922 38.1366 119.099 39.3065 119.267 40.4658H117.397C117.857 39.3169 118.295 38.1575 118.724 36.9877ZM125.219 35.7656C125.052 35.7656 124.958 35.8491 124.927 36.0162L124.624 38.2619C124.3 37.9068 123.872 37.677 123.433 37.677C122.64 37.677 122.012 38.2201 121.804 39.484L121.532 41.1657C121.323 42.3982 121.835 43.0249 122.607 43.0249C123.392 43.0249 124.039 42.3146 124.509 40.915L124.55 40.9046L124.571 40.9254L124.175 42.0953C124.132 42.2101 124.112 42.2938 124.07 42.6071C124.049 42.7846 124.144 42.8995 124.331 42.8995H124.75C124.917 42.8995 125.01 42.8159 125.042 42.6488L125.951 36.058C125.971 35.8805 125.887 35.7656 125.7 35.7656H125.219ZM123.642 38.6066C123.945 38.6066 124.268 38.7737 124.509 39.0663L124.373 40.0794C124.175 40.9776 123.695 42.0953 122.974 42.0953C122.629 42.0953 122.451 41.8551 122.587 41.0717L122.827 39.5781C122.943 38.8573 123.224 38.6066 123.642 38.6066ZM129.987 37.8024C129.83 37.8024 129.736 37.8755 129.674 38.0217C129.089 39.6616 128.765 40.4868 128.044 42.0953L128.013 42.1162L127.982 42.0953C127.887 40.7478 127.752 39.4736 127.543 38.0635C127.512 37.8964 127.417 37.8024 127.24 37.8024H126.77C126.581 37.8024 126.488 37.9172 126.519 38.0948L127.271 42.6488C127.302 42.8159 127.407 42.8995 127.574 42.8995H128.357C128.524 42.8995 128.619 42.8369 128.691 42.6698L130.729 38.1261C130.812 37.9382 130.729 37.8024 130.519 37.8024H129.987ZM133.279 37.677C132.183 37.677 131.347 38.4708 131.107 40.0794L130.982 40.8836C130.772 42.3251 131.285 43.0249 132.475 43.0249C132.851 43.0249 133.363 42.91 133.792 42.722C133.937 42.6593 134.011 42.5653 134.031 42.4295L134.095 42.0848C134.136 41.8654 134.021 41.761 133.802 41.8551C133.426 42.0326 133.018 42.137 132.663 42.137C132.089 42.137 131.859 41.8551 131.953 41.197L131.973 41.0717C134 40.8836 134.783 40.0063 134.794 38.9931C134.804 38.2097 134.24 37.677 133.279 37.677ZM133.227 38.5335C133.562 38.5335 133.78 38.7424 133.78 39.1184C133.78 39.5049 133.561 39.8496 133.05 40.1942C132.799 40.2987 132.475 40.3823 132.078 40.4449L132.141 40.0167C132.298 39.0035 132.768 38.5335 133.227 38.5335ZM138.527 37.677C137.701 37.677 136.961 38.5858 136.459 40.3928L136.428 40.4136L136.386 40.3928L136.835 38.7842C136.866 38.6589 136.898 38.5231 136.908 38.4082L136.949 38.0948C136.971 37.9172 136.887 37.8024 136.699 37.8024H136.292C136.125 37.8024 136.03 37.8859 135.999 38.053L135.373 42.6071C135.342 42.7846 135.435 42.8995 135.624 42.8995H136.104C136.271 42.8995 136.365 42.8159 136.396 42.6488L136.407 42.5757C136.741 40.0794 137.503 38.6379 138.161 38.6379C138.453 38.6379 138.61 38.8469 138.496 39.5676L138.015 42.6071C137.994 42.7846 138.078 42.8995 138.266 42.8995H138.746C138.913 42.8995 139.018 42.8159 139.039 42.6488L139.498 39.5884C139.718 38.1888 139.321 37.677 138.527 37.677ZM141.988 36.4445C141.852 36.4445 141.778 36.5177 141.716 36.6638L141.298 37.8546L140.692 37.959C140.504 37.9904 140.462 38.053 140.441 38.2097L140.41 38.4082C140.389 38.5961 140.462 38.6693 140.661 38.6693H141.11L140.733 41.3536C140.566 42.5548 141.005 43.0249 142.029 43.0249C142.269 43.0249 142.635 42.9622 142.886 42.8577C143.032 42.8056 143.094 42.7115 143.115 42.5548L143.157 42.2415C143.189 42.0326 143.074 41.9177 142.875 42.0012C142.676 42.0848 142.415 42.1266 142.248 42.1266C141.862 42.1266 141.685 41.9281 141.757 41.4164L142.134 38.6693H143.199C143.366 38.6693 143.46 38.5858 143.48 38.4187L143.533 38.0948C143.564 37.9172 143.47 37.8024 143.282 37.8024H142.258L142.405 36.737C142.437 36.5594 142.373 36.4445 142.196 36.4445H141.988ZM147.549 37.8024C147.382 37.8024 147.287 37.8859 147.256 38.053L147.036 39.5989C146.901 40.5599 146.452 42.0953 145.595 42.0953C145.251 42.0953 145.083 41.8551 145.208 41.0717L145.637 38.0948C145.668 37.9172 145.575 37.8024 145.386 37.8024H144.906C144.739 37.8024 144.645 37.8859 144.613 38.053L144.164 41.1657C143.976 42.4191 144.436 43.0249 145.229 43.0249C146.003 43.0249 146.661 42.3146 147.131 40.915L147.162 40.9046L147.193 40.9254L146.723 42.3773C146.692 42.4609 146.681 42.513 146.671 42.6071C146.65 42.7951 146.723 42.8995 146.912 42.8995H147.361C147.528 42.8995 147.621 42.8159 147.653 42.6488L148.29 38.0948C148.321 37.9172 148.227 37.8024 148.029 37.8024H147.549ZM152.032 37.677C151.29 37.677 150.58 38.5858 150.079 40.3928L150.048 40.4136L150.006 40.3928L150.455 38.7842C150.486 38.6589 150.517 38.5231 150.528 38.4082L150.569 38.0948C150.591 37.9172 150.507 37.8024 150.319 37.8024H149.912C149.745 37.8024 149.65 37.8859 149.619 38.053L148.993 42.6071C148.972 42.7846 149.055 42.8995 149.244 42.8995H149.724C149.891 42.8995 149.984 42.8159 150.016 42.6488L150.037 42.4504C150.309 40.3614 150.946 38.8887 151.771 38.8887C151.823 38.8887 151.844 38.8887 151.927 38.8991C152.022 38.9095 152.073 38.8887 152.106 38.7216L152.209 37.98C152.24 37.7397 152.199 37.677 152.032 37.677ZM154.871 37.677C153.775 37.677 152.939 38.4708 152.699 40.0794L152.573 40.8836C152.364 42.3251 152.876 43.0249 154.067 43.0249C154.443 43.0249 154.955 42.91 155.382 42.722C155.529 42.6593 155.602 42.5653 155.623 42.4295L155.685 42.0848C155.728 41.8654 155.613 41.761 155.393 41.8551C155.017 42.0326 154.61 42.137 154.255 42.137C153.68 42.137 153.451 41.8551 153.544 41.197L153.565 41.0717C155.592 40.8836 156.375 40.0063 156.386 38.9931C156.396 38.2097 155.832 37.677 154.871 37.677ZM154.819 38.5335C155.153 38.5335 155.372 38.7424 155.372 39.1184C155.372 39.5049 155.153 39.8496 154.641 40.1942C154.391 40.2987 154.067 40.3823 153.67 40.4449L153.732 40.0167C153.889 39.0035 154.36 38.5335 154.819 38.5335ZM158.949 37.677C157.873 37.677 157.362 38.1053 157.226 38.826L157.194 38.9826C157.09 39.6198 157.362 40.1942 158.05 40.5076L158.854 40.8733C159.126 41.009 159.252 41.2597 159.21 41.5104L159.2 41.5626C159.136 41.9491 158.897 42.137 158.458 42.137C158.364 42.137 158.238 42.1266 158.061 42.1057C157.852 42.043 157.549 41.9281 157.288 41.8028C157.111 41.7193 156.975 41.7923 156.944 41.9909L156.891 42.3669C156.87 42.534 156.912 42.6385 157.069 42.7115C157.507 42.91 158.061 43.0249 158.5 43.0249C159.534 43.0249 160.108 42.4713 160.202 41.667L160.223 41.4999C160.296 40.8628 160.004 40.3405 159.408 40.0689L158.562 39.672C158.281 39.5466 158.155 39.3065 158.197 39.0453L158.207 38.9931C158.259 38.7006 158.458 38.5335 158.918 38.5335C159.011 38.5335 159.179 38.544 159.293 38.5544C159.471 38.5961 159.67 38.6693 159.868 38.7424C160.045 38.8051 160.16 38.7319 160.191 38.5335L160.255 38.1679C160.275 38.0008 160.212 37.8859 160.045 37.8442C159.659 37.7397 159.241 37.677 158.949 37.677Z" fill="#2A2A2C"/>
<path fill-rule="evenodd" clip-rule="evenodd" d="M68.0933 24.0622V26.3998H56.9375V3.96875H59.7596V24.0622H68.0933Z" fill="#2A2A2C"/>
<mask id="mask0_1870_81" style="mask-type:alpha" maskUnits="userSpaceOnUse" x="0" y="0" width="171" height="49">
<path d="M0.207031 48.4095H170.789V0.34375H0.207031V48.4095Z" fill="white"/>
</mask>
<g mask="url(#mask0_1870_81)">
<path fill-rule="evenodd" clip-rule="evenodd" d="M70.9453 26.3917H73.7682V3.96094H70.9453V26.3917Z" fill="#2A2A2C"/>
<path fill-rule="evenodd" clip-rule="evenodd" d="M85.1458 24.2129C89.4432 24.2129 89.735 23.7982 89.735 15.1755C89.735 6.55352 89.4432 6.13662 85.1458 6.13662C80.8183 6.13662 80.5326 6.55352 80.5326 15.1755C80.5326 23.7982 80.8183 24.2129 85.1458 24.2129ZM90.7895 29.6008L90.9848 29.8224V30.4646C90.9848 31.5521 90.4389 31.9381 88.0978 31.9381C85.0842 31.9381 84.7605 31.5202 84.1524 27.9965L83.9298 26.553C78.4796 26.3926 77.6445 24.8239 77.6445 15.1755C77.6445 4.85746 78.6073 3.76562 85.1151 3.76562C91.6869 3.76562 92.648 4.85746 92.648 15.1755C92.648 24.76 91.8155 26.3926 86.4314 26.553L86.6228 27.8058C86.9112 29.6623 87.072 29.7915 88.9624 29.7915C89.6363 29.7915 90.4049 29.7275 90.7895 29.6008Z" fill="#2A2A2C"/>
<path fill-rule="evenodd" clip-rule="evenodd" d="M110.634 17.227C110.634 25.2056 109.353 26.5861 103.451 26.5861C97.6501 26.5861 96.3672 25.2056 96.3672 17.227V3.96094H99.1875V17.3262C99.1875 24.0208 99.7975 24.1793 103.484 24.1793C107.172 24.1793 107.814 24.0208 107.814 17.3262V3.96094H110.634V17.227Z" fill="#2A2A2C"/>
<path fill-rule="evenodd" clip-rule="evenodd" d="M114.938 26.3917H117.755V3.96094H114.938V26.3917Z" fill="#2A2A2C"/>
<path fill-rule="evenodd" clip-rule="evenodd" d="M125.414 24.0208H129.327C133.333 24.0208 133.878 23.4443 133.878 15.11C133.878 6.90463 133.333 6.33009 129.327 6.33009H125.414V24.0208ZM129.295 3.96094C135.514 3.96094 136.731 4.53548 136.731 15.11C136.731 25.688 135.514 26.3917 129.295 26.3917H122.594V3.96094H129.295Z" fill="#2A2A2C"/>
<path fill-rule="evenodd" clip-rule="evenodd" d="M141.52 26.3917H144.341V3.96094H141.52V26.3917Z" fill="#2A2A2C"/>
<path fill-rule="evenodd" clip-rule="evenodd" d="M159.6 23.6053C158.957 26.4241 158.572 26.5861 155.914 26.5861C153.249 26.5861 152.771 26.4575 152.097 23.6053L147.898 3.96094H150.848L154.759 22.9938C154.984 24.2121 155.114 24.2433 155.914 24.2433C156.747 24.2433 156.812 24.2121 157.067 22.9938L160.916 3.96094H163.928L159.6 23.6053Z" fill="#2A2A2C"/>
<path fill-rule="evenodd" clip-rule="evenodd" d="M149.823 25.2419C149.823 25.9293 149.264 26.4877 148.578 26.4877C147.889 26.4877 147.332 25.9293 147.332 25.2419C147.332 24.5568 147.889 24 148.578 24C149.264 24 149.823 24.5568 149.823 25.2419Z" fill="#2A2A2C"/>
<path fill-rule="evenodd" clip-rule="evenodd" d="M164.242 25.2419C164.242 25.9293 163.683 26.4877 162.997 26.4877C162.308 26.4877 161.75 25.9293 161.75 25.2419C161.75 24.5568 162.308 24 162.997 24C163.683 24 164.242 24.5568 164.242 25.2419Z" fill="#2A2A2C"/>
<path fill-rule="evenodd" clip-rule="evenodd" d="M168.373 5.05032V5.88534C168.529 5.89635 168.696 5.89635 168.785 5.89635C169.152 5.89635 169.286 5.74056 169.286 5.51803V5.41732C169.286 5.17276 169.152 5.02828 168.774 5.02828C168.696 5.02828 168.462 5.03929 168.373 5.05032ZM169.686 5.40631V5.52905C169.686 5.78495 169.509 6.05186 169.208 6.1749L169.676 6.99829C169.731 7.08737 169.676 7.16511 169.587 7.16511H169.386C169.352 7.16511 169.319 7.14308 169.297 7.11002L168.83 6.24194H168.373V7.06533C168.373 7.13206 168.34 7.16511 168.273 7.16511H168.083C168.016 7.16511 167.983 7.13206 167.983 7.06533V4.83942C167.983 4.75035 168.038 4.70505 168.128 4.70505C168.373 4.68271 168.585 4.67168 168.74 4.67168C169.43 4.67168 169.686 4.97257 169.686 5.40631ZM167.137 5.6628V6.21928C167.137 7.20979 167.638 7.69954 168.752 7.69954C169.865 7.69954 170.366 7.20979 170.366 6.21928V5.65178C170.366 4.63831 169.865 4.17121 168.752 4.17121C167.638 4.17121 167.137 4.66065 167.137 5.6628ZM170.789 5.75158V6.1296C170.789 7.35427 170.21 8.10022 168.752 8.10022C167.282 8.10022 166.703 7.3653 166.703 6.1296V5.75158C166.703 4.50486 167.282 3.78125 168.752 3.78125C170.21 3.78125 170.789 4.50486 170.789 5.75158Z" fill="#2A2A2C"/>
</g>
</svg>
