<?xml version="1.0" encoding="UTF-8"?>
<svg width="165px" height="47px" viewBox="0 0 165 47" version="1.1" xmlns="http://www.w3.org/2000/svg" xmlns:xlink="http://www.w3.org/1999/xlink">
    <title>Liquid-IV Logo</title>
    <defs>
        <polygon id="path-1" points="0 46.6318 164.446 46.6318 164.446 0.295044 0 0.295044"></polygon>
    </defs>
    <g id="Symbols" stroke="none" stroke-width="1" fill="none" fill-rule="evenodd">
        <g id="Liquid-IV-Logo">
            <g id="Clipped" fill="#FFFFFF">
                <path d="M20.2077,0.295288 L20.3327094,0.302203953 C20.4153531,0.311425234 20.4954344,0.329867828 20.5667281,0.357531859 L20.6663,0.405944 L39.9495,11.5332 C40.1769667,11.6633333 40.3669025,11.9626321 40.4063022,12.2360587 L40.4138,12.337 L40.4138,34.5927 C40.4138,34.846975 40.2542438,35.1566813 40.0429217,35.3297521 L39.9495,35.395 L20.6663,46.5234 C20.57045,46.5792 20.4506938,46.6135688 20.3259313,46.6263002 L20.2002,46.6318116 C20.0282,46.6341 19.8703,46.5978 19.7437,46.5234 L0.460185,35.395 C0.204264,35.2463 -8.70414851e-14,34.8833 -8.70414851e-14,34.5927 L-8.70414851e-14,12.337 C-8.70414851e-14,12.0401 0.204264,11.6796 0.460185,11.5332 L19.7437,0.405944 C19.8703,0.332173 20.04,0.295288 20.2077,0.295288 Z M20.24,11.8127 L17.6061,16.3656 L17.0048,17.4152 L14.1882,22.3607 C14.1806,22.3699 14.1806,22.3773 14.1732,22.3873 L14.1732,22.3873 L14.1617,22.4127 C14.0678,22.5561 13.9801,22.7007 13.8963,22.8465 C13.4739,23.5998 13.1967,24.4009 13.0574,25.221 C12.9945,25.6078 12.957,26.0047 12.957,26.4037 C12.957,30.4162 16.2226,33.6822 20.24,33.6857 C24.2521,33.6822 27.5206,30.4162 27.5206,26.4037 C27.5206,26.0047 27.4807,25.6078 27.4155,25.221 C27.2818,24.4009 27.0002,23.5998 26.5743,22.8465 C26.4931,22.7036 26.4069,22.5561 26.3154,22.4127 L26.3154,22.4127 L26.3,22.3873 C26.2965,22.3773 26.2888,22.3699 26.2811,22.3607 L26.2811,22.3607 L23.4666,17.4152 L22.8692,16.3656 L20.24,11.8127 Z" id="Combined-Shape"></path>
            </g>
            <g id="Clipped" transform="translate(20.000000, 0.000000)"></g>
            <path d="M55.8577,34.7226 C55.6865,34.7226 55.5959,34.8032 55.5657,34.9643 L54.8306,41.0361 C54.8105,41.2072 54.9011,41.318 55.0824,41.318 L55.5456,41.318 C55.7167,41.318 55.8174,41.2374 55.8376,41.0763 L56.1497,38.418 L57.8111,38.418 C57.9823,38.418 58.0629,38.3375 58.0931,38.1764 L58.1434,37.7937 C58.1736,37.6024 58.0729,37.5118 57.8816,37.5118 L56.2605,37.5118 L56.4921,35.6389 L58.7979,35.6389 C58.9691,35.6389 59.0597,35.5584 59.0799,35.3972 L59.1302,35.0045 C59.1604,34.8334 59.0698,34.7226 58.8785,34.7226 L55.8577,34.7226 Z M62.3189,36.4042 C62.1578,36.4042 62.0671,36.4847 62.0369,36.6458 L61.8255,38.1361 C61.6946,39.0625 61.2616,40.5427 60.4359,40.5427 C60.1036,40.5427 59.9425,40.3111 60.0634,39.5559 L60.4762,36.6861 C60.5064,36.5149 60.4158,36.4042 60.2345,36.4042 L59.7714,36.4042 C59.6102,36.4042 59.5196,36.4847 59.4894,36.6458 L59.0564,39.6465 C58.8752,40.8548 59.3182,41.4388 60.0835,41.4388 C60.8286,41.4388 61.463,40.7541 61.9161,39.4048 L61.9463,39.3948 L61.9765,39.4149 L61.5234,40.8145 C61.4932,40.8951 61.4831,40.9454 61.4731,41.0361 C61.4529,41.2173 61.5234,41.318 61.7047,41.318 L62.1376,41.318 C62.2987,41.318 62.3894,41.2374 62.4196,41.0763 L63.0338,36.6861 C63.064,36.5149 62.9734,36.4042 62.7821,36.4042 L62.3189,36.4042 Z M66.037,36.2833 C64.9797,36.2833 64.1741,37.0486 63.9425,38.5993 L63.8217,39.3746 C63.6203,40.7642 64.1137,41.4388 65.2616,41.4388 C65.6241,41.4388 66.1175,41.3281 66.5304,41.1468 C66.6713,41.0864 66.7418,40.9958 66.7619,40.8649 L66.8224,40.5326 C66.8626,40.3211 66.7519,40.2204 66.5404,40.3111 C66.1779,40.4822 65.7852,40.5829 65.4429,40.5829 C64.8891,40.5829 64.6675,40.3111 64.7582,39.6767 L64.7783,39.5559 C66.7317,39.3746 67.4869,38.5288 67.497,37.5521 C67.5071,36.7969 66.9633,36.2833 66.037,36.2833 Z M65.9866,37.109 C66.3088,37.109 66.5203,37.3104 66.5203,37.6729 C66.5203,38.0455 66.3088,38.3778 65.8154,38.71 C65.5738,38.8107 65.2616,38.8913 64.879,38.9517 L64.9394,38.5389 C65.0904,37.5621 65.5436,37.109 65.9866,37.109 Z M69.1121,34.4407 C68.9409,34.4407 68.8503,34.5313 68.8402,34.6924 C68.81,35.3469 68.7496,36.0014 68.6288,36.8774 L68.0548,41.0361 C68.0246,41.2072 68.1152,41.318 68.2965,41.318 L68.7597,41.318 C68.9208,41.318 69.0114,41.2374 69.0416,41.0763 L69.6558,36.6962 C69.7666,35.9108 69.8169,35.2261 69.8371,34.7025 C69.8471,34.5414 69.7465,34.4407 69.5753,34.4407 L69.1121,34.4407 Z M71.0385,41.318 C71.1996,41.318 71.2903,41.2374 71.3205,41.0763 L71.9246,36.6861 C71.9548,36.5149 71.8642,36.4042 71.683,36.4042 L71.2198,36.4042 C71.0587,36.4042 70.9681,36.4847 70.9378,36.6458 L70.3337,41.0361 C70.3035,41.2072 70.3941,41.318 70.5754,41.318 L71.0385,41.318 Z M72.2972,34.7931 C72.3375,34.4507 72.116,34.2493 71.7132,34.2493 C71.3305,34.2493 71.099,34.4004 71.0587,34.7427 L71.0184,35.0247 C70.9681,35.357 71.2097,35.5684 71.5923,35.5684 C71.9951,35.5684 72.2066,35.4073 72.2569,35.075 L72.2972,34.7931 Z M75.6535,36.2833 C74.858,36.2833 74.1431,37.1594 73.6598,38.9014 L73.6296,38.9215 L73.5893,38.9014 L74.0223,37.3507 C74.0525,37.2299 74.0827,37.099 74.0927,36.9882 L74.133,36.6861 C74.1532,36.5149 74.0726,36.4042 73.8914,36.4042 L73.4987,36.4042 C73.3376,36.4042 73.2469,36.4847 73.2167,36.6458 L72.6126,41.0361 C72.5824,41.2072 72.673,41.318 72.8542,41.318 L73.3174,41.318 C73.4785,41.318 73.5691,41.2374 73.5994,41.0763 L73.6094,41.0058 C73.9316,38.5993 74.6667,37.2097 75.3011,37.2097 C75.583,37.2097 75.734,37.4111 75.6233,38.1059 L75.1601,41.0361 C75.14,41.2072 75.2205,41.318 75.4018,41.318 L75.8649,41.318 C76.0261,41.318 76.1267,41.2374 76.1469,41.0763 L76.5899,38.126 C76.8014,36.7767 76.4188,36.2833 75.6535,36.2833 Z M79.3718,36.2833 C78.5965,36.2833 77.9822,36.8372 77.7809,38.0555 L77.5291,39.6465 C77.3277,40.8347 77.801,41.4388 78.5663,41.4388 C79.3215,41.4388 79.9357,40.7541 80.3989,39.4048 L80.4391,39.3948 L80.4593,39.4149 L80.0062,40.8145 C79.9256,41.0361 79.8853,41.318 79.8249,41.6805 C79.7444,42.2142 79.5027,42.4357 78.9187,42.4357 C78.5965,42.4357 78.1937,42.3652 77.8211,42.2544 C77.6399,42.2041 77.519,42.2846 77.4989,42.4659 L77.4586,42.8183 C77.4385,42.9794 77.509,43.0801 77.6701,43.1204 C78.0829,43.2312 78.5663,43.3016 78.9187,43.3016 C80.1069,43.3016 80.6506,42.8082 80.8218,41.5899 L81.5166,36.6861 C81.5468,36.5149 81.4561,36.4042 81.2749,36.4042 L80.8822,36.4042 C80.7211,36.4042 80.6204,36.4847 80.6003,36.6458 L80.56,36.9076 C80.2478,36.5351 79.8148,36.2833 79.3718,36.2833 Z M79.553,37.1493 C79.8451,37.1493 80.1773,37.3406 80.3989,37.6427 L80.2881,38.4482 C80.1169,39.3343 79.6537,40.5427 78.9187,40.5427 C78.5763,40.5427 78.4152,40.3111 78.5461,39.5559 L78.7777,38.116 C78.8885,37.4212 79.1603,37.1493 79.553,37.1493 Z" id="Shape" fill="#FFFFFF" fill-rule="nonzero"></path>
            <path d="M87.7151,34.7226 C87.5439,34.7226 87.4533,34.8032 87.4231,34.9643 L86.6881,41.0361 C86.6679,41.2173 86.7585,41.318 86.9599,41.318 L89.9908,41.318 C90.162,41.318 90.2526,41.2374 90.2727,41.0663 L90.313,40.6937 C90.3331,40.5124 90.2425,40.4118 90.0713,40.4118 L87.7655,40.4118 L88.4401,35.0045 C88.4603,34.8334 88.3596,34.7226 88.1783,34.7226 L87.7151,34.7226 Z M91.8728,41.318 C92.0339,41.318 92.1245,41.2374 92.1547,41.0763 L92.7589,36.6861 C92.7891,36.5149 92.6985,36.4042 92.5172,36.4042 L92.054,36.4042 C91.8929,36.4042 91.8023,36.4847 91.7721,36.6458 L91.1679,41.0361 C91.1377,41.2072 91.2284,41.318 91.4096,41.318 L91.8728,41.318 Z M93.1315,34.7931 C93.1717,34.4507 92.9502,34.2493 92.5474,34.2493 C92.1648,34.2493 91.9332,34.4004 91.8929,34.7427 L91.8527,35.0247 C91.8023,35.357 92.044,35.5684 92.4266,35.5684 C92.8294,35.5684 93.0408,35.4073 93.0912,35.075 L93.1315,34.7931 Z M96.1454,34.3198 C95.1888,34.3198 94.6149,34.8334 94.4638,35.9309 L94.3833,36.4646 L93.8395,36.5552 C93.6683,36.5854 93.618,36.6458 93.5979,36.7969 L93.5676,36.9882 C93.5475,37.1694 93.618,37.2399 93.8093,37.2399 L94.2725,37.2399 L93.6683,41.5999 C93.5878,42.2544 93.3965,42.4458 93.0239,42.4458 C92.893,42.4458 92.7319,42.4256 92.5607,42.3753 C92.3895,42.335 92.2788,42.4055 92.2486,42.5867 L92.2083,42.8989 C92.1781,43.06 92.2586,43.1607 92.4197,43.211 C92.6413,43.2614 92.9232,43.3016 93.1246,43.3016 C94.0107,43.3016 94.494,42.7982 94.6652,41.5697 L95.2694,37.2399 L95.9138,37.2399 C96.0749,37.2399 96.1655,37.1594 96.1857,36.9983 L96.236,36.6861 C96.2662,36.5149 96.1756,36.4042 95.9843,36.4042 L95.3902,36.4042 L95.4607,35.9209 C95.5412,35.3368 95.7527,35.1455 96.1353,35.1455 C96.2662,35.1455 96.4475,35.1757 96.6086,35.216 C96.7898,35.2462 96.9006,35.1858 96.9207,35.0045 L96.961,34.7025 C96.9811,34.5313 96.9106,34.4306 96.7495,34.3903 C96.5582,34.35 96.3166,34.3198 96.1454,34.3198 Z M98.7686,36.2833 C97.7113,36.2833 96.9058,37.0486 96.6742,38.5993 L96.5533,39.3746 C96.3519,40.7642 96.8453,41.4388 97.9932,41.4388 C98.3557,41.4388 98.8491,41.3281 99.262,41.1468 C99.4029,41.0864 99.4734,40.9958 99.4936,40.8649 L99.554,40.5326 C99.5943,40.3211 99.4835,40.2204 99.272,40.3111 C98.9096,40.4822 98.5168,40.5829 98.1745,40.5829 C97.6207,40.5829 97.3992,40.3111 97.4898,39.6767 L97.5099,39.5559 C99.4634,39.3746 100.219,38.5288 100.229,37.5521 C100.239,36.7969 99.695,36.2833 98.7686,36.2833 Z M98.7182,37.109 C99.0405,37.109 99.2519,37.3104 99.2519,37.6729 C99.2519,38.0455 99.0405,38.3778 98.5471,38.71 C98.3054,38.8107 97.9932,38.8913 97.6106,38.9517 L97.671,38.5389 C97.8221,37.5621 98.2752,37.109 98.7182,37.109 Z M102.146,34.3198 C101.753,34.3198 101.552,34.4507 101.501,34.783 L101.471,35.0348 C101.431,35.3066 101.542,35.508 101.763,35.5785 L101.491,36.3035 C101.421,36.4847 101.501,36.5854 101.683,36.5854 L101.874,36.5854 C102.005,36.5854 102.106,36.5351 102.156,36.4042 L102.538,35.649 C102.619,35.4778 102.649,35.357 102.679,35.1657 L102.72,34.8837 C102.76,34.5414 102.549,34.3198 102.146,34.3198 Z M104.84,36.2833 C103.802,36.2833 103.309,36.6962 103.178,37.391 L103.148,37.542 C103.047,38.1562 103.309,38.71 103.974,39.0121 L104.749,39.3646 C105.011,39.4955 105.132,39.7371 105.091,39.9788 L105.081,40.0291 C105.021,40.4017 104.789,40.5829 104.366,40.5829 C104.276,40.5829 104.155,40.5729 103.984,40.5527 C103.782,40.4923 103.49,40.3815 103.239,40.2607 C103.067,40.1802 102.937,40.2506 102.906,40.442 L102.856,40.8045 C102.836,40.9656 102.876,41.0663 103.027,41.1367 C103.45,41.3281 103.984,41.4388 104.407,41.4388 C105.404,41.4388 105.957,40.9052 106.048,40.1298 L106.068,39.9687 C106.139,39.3545 105.857,38.851 105.283,38.5892 L104.467,38.2066 C104.195,38.0857 104.074,37.8542 104.115,37.6024 L104.125,37.5521 C104.175,37.2701 104.366,37.109 104.809,37.109 C104.9,37.109 105.061,37.1191 105.172,37.1292 C105.343,37.1694 105.534,37.2399 105.726,37.3104 C105.897,37.3708 106.008,37.3003 106.038,37.109 L106.098,36.7566 C106.118,36.5955 106.058,36.4847 105.897,36.4445 C105.524,36.3438 105.122,36.2833 104.84,36.2833 Z" id="Shape" fill="#FFFFFF" fill-rule="nonzero"></path>
            <path d="M113.979,34.7226 C113.828,34.7226 113.727,34.783 113.677,34.924 L111.089,41.0058 C111.019,41.1871 111.099,41.318 111.301,41.318 L111.804,41.318 C111.965,41.318 112.056,41.2576 112.116,41.1166 C112.298,40.6937 112.459,40.2809 112.63,39.8479 L114.895,39.8479 C114.956,40.2607 115.016,40.6635 115.056,41.0663 C115.077,41.2274 115.177,41.318 115.349,41.318 L115.872,41.318 C116.063,41.318 116.144,41.2072 116.114,41.0361 L115.016,34.9643 C114.986,34.8032 114.895,34.7226 114.734,34.7226 L113.979,34.7226 Z M114.251,35.6188 C114.442,36.7264 114.613,37.8542 114.775,38.9718 L112.972,38.9718 C113.415,37.8642 113.838,36.7465 114.251,35.6188 Z M120.513,34.4407 C120.352,34.4407 120.261,34.5212 120.231,34.6823 L119.939,36.8472 C119.627,36.5049 119.214,36.2833 118.791,36.2833 C118.026,36.2833 117.421,36.8069 117.22,38.0253 L116.958,39.6465 C116.757,40.8347 117.25,41.4388 117.995,41.4388 C118.751,41.4388 119.375,40.7541 119.828,39.4048 L119.868,39.3948 L119.888,39.4149 L119.506,40.5427 C119.465,40.6534 119.445,40.734 119.405,41.0361 C119.385,41.2072 119.476,41.318 119.657,41.318 L120.06,41.318 C120.221,41.318 120.311,41.2374 120.342,41.0763 L121.218,34.7226 C121.238,34.5514 121.157,34.4407 120.976,34.4407 L120.513,34.4407 Z M118.992,37.1795 C119.284,37.1795 119.596,37.3406 119.828,37.6226 L119.697,38.5993 C119.506,39.4652 119.043,40.5427 118.348,40.5427 C118.016,40.5427 117.844,40.3111 117.975,39.5559 L118.207,38.116 C118.318,37.4212 118.589,37.1795 118.992,37.1795 Z M125.109,36.4042 C124.958,36.4042 124.867,36.4747 124.807,36.6156 C124.243,38.1965 123.931,38.992 123.236,40.5427 L123.206,40.5628 L123.176,40.5427 C123.085,39.2437 122.954,38.0153 122.753,36.6559 C122.723,36.4948 122.632,36.4042 122.461,36.4042 L122.008,36.4042 C121.826,36.4042 121.736,36.5149 121.766,36.6861 L122.491,41.0763 C122.521,41.2374 122.622,41.318 122.783,41.318 L123.538,41.318 C123.699,41.318 123.79,41.2576 123.86,41.0965 L125.824,36.7163 C125.904,36.5351 125.824,36.4042 125.622,36.4042 L125.109,36.4042 Z M128.283,36.2833 C127.226,36.2833 126.42,37.0486 126.189,38.5993 L126.068,39.3746 C125.866,40.7642 126.36,41.4388 127.508,41.4388 C127.87,41.4388 128.364,41.3281 128.777,41.1468 C128.917,41.0864 128.988,40.9958 129.008,40.8649 L129.069,40.5326 C129.109,40.3211 128.998,40.2204 128.787,40.3111 C128.424,40.4822 128.031,40.5829 127.689,40.5829 C127.135,40.5829 126.914,40.3111 127.004,39.6767 L127.024,39.5559 C128.978,39.3746 129.733,38.5288 129.743,37.5521 C129.753,36.7969 129.209,36.2833 128.283,36.2833 Z M128.233,37.109 C128.555,37.109 128.766,37.3104 128.766,37.6729 C128.766,38.0455 128.555,38.3778 128.062,38.71 C127.82,38.8107 127.508,38.8913 127.125,38.9517 L127.186,38.5389 C127.337,37.5621 127.79,37.109 128.233,37.109 Z M133.342,36.2833 C132.546,36.2833 131.832,37.1594 131.348,38.9014 L131.318,38.9215 L131.278,38.9014 L131.711,37.3507 C131.741,37.2299 131.771,37.099 131.781,36.9882 L131.821,36.6861 C131.842,36.5149 131.761,36.4042 131.58,36.4042 L131.187,36.4042 C131.026,36.4042 130.935,36.4847 130.905,36.6458 L130.301,41.0361 C130.271,41.2072 130.361,41.318 130.543,41.318 L131.006,41.318 C131.167,41.318 131.258,41.2374 131.288,41.0763 L131.298,41.0058 C131.62,38.5993 132.355,37.2097 132.989,37.2097 C133.271,37.2097 133.422,37.4111 133.312,38.1059 L132.848,41.0361 C132.828,41.2072 132.909,41.318 133.09,41.318 L133.553,41.318 C133.714,41.318 133.815,41.2374 133.835,41.0763 L134.278,38.126 C134.49,36.7767 134.107,36.2833 133.342,36.2833 Z M136.678,35.0952 C136.547,35.0952 136.476,35.1657 136.416,35.3066 L136.013,36.4545 L135.429,36.5552 C135.248,36.5854 135.207,36.6458 135.187,36.7969 L135.157,36.9882 C135.137,37.1694 135.207,37.2399 135.399,37.2399 L135.832,37.2399 L135.469,39.8277 C135.308,40.9857 135.731,41.4388 136.718,41.4388 C136.949,41.4388 137.302,41.3784 137.544,41.2777 C137.685,41.2274 137.745,41.1367 137.765,40.9857 L137.805,40.6836 C137.836,40.4822 137.725,40.3715 137.533,40.452 C137.342,40.5326 137.09,40.5729 136.929,40.5729 C136.557,40.5729 136.386,40.3815 136.456,39.8882 L136.819,37.2399 L137.846,37.2399 C138.007,37.2399 138.097,37.1594 138.117,36.9983 L138.168,36.6861 C138.198,36.5149 138.107,36.4042 137.926,36.4042 L136.939,36.4042 L137.08,35.3771 C137.111,35.2059 137.05,35.0952 136.879,35.0952 L136.678,35.0952 Z M142.039,36.4042 C141.878,36.4042 141.787,36.4847 141.757,36.6458 L141.545,38.1361 C141.415,39.0625 140.982,40.5427 140.156,40.5427 C139.824,40.5427 139.662,40.3111 139.783,39.5559 L140.196,36.6861 C140.226,36.5149 140.136,36.4042 139.954,36.4042 L139.491,36.4042 C139.33,36.4042 139.24,36.4847 139.209,36.6458 L138.776,39.6465 C138.595,40.8548 139.038,41.4388 139.803,41.4388 C140.549,41.4388 141.183,40.7541 141.636,39.4048 L141.666,39.3948 L141.696,39.4149 L141.243,40.8145 C141.213,40.8951 141.203,40.9454 141.193,41.0361 C141.173,41.2173 141.243,41.318 141.425,41.318 L141.858,41.318 C142.019,41.318 142.109,41.2374 142.14,41.0763 L142.754,36.6861 C142.784,36.5149 142.693,36.4042 142.502,36.4042 L142.039,36.4042 Z M146.361,36.2833 C145.646,36.2833 144.961,37.1594 144.478,38.9014 L144.448,38.9215 L144.408,38.9014 L144.841,37.3507 C144.871,37.2299 144.901,37.099 144.911,36.9882 L144.951,36.6861 C144.972,36.5149 144.891,36.4042 144.71,36.4042 L144.317,36.4042 C144.156,36.4042 144.065,36.4847 144.035,36.6458 L143.431,41.0361 C143.411,41.2072 143.491,41.318 143.673,41.318 L144.136,41.318 C144.297,41.318 144.387,41.2374 144.418,41.0763 L144.438,40.885 C144.7,38.8712 145.314,37.4514 146.109,37.4514 C146.16,37.4514 146.18,37.4514 146.26,37.4615 C146.351,37.4715 146.401,37.4514 146.432,37.2903 L146.532,36.5754 C146.562,36.3438 146.522,36.2833 146.361,36.2833 Z M149.098,36.2833 C148.041,36.2833 147.235,37.0486 147.004,38.5993 L146.883,39.3746 C146.681,40.7642 147.175,41.4388 148.323,41.4388 C148.685,41.4388 149.179,41.3281 149.591,41.1468 C149.732,41.0864 149.803,40.9958 149.823,40.8649 L149.883,40.5326 C149.924,40.3211 149.813,40.2204 149.601,40.3111 C149.239,40.4822 148.846,40.5829 148.504,40.5829 C147.95,40.5829 147.729,40.3111 147.819,39.6767 L147.839,39.5559 C149.793,39.3746 150.548,38.5288 150.558,37.5521 C150.568,36.7969 150.024,36.2833 149.098,36.2833 Z M149.048,37.109 C149.37,37.109 149.581,37.3104 149.581,37.6729 C149.581,38.0455 149.37,38.3778 148.876,38.71 C148.635,38.8107 148.323,38.8913 147.94,38.9517 L148,38.5389 C148.151,37.5621 148.605,37.109 149.048,37.109 Z M153.029,36.2833 C151.992,36.2833 151.499,36.6962 151.368,37.391 L151.337,37.542 C151.237,38.1562 151.499,38.71 152.163,39.0121 L152.938,39.3646 C153.2,39.4955 153.321,39.7371 153.281,39.9788 L153.271,40.0291 C153.21,40.4017 152.979,40.5829 152.556,40.5829 C152.465,40.5829 152.344,40.5729 152.173,40.5527 C151.972,40.4923 151.68,40.3815 151.428,40.2607 C151.257,40.1802 151.126,40.2506 151.096,40.442 L151.045,40.8045 C151.025,40.9656 151.066,41.0663 151.217,41.1367 C151.639,41.3281 152.173,41.4388 152.596,41.4388 C153.593,41.4388 154.147,40.9052 154.237,40.1298 L154.257,39.9687 C154.328,39.3545 154.046,38.851 153.472,38.5892 L152.656,38.2066 C152.385,38.0857 152.264,37.8542 152.304,37.6024 L152.314,37.5521 C152.364,37.2701 152.556,37.109 152.999,37.109 C153.089,37.109 153.251,37.1191 153.361,37.1292 C153.532,37.1694 153.724,37.2399 153.915,37.3104 C154.086,37.3708 154.197,37.3003 154.227,37.109 L154.288,36.7566 C154.308,36.5955 154.247,36.4847 154.086,36.4445 C153.714,36.3438 153.311,36.2833 153.029,36.2833 Z" id="Shape" fill="#FFFFFF" fill-rule="nonzero"></path>
            <polygon id="Path" fill="#FFFFFF" points="65.443 23.164 65.443 25.4175 54.6885 25.4175 54.6885 3.79333 57.4091 3.79333 57.4091 23.164"></polygon>
            <g id="Clipped">
                <mask id="mask-2" fill="white">
                    <use xlink:href="#path-1"></use>
                </mask>
                <g id="Path"></g>
                <g id="Group" mask="url(#mask-2)" fill="#FFFFFF">
                    <g transform="translate(68.000000, 3.000000)">
                        <polygon id="Path" points="0.1953 22.4175 2.9166 22.4175 2.9166 0.79358 0.1953 0.79358"></polygon>
                        <path d="M13.8847,20.3161 C18.0275,20.3161 18.3088,19.9163 18.3088,11.6038 C18.3088,3.29198 18.0275,2.89008 13.8847,2.89008 C9.7129,2.89008 9.4375,3.29198 9.4375,11.6038 C9.4375,19.9163 9.7129,20.3161 13.8847,20.3161 Z M19.3254,25.5102 L19.5137,25.7238 L19.5137,26.3429 C19.5137,27.3913 18.9874,27.7634 16.7305,27.7634 C13.8253,27.7634 13.5133,27.3606 12.9271,23.9636 L12.7125,22.572 C7.4583,22.4174 6.6533,20.9051 6.6533,11.6038 C6.6533,1.65693 7.5814,0.60437 13.8551,0.60437 C20.1905,0.60437 21.1171,1.65693 21.1171,11.6038 C21.1171,20.8435 20.3145,22.4174 15.1241,22.572 L15.3086,23.7798 C15.5866,25.5695 15.7416,25.694 17.564,25.694 C18.2137,25.694 18.9546,25.6323 19.3254,25.5102 Z" id="Shape"></path>
                        <path d="M38.458,13.5823 C38.458,21.2739 37.223,22.6047 31.5331,22.6047 C25.9409,22.6047 24.7041,21.2739 24.7041,13.5823 L24.7041,0.79346 L27.423,0.79346 L27.423,13.6779 C27.423,20.1317 28.011,20.2845 31.5647,20.2845 C35.12,20.2845 35.739,20.1317 35.739,13.6779 L35.739,0.79346 L38.458,0.79346 L38.458,13.5823 Z" id="Path"></path>
                        <polygon id="Path" points="42.604 22.4175 45.32 22.4175 45.32 0.79358 42.604 0.79358"></polygon>
                        <path d="M52.707,20.1318 L56.479,20.1318 C60.341,20.1318 60.866,19.5761 60.866,11.5416 C60.866,3.63138 60.341,3.07751 56.479,3.07751 L52.707,3.07751 L52.707,20.1318 Z M56.448,0.79358 C62.443,0.79358 63.617,1.34745 63.617,11.5416 C63.617,21.7391 62.443,22.4175 56.448,22.4175 L49.988,22.4175 L49.988,0.79358 L56.448,0.79358 Z" id="Shape"></path>
                        <polygon id="Path" points="68.232 22.4175 70.952 22.4175 70.952 0.79358 68.232 0.79358"></polygon>
                        <path d="M85.662,19.7312 C85.042,22.4486 84.671,22.6047 82.108,22.6047 C79.539,22.6047 79.078,22.4808 78.429,19.7312 L74.381,0.79346 L77.224,0.79346 L80.995,19.1417 C81.212,20.3161 81.337,20.3462 82.108,20.3462 C82.911,20.3462 82.974,20.3161 83.22,19.1417 L86.93,0.79346 L89.834,0.79346 L85.662,19.7312 Z" id="Path"></path>
                        <path d="M76.232,21.308 C76.232,21.9707 75.693,22.509 75.032,22.509 C74.368,22.509 73.831,21.9707 73.831,21.308 C73.831,20.6476 74.368,20.1108 75.032,20.1108 C75.693,20.1108 76.232,20.6476 76.232,21.308 Z" id="Path"></path>
                        <path d="M90.134,21.308 C90.134,21.9707 89.595,22.509 88.934,22.509 C88.27,22.509 87.732,21.9707 87.732,21.308 C87.732,20.6476 88.27,20.1108 88.934,20.1108 C89.595,20.1108 90.134,20.6476 90.134,21.308 Z" id="Path"></path>
                        <path d="M94.117,1.84622 L94.117,2.6512 C94.267,2.66182 94.428,2.66182 94.514,2.66182 C94.868,2.66182 94.997,2.51163 94.997,2.2971 L94.997,2.20002 C94.997,1.96425 94.868,1.82497 94.503,1.82497 C94.428,1.82497 94.203,1.83559 94.117,1.84622 Z M95.383,2.1894 L95.383,2.30773 C95.383,2.55442 95.212,2.81173 94.922,2.93035 L95.373,3.72412 C95.426,3.80999 95.373,3.88494 95.287,3.88494 L95.093,3.88494 C95.061,3.88494 95.029,3.8637 95.008,3.83183 L94.557,2.99497 L94.117,2.99497 L94.117,3.78874 C94.117,3.85307 94.085,3.88494 94.02,3.88494 L93.837,3.88494 C93.773,3.88494 93.741,3.85307 93.741,3.78874 L93.741,1.64291 C93.741,1.55704 93.794,1.51337 93.881,1.51337 C94.117,1.49183 94.321,1.4812 94.471,1.4812 C95.136,1.4812 95.383,1.77127 95.383,2.1894 Z M92.925,2.43667 L92.925,2.97313 C92.925,3.92801 93.408,4.40014 94.482,4.40014 C95.555,4.40014 96.038,3.92801 96.038,2.97313 L96.038,2.42604 C96.038,1.44903 95.555,0.99873 94.482,0.99873 C93.408,0.99873 92.925,1.47057 92.925,2.43667 Z M96.446,2.52225 L96.446,2.88667 C96.446,4.06729 95.888,4.78641 94.482,4.78641 C93.065,4.78641 92.507,4.07792 92.507,2.88667 L92.507,2.52225 C92.507,1.32038 93.065,0.6228 94.482,0.6228 C95.888,0.6228 96.446,1.32038 96.446,2.52225 Z" id="Shape"></path>
                    </g>
                </g>
            </g>
        </g>
    </g>
</svg>