<svg width="123" height="55" viewBox="0 0 123 55" fill="none" xmlns="http://www.w3.org/2000/svg">
<path d="M29.0995 0.979976L23.1873 25.7682H28.0706L29.2736 20.4575H37.7025L38.9055 25.7682H43.7888L37.8767 0.979976H29.0995ZM30.2629 16.0175L33.1675 3.35432H33.8086L36.6736 16.0175H30.2629ZM11.6401 0.979976H20.4331V25.8157H16.1039V3.31475H15.3124L14.4339 22.2146C14.3831 23.268 13.9291 24.2614 13.1659 24.9893C12.4027 25.7171 11.3888 26.1235 10.3342 26.1243C9.27902 26.1255 8.26403 25.7197 7.50042 24.9915C6.73681 24.2632 6.28339 23.2686 6.2345 22.2146L5.31642 3.32267H4.52497V25.8157H0.187824V0.979976H9.04415L10.0176 22.4837H10.6587L11.6401 0.979976ZM104.319 26.3064C101.572 26.3213 98.8926 25.4581 96.6711 23.8427C94.4496 22.2273 92.8024 19.9443 91.97 17.3268C91.1375 14.7092 91.1633 11.8941 92.0436 9.2923C92.9239 6.69046 94.6127 4.43801 96.8634 2.86363C98.4397 1.74724 100.247 0.999322 102.151 0.675124C104.055 0.350925 106.008 0.458737 107.865 0.990592C109.722 1.52245 111.435 2.46475 112.879 3.74788C114.323 5.03101 115.46 6.62216 116.206 8.40377L111.988 10.1924C111.414 8.83085 110.496 7.64204 109.323 6.74285C108.15 5.84366 106.764 5.26504 105.3 5.06386C103.811 4.89584 102.304 5.13203 100.938 5.74759C99.572 6.36316 98.3968 7.33537 97.5361 8.56206C96.6728 9.83028 96.1647 11.3065 96.0645 12.8374C95.9643 14.3683 96.2756 15.8981 96.9663 17.268C97.6453 18.5872 98.6627 19.7023 99.9143 20.4991C101.166 21.296 102.607 21.7459 104.089 21.803C105.774 21.8214 107.426 21.3384 108.835 20.4153C110.245 19.4922 111.348 18.1707 112.004 16.619L116.222 18.4077C115.215 20.7314 113.553 22.7118 111.439 24.1073C109.326 25.5028 106.852 26.2531 104.319 26.2668V26.3064ZM19.1035 46.9394V47.3668C19.1237 48.4539 18.9133 49.5328 18.4861 50.5326C18.0789 51.4502 17.4671 52.2624 16.6975 52.907C15.8659 53.6005 14.9019 54.1176 13.8641 54.4266C12.6487 54.797 11.383 54.9759 10.1126 54.9568C8.648 54.9839 7.19023 54.7507 5.80712 54.2683C4.64974 53.8601 3.59416 53.2067 2.71255 52.353C1.89038 51.5363 1.25103 50.5544 0.836813 49.4721C0.397979 48.3254 0.177853 47.1067 0.187824 45.8789V44.8104H4.85738V45.6573C4.82436 46.3069 4.92147 46.9566 5.143 47.5682C5.36454 48.1798 5.70603 48.741 6.14744 49.2188C7.01276 50.1052 8.35295 50.5485 10.168 50.5485C11.3002 50.6419 12.4272 50.3151 13.3338 49.6304C13.6546 49.3619 13.9128 49.0266 14.0905 48.6479C14.2682 48.2693 14.3611 47.8564 14.3627 47.4381C14.3645 47.0455 14.292 46.6561 14.149 46.2905C13.9906 45.902 13.7343 45.5612 13.405 45.3011C12.9663 44.9637 12.4777 44.6967 11.9567 44.5097C11.199 44.2364 10.4173 44.0351 9.6219 43.9082C8.4591 43.7289 7.31104 43.4644 6.18701 43.1167C5.2187 42.8084 4.30518 42.3489 3.48025 41.7555C2.72463 41.1999 2.11162 40.4729 1.69158 39.6344C1.24101 38.6415 1.02439 37.5584 1.05842 36.4686V36.2549C1.04942 35.2812 1.26045 34.318 1.67575 33.4373C2.08728 32.5735 2.67816 31.8072 3.40902 31.1896C4.20091 30.5237 5.1149 30.0183 6.09995 29.7017C7.23705 29.3335 8.42682 29.1544 9.6219 29.1714C10.9459 29.1486 12.2638 29.3575 13.5158 29.7887C14.5692 30.1535 15.5382 30.7268 16.3651 31.4745C17.1146 32.1532 17.7063 32.988 18.0983 33.9201C18.4863 34.8392 18.6855 35.827 18.684 36.8247V38.099H13.9986V37.2442C13.9982 36.7567 13.896 36.2746 13.6983 35.8289C13.5007 35.3832 13.2121 34.9837 12.851 34.6562C11.9577 33.8797 10.7954 33.4847 9.61399 33.556C8.62972 33.5029 7.6533 33.7574 6.82017 34.2842C6.49587 34.4968 6.23118 34.7887 6.05114 35.1321C5.87109 35.4756 5.78166 35.8593 5.79129 36.247C5.78355 36.6433 5.86752 37.036 6.03664 37.3946C6.23647 37.7751 6.53781 38.0929 6.90723 38.3126C7.41601 38.6266 7.96428 38.8714 8.53762 39.0408C9.37933 39.2933 10.2357 39.4942 11.1019 39.6423C13.251 39.932 15.2953 40.7475 17.0536 42.0166C17.7531 42.6224 18.3024 43.3824 18.6581 44.2367C19.0139 45.091 19.1663 46.0162 19.1035 46.9394ZM37.9321 31.9019C37.2635 31.1982 36.4546 30.6428 35.5577 30.2715C34.5016 29.8378 33.3671 29.6276 32.2257 29.6542H22.2376V54.4503H26.9151V45.1033H32.2494C33.393 45.1288 34.529 44.9102 35.5815 44.4622C36.4572 44.0853 37.2451 43.5305 37.895 42.8329C38.5449 42.1353 39.0426 41.3102 39.3567 40.41C39.67 39.5419 39.8307 38.6261 39.8315 37.7032V36.896C39.8305 35.9963 39.6697 35.1039 39.3567 34.2604C39.0413 33.3907 38.5572 32.5918 37.9321 31.9098V31.9019ZM35.1462 37.5845C35.1585 37.9962 35.0823 38.4057 34.9225 38.7854C34.7627 39.165 34.5232 39.5058 34.2202 39.7847C33.5426 40.379 32.6585 40.6832 31.7587 40.6316H26.9072V34.1259H31.7825C32.6737 34.0839 33.5469 34.3873 34.2202 34.9727C34.5175 35.2532 34.7517 35.5938 34.9072 35.9718C35.0628 36.3498 35.1362 36.7565 35.1224 37.165L35.1462 37.5845ZM110.951 29.67H115.28V50.1765C115.28 51.4128 114.789 52.5985 113.915 53.4728C113.041 54.347 111.855 54.8381 110.619 54.8381C109.526 54.8374 108.469 54.4537 107.63 53.7538C106.791 53.0539 106.225 52.0821 106.028 51.0075L102.586 32.0127H101.937V54.4424H97.6074V29.67H106.519L110.413 51.142H110.943V29.6621L110.951 29.67ZM89.5346 25.7761H72.5501V21.3044H78.7075V5.47541H72.5501V0.979976H89.5346V5.44375H83.3771V21.2727H89.5346V25.7761ZM69.1627 25.5387H65.2054V17.822H56.2541V13.4136H69.1706V25.5307L69.1627 25.5387ZM56.0642 26.243C52.8984 26.1243 49.3527 24.114 47.2316 21.4943C46.1064 20.1044 45.2827 18.4956 44.8128 16.7702C44.3428 15.0447 44.237 13.2404 44.502 11.4719C44.767 9.70333 45.397 8.00925 46.352 6.49731C47.3069 4.98537 48.566 3.68863 50.0491 2.68951C51.6312 1.62256 53.4301 0.91984 55.3165 0.631997C57.2028 0.344154 59.1295 0.478355 60.9577 1.02493C62.786 1.5715 64.4702 2.51683 65.889 3.7928C67.3078 5.06876 68.4259 6.64358 69.1627 8.40377L64.9363 10.1924C64.358 8.81428 63.4278 7.61221 62.2388 6.70658C61.0498 5.80096 59.6438 5.22356 58.1615 5.0322C56.6534 4.87973 55.1323 5.14104 53.7616 5.78806C52.3909 6.43507 51.2223 7.44334 50.3816 8.70452C49.5466 9.98836 49.0677 11.471 48.994 13.0007C48.9203 14.5305 49.2544 16.0523 49.9621 17.4105C50.6611 18.7334 51.7028 19.8442 52.9781 20.6267C54.2535 21.4092 55.7157 21.8346 57.2118 21.8584C58.8316 21.8352 60.4074 21.3275 61.7362 20.4007C63.0649 19.474 64.0858 18.1707 64.6672 16.6586L65.2133 16.714C65.8307 20.1647 63.8758 26.5359 56.0642 26.2351V26.243ZM54.8612 54.941C52.3128 54.941 49.8216 54.1853 47.7028 52.7695C45.5839 51.3537 43.9324 49.3414 42.9572 46.987C41.9819 44.6326 41.7268 42.0419 42.2239 39.5425C42.7211 37.0431 43.9483 34.7472 45.7502 32.9453C47.5522 31.1433 49.8481 29.9161 52.3475 29.419C54.8469 28.9218 57.4376 29.177 59.792 30.1522C62.1464 31.1274 64.1587 32.7789 65.5745 34.8978C66.9903 37.0167 67.746 39.5078 67.746 42.0562C67.7418 45.4722 66.3829 48.747 63.9675 51.1625C61.552 53.578 58.2771 54.9368 54.8612 54.941ZM54.8612 33.6589C53.1964 33.6401 51.5637 34.1165 50.1703 35.0277C48.7769 35.9389 47.6859 37.2437 47.0357 38.7764C46.3855 40.309 46.2056 42.0003 46.5188 43.6354C46.8321 45.2706 47.6242 46.7757 48.7947 47.9596C49.9653 49.1435 51.4613 49.9527 53.0927 50.2845C54.7242 50.6163 56.4174 50.4556 57.9574 49.8229C59.4973 49.1903 60.8144 48.1141 61.7414 46.7312C62.6684 45.3483 63.1634 43.7211 63.1635 42.0562C63.174 39.8423 62.3057 37.7147 60.7492 36.1404C59.1926 34.566 57.075 33.6736 54.8612 33.6589ZM82.364 54.941C79.8157 54.941 77.3245 54.1853 75.2056 52.7695C73.0867 51.3537 71.4353 49.3414 70.46 46.987C69.4848 44.6326 69.2297 42.0419 69.7268 39.5425C70.224 37.0431 71.4511 34.7472 73.2531 32.9453C75.0551 31.1433 77.3509 29.9161 79.8503 29.419C82.3497 28.9218 84.9405 29.177 87.2948 30.1522C89.6492 31.1274 91.6616 32.7789 93.0774 34.8978C94.4932 37.0167 95.2488 39.5078 95.2488 42.0562C95.2447 45.4722 93.8858 48.747 91.4703 51.1625C89.0549 53.578 85.78 54.9368 82.364 54.941ZM82.364 33.7539C80.722 33.7539 79.1168 34.2408 77.7515 35.1531C76.3862 36.0654 75.3221 37.362 74.6937 38.8791C74.0653 40.3961 73.9009 42.0654 74.2213 43.6759C74.5416 45.2864 75.3323 46.7657 76.4934 47.9268C77.6545 49.0879 79.1339 49.8786 80.7443 50.199C82.3548 50.5193 84.0241 50.3549 85.5412 49.7265C87.0582 49.0982 88.3549 48.034 89.2672 46.6687C90.1794 45.3034 90.6663 43.6982 90.6663 42.0562C90.6684 40.9642 90.4553 39.8825 90.0391 38.873C89.6229 37.8634 89.0118 36.9458 88.2407 36.1726C87.4697 35.3993 86.5538 34.7856 85.5455 34.3665C84.5371 33.9474 83.456 33.7312 82.364 33.7302V33.7539ZM119.119 0.742541C119.52 0.738305 119.918 0.814227 120.29 0.965857C120.662 1.11749 120.999 1.34177 121.283 1.62557C121.567 1.90937 121.791 2.24696 121.943 2.61856C122.094 2.99016 122.17 3.3883 122.166 3.78962C122.166 4.18977 122.087 4.586 121.934 4.95569C121.781 5.32538 121.557 5.66128 121.274 5.94423C120.991 6.22718 120.655 6.45163 120.285 6.60476C119.915 6.75789 119.519 6.8367 119.119 6.8367C118.719 6.8367 118.323 6.75789 117.953 6.60476C117.583 6.45163 117.247 6.22718 116.964 5.94423C116.681 5.66128 116.457 5.32538 116.304 4.95569C116.151 4.586 116.072 4.18977 116.072 3.78962C116.068 3.3883 116.144 2.99016 116.295 2.61856C116.447 2.24696 116.671 1.90937 116.955 1.62557C117.239 1.34177 117.576 1.11749 117.948 0.965857C118.319 0.814227 118.718 0.738305 119.119 0.742541ZM119.119 1.45485C118.813 1.45273 118.51 1.51153 118.227 1.62781C117.944 1.74409 117.688 1.91554 117.472 2.13213C117.256 2.34873 117.085 2.60615 116.97 2.88937C116.855 3.17258 116.797 3.47593 116.8 3.78171C116.8 4.39673 117.044 4.98656 117.479 5.42145C117.914 5.85634 118.504 6.10065 119.119 6.10065C119.734 6.10065 120.324 5.85634 120.759 5.42145C121.194 4.98656 121.438 4.39673 121.438 3.78171C121.441 3.47593 121.383 3.17258 121.268 2.88937C121.153 2.60615 120.982 2.34873 120.766 2.13213C120.55 1.91554 120.294 1.74409 120.011 1.62781C119.728 1.51153 119.425 1.45273 119.119 1.45485ZM117.884 2.11175H119.412C120.092 2.11175 120.488 2.48373 120.488 3.014C120.495 3.20912 120.435 3.40068 120.318 3.55738C120.202 3.71407 120.036 3.82664 119.847 3.87668C120.009 3.93313 120.149 4.0409 120.245 4.18369C120.34 4.32647 120.387 4.49652 120.377 4.66813C120.377 5.04011 120.377 5.1984 120.551 5.34878V5.42792H119.76C119.638 5.18303 119.592 4.90778 119.625 4.63647C119.625 4.20909 119.436 4.0508 119.064 4.0508H118.581V5.39626H117.861V2.11175H117.884ZM119.325 3.46513C119.602 3.46513 119.776 3.33058 119.776 3.07732C119.776 2.82405 119.602 2.72908 119.325 2.72908H118.605V3.45721L119.325 3.46513Z" fill="#2A2A2C"/>
</svg>
