<svg width="69" height="75" viewBox="0 0 69 75" fill="none" xmlns="http://www.w3.org/2000/svg">
<path d="M7.68017 5.39784C4.83892 5.39784 2.06043 7.51901 2.06043 12.2024C2.06043 16.914 4.83892 19.0394 7.68017 19.0394C10.5202 19.0394 13.2989 16.914 13.2989 12.2024C13.2989 7.51901 10.5202 5.39784 7.68017 5.39784ZM15.0464 12.2024C15.0464 17.9144 11.2701 20.5678 7.68017 20.5678C4.05771 20.5678 0.28125 17.9144 0.28125 12.2024C0.28125 6.52074 4.05771 3.86719 7.68017 3.86719C11.2701 3.86719 15.0464 6.52074 15.0464 12.2024Z" fill="#2A2A2C"/>
<path d="M28.1288 11.1726C27.2863 11.6727 24.632 12.0157 21.9797 12.4206C19.3878 12.8251 18.3894 13.8882 18.3894 15.8224C18.3894 17.8838 19.7939 19.0999 22.1024 19.0999C25.9444 19.0999 27.6912 16.1055 28.1288 15.1055V11.1726ZM31.2186 19.0707V20.3184C30.9076 20.4136 30.6582 20.4439 30.3154 20.4439C28.9714 20.4439 28.254 19.8813 28.254 18.1962V16.7913C27.754 17.8209 25.8802 20.5678 21.8233 20.5678C18.7635 20.5678 16.5469 18.9143 16.5469 15.8551C16.5469 13.1701 18.2323 11.5459 22.1976 11.0468C23.9768 10.7983 26.9428 10.4858 28.1288 9.86203V9.42491C28.1288 6.36435 26.7869 5.33597 23.6949 5.33597C20.886 5.33597 19.6061 6.30248 19.3553 7.83239H17.6094C17.9516 5.17764 20.2616 3.86719 23.7262 3.86719C27.8157 3.86719 29.9393 5.39784 29.9393 9.86203V17.9144C29.9393 18.7888 30.2512 19.0999 31.2186 19.0707Z" fill="#2A2A2C"/>
<path d="M39.1483 18.6697V20.168C38.4621 20.3861 37.5868 20.4803 36.6825 20.4803C35.1833 20.4803 33.935 19.949 33.935 17.8268V5.59037H31.5938V4.05972H33.935V0H35.7455V4.05972H38.8679V5.59037H35.7455V17.7347C35.7455 18.6099 36.1204 18.9202 37.0567 18.9202C37.9002 18.9202 38.4621 18.826 39.1483 18.6697Z" fill="#2A2A2C"/>
<path d="M46.8942 5.27201C44.1136 5.27201 42.8348 6.397 42.8348 8.11133C42.8348 9.70489 43.7085 10.5174 46.0183 11.0795L48.4837 11.6727C51.575 12.4206 53.3876 13.1082 53.3876 16.0101C53.3876 19.4125 50.2948 20.5071 47.0175 20.5071C43.6467 20.5071 40.9298 19.1639 40.4922 15.8551H42.1479C42.6788 18.322 44.6758 19.0999 47.0175 19.0999C49.3894 19.0999 51.575 18.2907 51.575 16.0101C51.575 14.0747 50.3594 13.5453 48.2983 13.0453L45.3641 12.3574C42.5217 11.6727 41.0244 10.4253 41.0244 8.11133C41.0244 5.30332 43.3343 3.86719 46.8942 3.86719C49.921 3.86719 52.0449 5.02244 52.8243 7.86474H51.1699C50.4819 5.92724 49.0781 5.27201 46.8942 5.27201Z" fill="#2A2A2C"/>
<path d="M8.21091 29.965C6.27535 29.965 4.71443 31.3093 4.71443 34.7429C4.71443 38.0529 6.27535 39.4273 8.21091 39.4273C10.1158 39.4273 11.6768 38.0529 11.6768 34.7429C11.6768 31.3093 10.1158 29.965 8.21091 29.965ZM16.1093 34.7429C16.1093 40.7997 11.6455 43.0457 8.21091 43.0457C4.77749 43.0457 0.28125 40.7997 0.28125 34.7429C0.28125 28.6535 4.77749 26.3438 8.21091 26.3438C11.6455 26.3438 16.1093 28.6535 16.1093 34.7429Z" fill="#2A2A2C"/>
<path d="M21.5721 42.7643L15.2969 26.5312H19.7931L24.0377 38.2402L28.2526 26.5312H32.7472L26.4733 42.7643H21.5721Z" fill="#2A2A2C"/>
<path d="M36.4326 33.0885H43.0195C42.7107 30.9642 41.6776 29.965 39.8361 29.965C38.0873 29.965 36.8392 30.9965 36.4326 33.0885ZM47.4535 36.0837H36.4013C36.7776 38.4272 38.2125 39.4273 40.2109 39.4273C41.3348 39.4273 42.4583 39.0197 42.9892 38.0822H47.2025C46.0177 41.5464 43.6133 43.0457 39.7723 43.0457C36.3394 43.0457 31.9062 40.7663 31.9062 34.7429C31.9062 28.686 36.1526 26.3438 39.8361 26.3438C43.9866 26.3438 47.4535 28.9365 47.4535 35.2723V36.0837Z" fill="#2A2A2C"/>
<path d="M59.3478 26.4999V30.4326C58.816 30.4022 58.442 30.4022 58.255 30.4022C54.8204 30.3708 53.4467 31.8689 52.9803 34.211V42.7634H48.5156V26.5303H52.9803V30.2154C53.4792 27.997 55.0712 26.375 57.7548 26.375C58.3163 26.375 58.7228 26.4045 59.3478 26.4999Z" fill="#2A2A2C"/>
<path d="M16.6713 58.1723V67.9735H12.2066V58.3916C12.2066 56.1446 11.1453 55.3919 9.58529 55.3919C7.39926 55.3919 5.90111 57.3923 5.65214 58.4219V67.9735H1.1875V51.7401H5.65214V54.9242C6.15097 53.8001 7.8978 51.5859 10.9278 51.5859C14.2351 51.5859 16.6713 53.2393 16.6713 58.1723Z" fill="#2A2A2C"/>
<path d="M23.1614 51.7359V67.9693H18.6953V51.7359H23.1614ZM23.1614 46.1172V49.769H18.6953V46.1172H23.1614Z" fill="#2A2A2C"/>
<path d="M35.684 59.8617C35.684 56.6134 34.2156 55.3007 32.1869 55.3007C30.2823 55.3007 28.848 56.4898 28.848 59.8617C28.848 63.1058 30.2823 64.2932 32.1869 64.2932C34.2156 64.2932 35.684 63.1696 35.684 59.8617ZM39.9614 51.7424V67.5385C39.8348 73.721 34.9979 74.8441 31.6567 74.8441C28.3167 74.8441 25.9121 73.3774 24.7881 71.2237L27.5665 69.5063C28.1598 70.2559 29.2213 71.1914 31.6567 71.1914C34.341 71.1914 35.4963 70.1616 35.4963 67.2889V65.9175C35.465 66.1346 34.3723 68.0396 31.2497 68.0396C28.5032 68.0396 24.4141 65.8231 24.4141 59.8617C24.4141 53.8656 28.5032 51.5547 31.2497 51.5547C33.9027 51.5547 34.9658 52.8045 35.4963 53.7711V51.7424H39.9614Z" fill="#2A2A2C"/>
<path d="M57.1901 58.1681V67.9693H52.7257V58.3874C52.7257 56.1404 51.6645 55.3877 50.1033 55.3877C47.9186 55.3877 46.4197 57.3881 46.169 58.4177V67.9693H41.707V46.1172H46.169V54.92C46.6701 53.7959 48.417 51.5817 51.4466 51.5817C54.7542 51.5817 57.1901 53.2351 57.1901 58.1681Z" fill="#2A2A2C"/>
<path d="M68.0882 64.2588V67.6916C67.402 68.0038 66.3706 68.159 64.8416 68.159C62.4069 68.159 60.2215 67.2848 60.2215 62.7902V55.2966H57.8789V51.7382H60.2215V47.6797H64.6857V51.7382H67.8066V55.2966H64.6857V62.8833C64.6857 63.8519 65.1226 64.476 66.1831 64.476C66.8384 64.476 67.402 64.3825 68.0882 64.2588Z" fill="#2A2A2C"/>
</svg>
