<svg width="112" height="32" viewBox="0 0 112 32" fill="none" xmlns="http://www.w3.org/2000/svg">
<g clip-path="url(#clip0_1899_2)">
<path d="M7.96297 0C12.873 0 15.307 2.39 15.307 7.707V24.405C15.307 29.611 12.916 32 7.96297 32C3.01097 32 0.667969 29.61 0.667969 24.405V7.707C0.667969 2.389 3.05297 0 7.96297 0ZM104.791 0C109.365 0 111.511 2.235 111.511 6.976V8.992L106.271 9.653V6.933C106.271 4.939 105.739 4.187 104.674 4.187C103.874 4.187 103.459 4.763 103.459 5.787C103.459 7.269 103.992 9.307 106.122 12.251L108.199 15.2C110.276 18.144 112.001 20.89 112.001 25.03C112.001 29.573 109.615 31.963 105.014 31.963C100.414 31.963 97.98 29.632 97.98 24.624V22.032L103.443 21.333V24.656C103.443 26.869 103.933 27.712 105.148 27.712C105.968 27.712 106.431 27.045 106.431 25.872C106.431 23.611 105.659 21.397 103.646 18.453L101.633 15.488C99.641 12.538 98.028 10.038 98.028 6.848C98.044 2.133 100.366 0 104.791 0ZM21.399 0.485L22.416 14.197C22.661 17.397 22.751 19.579 22.794 23.365H23.278C23.348 19.6 23.459 17.339 23.699 14.197L24.764 0.485H30.313L31.33 14.197C31.57 17.339 31.66 19.6 31.73 23.365H32.214C32.304 19.6 32.39 17.408 32.634 14.197L33.653 0.485H39.138L35.441 31.493H29.051L28.321 21.867C28.012 17.973 27.837 14.933 27.704 10.885H27.24C27.086 14.96 26.926 17.947 26.617 21.867L25.887 31.467H19.545L15.674 0.485H21.399ZM45.649 0.485V26.816H50.442V31.493H39.898V0.485H45.649ZM61.023 0.485V26.816H65.816V31.493H55.277V0.485H61.023ZM78.063 0.485L82.143 31.493H76.183L75.875 27.525H72.425L72.115 31.493H66.588L70.501 0.485H78.063ZM91.1 0.485C95.126 0.485 96.83 2.347 96.83 6.533V10.187C96.83 13.152 95.631 14.416 93.752 15.083V15.568C95.882 16.32 97.224 17.851 97.224 21.307V25.269C97.224 29.536 95.392 31.493 91.366 31.493H82.899V0.485H91.1ZM7.98397 4.475C6.94097 4.475 6.43997 5.269 6.43997 6.933V25.221C6.43997 26.773 6.94597 27.525 7.98397 27.525C9.02297 27.525 9.53397 26.773 9.53397 25.221V6.933C9.53397 5.269 9.02797 4.475 7.98397 4.475ZM89.928 17.472H88.645V27.072L89.928 27.04C90.945 27.04 91.345 26.507 91.345 25.045V19.397C91.345 17.984 90.945 17.472 89.928 17.472ZM74.341 8.037H73.878C73.788 12.005 73.633 14.352 73.394 18.272L72.861 23.605H75.406L74.874 18.272C74.629 14.352 74.474 12.005 74.341 8.037ZM89.864 4.896H88.644V13.333H89.864C90.881 13.333 91.275 12.869 91.275 11.493V6.8C91.275 5.403 90.88 4.896 89.864 4.896Z" fill="#2A2A2C"/>
</g>
<defs>
<clipPath id="clip0_1899_2">
<rect width="112" height="32" fill="white"/>
</clipPath>
</defs>
</svg>
