<?xml version="1.0" encoding="UTF-8"?>
<svg width="112px" height="32px" viewBox="0 0 112 32" version="1.1" xmlns="http://www.w3.org/2000/svg" xmlns:xlink="http://www.w3.org/1999/xlink">
    <title>svgexport-2 (2)</title>
    <g id="Symbols" stroke="none" stroke-width="1" fill="none" fill-rule="evenodd">
        <g id="svgexport-2-(2)" fill="#FFFFFF" fill-rule="nonzero">
            <path d="M7.962,0 C12.872,0 15.306,2.39 15.306,7.707 L15.306,24.405 C15.306,29.611 12.915,32 7.962,32 C3.01,32 0.667,29.61 0.667,24.405 L0.667,7.707 C0.667,2.389 3.052,0 7.962,0 Z M104.79,0 C109.364,0 111.51,2.235 111.51,6.976 L111.51,8.992 L106.27,9.653 L106.27,6.933 C106.27,4.939 105.738,4.187 104.673,4.187 C103.873,4.187 103.458,4.763 103.458,5.787 C103.458,7.269 103.991,9.307 106.121,12.251 L108.198,15.2 C110.275,18.144 112,20.89 112,25.03 C112,29.573 109.614,31.963 105.013,31.963 C100.413,31.963 97.979,29.632 97.979,24.624 L97.979,22.032 L103.442,21.333 L103.442,24.656 C103.442,26.869 103.932,27.712 105.147,27.712 C105.967,27.712 106.43,27.045 106.43,25.872 C106.43,23.611 105.658,21.397 103.645,18.453 L101.632,15.488 C99.64,12.538 98.027,10.038 98.027,6.848 C98.043,2.133 100.365,0 104.79,0 Z M21.398,0.485 L22.415,14.197 C22.66,17.397 22.75,19.579 22.793,23.365 L23.277,23.365 C23.347,19.6 23.458,17.339 23.698,14.197 L24.763,0.485 L30.312,0.485 L31.329,14.197 C31.569,17.339 31.659,19.6 31.729,23.365 L32.213,23.365 C32.303,19.6 32.389,17.408 32.633,14.197 L33.652,0.485 L39.137,0.485 L35.44,31.493 L29.05,31.493 L28.32,21.867 C28.011,17.973 27.836,14.933 27.703,10.885 L27.239,10.885 C27.085,14.96 26.925,17.947 26.616,21.867 L25.886,31.467 L19.544,31.467 L15.673,0.485 L21.398,0.485 Z M45.648,0.485 L45.648,26.816 L50.441,26.816 L50.441,31.493 L39.897,31.493 L39.897,0.485 L45.648,0.485 Z M61.022,0.485 L61.022,26.816 L65.815,26.816 L65.815,31.493 L55.276,31.493 L55.276,0.485 L61.022,0.485 L61.022,0.485 Z M78.062,0.485 L82.142,31.493 L76.182,31.493 L75.874,27.525 L72.424,27.525 L72.114,31.493 L66.587,31.493 L70.5,0.485 L78.062,0.485 Z M91.099,0.485 C95.125,0.485 96.829,2.347 96.829,6.533 L96.829,10.187 C96.829,13.152 95.63,14.416 93.751,15.083 L93.751,15.568 C95.881,16.32 97.223,17.851 97.223,21.307 L97.223,25.269 C97.223,29.536 95.391,31.493 91.365,31.493 L82.898,31.493 L82.898,0.485 L91.098,0.485 L91.099,0.485 Z M7.983,4.475 C6.94,4.475 6.439,5.269 6.439,6.933 L6.439,25.221 C6.439,26.773 6.945,27.525 7.983,27.525 C9.022,27.525 9.533,26.773 9.533,25.221 L9.533,6.933 C9.533,5.269 9.027,4.475 7.983,4.475 L7.983,4.475 Z M89.927,17.472 L88.644,17.472 L88.644,27.072 L89.927,27.04 C90.944,27.04 91.344,26.507 91.344,25.045 L91.344,19.397 C91.344,17.984 90.944,17.472 89.927,17.472 Z M74.34,8.037 L73.877,8.037 C73.787,12.005 73.632,14.352 73.393,18.272 L72.86,23.605 L75.405,23.605 L74.873,18.272 C74.628,14.352 74.473,12.005 74.34,8.037 L74.34,8.037 Z M89.863,4.896 L88.643,4.896 L88.643,13.333 L89.863,13.333 C90.88,13.333 91.274,12.869 91.274,11.493 L91.274,6.8 C91.274,5.403 90.88,4.896 89.864,4.896 L89.863,4.896 Z" id="Shape"></path>
        </g>
    </g>
</svg>