<?xml version="1.0" encoding="UTF-8"?>
<svg width="67px" height="65px" viewBox="0 0 67 65" version="1.1" xmlns="http://www.w3.org/2000/svg" xmlns:xlink="http://www.w3.org/1999/xlink">
    <title>svgexport-1 (4)</title>
    <g id="Symbols" stroke="none" stroke-width="1" fill="none" fill-rule="evenodd">
        <g id="svgexport-1-(4)" fill="#FFFFFF" fill-rule="nonzero">
            <path d="M34.771,28.149 L24.257,28.149 L24.257,22.359 L37.752,22.359 C38.4526804,22.3390845 39.1245261,22.0756503 39.652,21.614 C40.2704345,21.0674572 40.6307601,20.2862076 40.645,19.461 C40.6468387,18.4428221 40.112212,17.4989609 39.238,16.977 L37.669,16.977 L38.169,16.563 L11.673,16.563 C11.1709472,18.4252364 10.9203896,20.3462897 10.9278317,22.275 C10.9278317,34.480493 20.822507,44.3752304 33.028,44.3752304 C37.4578708,44.3953509 41.7890559,43.0671859 45.446,40.567 L34.771,28.149 Z" id="Path"></path>
            <path d="M40.816,1.407 C30.9819938,-2.27914285 19.9117054,1.45733539 14.323,10.349 L36.179,10.349 C36.4812406,10.3073798 36.7877594,10.3073798 37.09,10.349 C38.1179005,10.3817282 39.1418378,10.492379 40.153,10.68 C44.0557209,11.7713166 46.75984,15.3206005 46.776,19.373 C46.777055,21.6202034 45.9183653,23.7826703 44.376,25.417 C43.8856926,25.9782225 43.329705,26.478477 42.72,26.907 L48.432,33.116 L50.667,35.516 C51.2387758,34.7481201 51.7640495,33.9466854 52.24,33.116 C55.4424108,27.4820331 56.0213947,20.7295198 53.8248285,14.6326259 C51.6282624,8.535732 46.8757596,3.70402679 40.816,1.407 Z M0.083,54.145 C0.0727765868,53.8786373 0.174109157,53.6200802 0.362594689,53.4315947 C0.551080221,53.2431092 0.809637327,53.1417766 1.076,53.152 L5.05,53.152 C6.22257314,53.0974823 7.37351327,53.4810102 8.279,54.228 C8.89295991,54.8730003 9.2213226,55.7380612 9.19,56.628 C9.28919453,58.2201784 8.19047977,59.6383169 6.624,59.94 L8.777,62.589 C8.9686117,62.7926208 9.08532781,63.0553202 9.108,63.334 C9.10526725,63.8359951 8.69899511,64.2422672 8.197,64.245 C7.80330327,64.2544762 7.43082777,64.0669256 7.204,63.745 L4.471,60.437 L1.987,60.437 L1.987,63.417 C1.99722341,63.6833627 1.89589084,63.9419198 1.70740531,64.1304053 C1.51891978,64.3188908 1.26036267,64.4202234 0.994,64.41 C0.727647581,64.4204918 0.468988341,64.3194197 0.280312962,64.1311239 C0.091637582,63.9428282 -0.00995532042,63.684373 2.28549818e-15,63.418 L2.28549818e-15,54.145 L0.083,54.145 Z M4.883,58.698 C6.292,58.699 7.2,57.952 7.2,56.878 C7.2,55.719 6.372,55.057 4.882,55.057 L2.07,55.057 L2.07,58.782 L4.885,58.782 L4.883,58.698 Z M10.598,63.085 L14.737,53.895 C14.9117003,53.4034337 15.3743463,53.0729153 15.896,53.067 L15.979,53.067 C16.5006537,53.0729153 16.9632997,53.4034337 17.138,53.895 L21.277,63.085 C21.3439585,63.2121273 21.3727798,63.3558865 21.36,63.499 C21.3556546,64.0003205 20.9503205,64.4056546 20.449,64.41 C20.0147392,64.4099327 19.6230855,64.1488303 19.456,63.748 L18.545,61.678 L13.164,61.678 L12.253,63.831 C12.1119547,64.2052895 11.7408122,64.4415822 11.342,64.411 C10.8406795,64.4066546 10.4353454,64.0013205 10.431,63.5 C10.515,63.334 10.515,63.251 10.598,63.085 L10.598,63.085 Z M17.883,59.939 L15.896,55.468 L13.909,59.939 L17.883,59.939 Z M25.003,60.023 L21.195,54.723 C20.9350954,54.441811 20.8721972,54.030874 21.0360955,53.6848176 C21.1999938,53.3387613 21.5577805,53.1270679 21.94,53.15 C22.344972,53.1725284 22.714436,53.3883281 22.933,53.73 L25.996,58.202 L29.146,53.732 C29.3306704,53.3957579 29.6742015,53.1770444 30.057,53.152 C30.3233627,53.1417766 30.5819198,53.2431092 30.7704053,53.4315947 C30.9588908,53.6200802 31.0602234,53.8786373 31.05,54.145 C31.0183598,54.3815568 30.9335739,54.6078806 30.802,54.807 L26.994,60.023 L26.994,63.5 C26.9769791,64.0364283 26.5371982,64.4624762 26.0005,64.4624762 C25.4638018,64.4624762 25.0240209,64.0364283 25.007,63.5 L25.003,60.023 Z M31.461,58.786 C31.4172768,57.2500775 32.0021014,55.7628045 33.0802656,54.6680299 C34.1584298,53.5732552 35.6365886,52.9657623 37.173,52.986 C38.5492156,52.937024 39.8983045,53.3770367 40.981,54.228 C41.2396674,54.3869618 41.3966177,54.6693966 41.395,54.973 C41.3865114,55.3420881 41.1786702,55.6775894 40.8519801,55.8495535 C40.52529,56.0215175 40.1310645,56.0029336 39.822,55.801 C39.081684,55.1714403 38.1447325,54.8202161 37.173,54.808 C36.1660406,54.8173271 35.2068152,55.2385578 34.5185688,55.9736572 C33.8303223,56.7087565 33.4730856,57.6936071 33.53,58.699 C33.4850053,59.7093626 33.8437847,60.6961225 34.5272052,61.4416381 C35.2106258,62.1871537 36.1625429,62.6301792 37.173,62.673 C38.2113513,62.6706879 39.2128451,62.2878789 39.988,61.597 C40.1356424,61.4333233 40.3476634,61.342666 40.568,61.349 C41.0693205,61.3533454 41.4746546,61.7586795 41.479,62.26 C41.4948721,62.5239569 41.3686888,62.7763236 41.148,62.922 C40.0389489,63.9241484 38.5850445,64.4581187 37.091,64.412 C35.5823903,64.4668324 34.1189175,63.8918584 33.0510856,62.8247853 C31.9832538,61.7577121 31.4072398,60.2946483 31.461,58.786 L31.461,58.786 Z M42.554,58.786 C42.5335932,57.2279536 43.1489121,55.7288543 44.2580462,54.6344382 C45.3671803,53.5400222 46.8743652,52.9447829 48.432,52.986 C49.9679225,52.9422768 51.4551955,53.5271014 52.5499701,54.6052656 C53.6447448,55.6834298 54.2522377,57.1615886 54.232,58.698 C54.2524068,60.2560464 53.6370879,61.7551457 52.5279538,62.8495618 C51.4188197,63.9439778 49.9116348,64.5392171 48.354,64.498 C46.8180775,64.5417232 45.3308045,63.9568986 44.2360299,62.8787344 C43.1412552,61.8005702 42.5337623,60.3224114 42.554,58.786 L42.554,58.786 Z M52.154,58.786 C52.2064857,57.7466068 51.8290248,56.731402 51.1102502,55.9787693 C50.3914755,55.2261365 49.3947073,54.8023788 48.354,54.807 C47.3343587,54.7987491 46.3565109,55.2116574 45.6513749,55.9482168 C44.946239,56.6847763 44.5763294,57.6796865 44.629,58.698 C44.5916748,59.7342221 44.9754304,60.7414179 45.692822,61.4900824 C46.4102137,62.238747 47.4001288,62.6651034 48.437,62.672 C49.458657,62.6919959 50.4419852,62.283158 51.1483085,61.5447204 C51.8546319,60.8062827 52.2193727,59.8057594 52.154,58.786 L52.154,58.786 Z M56.296,54.144 C56.2857766,53.8776373 56.3871092,53.6190802 56.5755947,53.4305947 C56.7640802,53.2421092 57.0226373,53.1407766 57.289,53.151 L57.537,53.151 C57.9479538,53.1526619 58.3266726,53.3738673 58.53,53.731 L64.077,60.931 L64.077,54.061 C64.0845294,53.5157305 64.5247305,53.0755294 65.07,53.068 C65.3363627,53.0577766 65.5949198,53.1591092 65.7834053,53.3475947 C65.9718908,53.5360802 66.0732234,53.7946373 66.063,54.061 L66.063,63.416 C66.0735283,63.6824482 65.9722939,63.9411851 65.7837395,64.1297395 C65.5951851,64.3182939 65.3364482,64.4195283 65.07,64.409 L64.987,64.409 C64.5760462,64.4073381 64.1973274,64.1861327 63.994,63.829 L58.282,56.378 L58.282,63.415 C58.2744706,63.9602695 57.8342695,64.4004706 57.289,64.408 C57.0226373,64.4182234 56.7640802,64.3168908 56.5755947,64.1284053 C56.3871092,63.9399198 56.2857766,63.6813627 56.296,63.415 L56.296,54.144 Z" id="Shape"></path>
        </g>
    </g>
</svg>