<svg width="67" height="65" viewBox="0 0 67 65" fill="none" xmlns="http://www.w3.org/2000/svg">
<g clip-path="url(#clip0_1899_6)">
<path d="M34.773 28.1485H24.259V22.3585H37.754C38.4547 22.3386 39.1265 22.0752 39.654 21.6135C40.2725 21.067 40.6328 20.2857 40.647 19.4605C40.6489 18.4423 40.1142 17.4985 39.24 16.9765H37.671L38.171 16.5625H11.675C11.173 18.4247 10.9224 20.3458 10.9298 22.2745C10.9298 34.48 20.8245 44.3747 33.03 44.3747C37.4599 44.3948 41.7911 43.0667 45.448 40.5665L34.773 28.1485Z" fill="#2A2A2C"/>
<path d="M40.8167 1.40978C30.9827 -2.27636 19.9124 1.46012 14.3237 10.3518H36.1797C36.4819 10.3102 36.7884 10.3102 37.0907 10.3518C38.1186 10.3845 39.1425 10.4952 40.1537 10.6828C44.0564 11.7741 46.7605 15.3234 46.7767 19.3758C46.7777 21.623 45.919 23.7855 44.3767 25.4198C43.8864 25.981 43.3304 26.4813 42.7207 26.9098L48.4327 33.1188L50.6677 35.5188C51.2394 34.7509 51.7647 33.9495 52.2407 33.1188C55.4431 27.4848 56.0221 20.7323 53.8255 14.6354C51.6289 8.53851 46.8764 3.70681 40.8167 1.40978ZM0.0836685 54.1478C0.0734451 53.8814 0.174778 53.6229 0.363263 53.4344C0.551749 53.2459 0.810306 53.1446 1.07667 53.1548H5.05067C6.22324 53.1003 7.37418 53.4838 8.27967 54.2308C8.89363 54.8758 9.22199 55.7408 9.19067 56.6308C9.28986 58.223 8.19115 59.6411 6.62467 59.9428L8.77767 62.5918C8.96928 62.7954 9.086 63.0581 9.10867 63.3368C9.10594 63.8388 8.69966 64.2451 8.19767 64.2478C7.80397 64.2573 7.4315 64.0697 7.20467 63.7478L4.47167 60.4398H1.98767V63.4198C1.99789 63.6861 1.89656 63.9447 1.70807 64.1332C1.51959 64.3217 1.26103 64.423 0.994669 64.4128C0.728316 64.4233 0.469657 64.3222 0.280982 64.1339C0.0923061 63.9456 -0.00928677 63.6872 0.00066855 63.4208V54.1478H0.0836685ZM4.88367 58.7008C6.29267 58.7018 7.20067 57.9548 7.20067 56.8808C7.20067 55.7218 6.37267 55.0598 4.88267 55.0598H2.07067V58.7848H4.88567L4.88367 58.7008ZM10.5987 63.0878L14.7377 53.8978C14.9124 53.4062 15.375 53.0757 15.8967 53.0698H15.9797C16.5013 53.0757 16.964 53.4062 17.1387 53.8978L21.2777 63.0878C21.3446 63.2149 21.3734 63.3587 21.3607 63.5018C21.3563 64.0031 20.951 64.4084 20.4497 64.4128C20.0154 64.4127 19.6238 64.1516 19.4567 63.7508L18.5457 61.6808H13.1647L12.2537 63.8338C12.1126 64.2081 11.7415 64.4444 11.3427 64.4138C10.8413 64.4094 10.436 64.0041 10.4317 63.5028C10.5157 63.3368 10.5157 63.2538 10.5987 63.0878ZM17.8837 59.9418L15.8967 55.4708L13.9097 59.9418H17.8837ZM25.0037 60.0258L21.1957 54.7258C20.9358 54.4446 20.8729 54.0337 21.0368 53.6876C21.2007 53.3415 21.5585 53.1299 21.9407 53.1528C22.3456 53.1753 22.7151 53.3911 22.9337 53.7328L25.9967 58.2048L29.1467 53.7348C29.3313 53.3985 29.6749 53.1798 30.0577 53.1548C30.324 53.1446 30.5826 53.2459 30.7711 53.4344C30.9596 53.6229 31.0609 53.8814 31.0507 54.1478C31.019 54.3843 30.9342 54.6107 30.8027 54.8098L26.9947 60.0258V63.5028C26.9776 64.0392 26.5379 64.4653 26.0012 64.4653C25.4645 64.4653 25.0247 64.0392 25.0077 63.5028L25.0037 60.0258ZM31.4617 58.7888C31.4179 57.2529 32.0028 55.7656 33.0809 54.6708C34.1591 53.576 35.6373 52.9685 37.1737 52.9888C38.5499 52.9398 39.899 53.3798 40.9817 54.2308C41.2403 54.3897 41.3973 54.6722 41.3957 54.9758C41.3872 55.3449 41.1793 55.6804 40.8526 55.8523C40.526 56.0243 40.1317 56.0057 39.8227 55.8038C39.0824 55.1742 38.1454 54.823 37.1737 54.8108C36.1667 54.8201 35.2075 55.2413 34.5192 55.9764C33.831 56.7115 33.4738 57.6964 33.5307 58.7018C33.4857 59.7121 33.8445 60.6989 34.5279 61.4444C35.2113 62.1899 36.1632 62.633 37.1737 62.6758C38.212 62.6735 39.2135 62.2907 39.9887 61.5998C40.1363 61.4361 40.3483 61.3454 40.5687 61.3518C41.07 61.3561 41.4753 61.7615 41.4797 62.2628C41.4955 62.5267 41.3694 62.7791 41.1487 62.9248C40.0396 63.9269 38.5857 64.4609 37.0917 64.4148C35.5831 64.4696 34.1196 63.8946 33.0518 62.8276C31.9839 61.7605 31.4079 60.2974 31.4617 58.7888ZM42.5547 58.7888C42.5343 57.2307 43.1496 55.7316 44.2587 54.6372C45.3678 53.5428 46.875 52.9476 48.4327 52.9888C49.9686 52.9451 51.4559 53.5299 52.5506 54.608C53.6454 55.6862 54.2529 57.1644 54.2327 58.7008C54.2531 60.2588 53.6378 61.7579 52.5286 62.8523C51.4195 63.9468 49.9123 64.542 48.3547 64.5008C46.8187 64.5445 45.3315 63.9597 44.2367 62.8815C43.1419 61.8034 42.5344 60.3252 42.5547 58.7888ZM52.1547 58.7888C52.2072 57.7494 51.8297 56.7342 51.1109 55.9815C50.3921 55.2289 49.3954 54.8052 48.3547 54.8098C47.335 54.8015 46.3572 55.2144 45.652 55.951C44.9469 56.6876 44.577 57.6825 44.6297 58.7008C44.5923 59.737 44.9761 60.7442 45.6935 61.4929C46.4109 62.2415 47.4008 62.6679 48.4377 62.6748C49.4593 62.6948 50.4427 62.2859 51.149 61.5475C51.8553 60.8091 52.22 59.8085 52.1547 58.7888ZM56.2967 54.1468C56.2864 53.8804 56.3878 53.6219 56.5763 53.4334C56.7647 53.2449 57.0233 53.1436 57.2897 53.1538H57.5377C57.9486 53.1554 58.3273 53.3766 58.5307 53.7338L64.0777 60.9338V54.0638C64.0852 53.5185 64.5254 53.0783 65.0707 53.0708C65.337 53.0606 65.5956 53.1619 65.7841 53.3504C65.9726 53.5389 66.0739 53.7974 66.0637 54.0638V63.4188C66.0742 63.6852 65.973 63.944 65.7844 64.1325C65.5959 64.3211 65.3371 64.4223 65.0707 64.4118H64.9877C64.5767 64.4101 64.198 64.1889 63.9947 63.8318L58.2827 56.3808V63.4178C58.2751 63.9631 57.8349 64.4033 57.2897 64.4108C57.0233 64.421 56.7647 64.3197 56.5763 64.1312C56.3878 63.9427 56.2864 63.6841 56.2967 63.4178V54.1468Z" fill="#2A2A2C"/>
</g>
<defs>
<clipPath id="clip0_1899_6">
<rect width="67" height="65" fill="white"/>
</clipPath>
</defs>
</svg>
