<svg width="168" height="25" viewBox="0 0 168 25" fill="none" xmlns="http://www.w3.org/2000/svg">
<g clip-path="url(#clip0_1899_11)">
<path d="M27.572 12.7487C27.378 12.5593 27.0085 12.5409 26.3109 12.5686C25.5718 12.5963 21.6777 12.7441 20.8462 12.7395C20.2642 12.7349 19.6221 12.721 19.0539 12.721C17.3863 12.721 17.2708 12.5963 17.2662 12.4531C17.2616 12.1436 18.3241 11.7371 19.7468 11.0581C21.6916 10.1296 25.5025 8.38807 25.6365 8.30954L25.6596 8.29569C25.9552 8.14787 26.2093 8.01852 26.2786 7.78756C26.3248 7.64436 26.2878 7.47806 26.1724 7.26557L26.1169 7.1778C25.7381 6.56804 25.3132 6.7713 24.8974 6.96993L24.7727 7.02998C24.6064 7.10851 24.3292 7.24247 24.0428 7.38105C23.6225 7.5843 19.9224 9.47362 18.5365 10.1711C16.832 11.0303 16.4902 11.1551 16.3377 10.9703C16.0883 10.67 18.3841 7.94923 21.1234 4.11978C21.3174 3.85186 21.5068 3.66708 21.613 3.51926C21.8532 3.19129 22.0195 2.94184 21.978 2.69702C21.9687 2.56305 21.8763 2.43371 21.7054 2.31361L21.5946 2.24432C20.9802 1.86553 20.6615 2.28589 20.4074 2.62773L20.3473 2.70625C20.3473 2.70625 17.779 6.24469 17.0583 7.30252C16.1391 8.656 15.1967 10.1296 14.7302 9.89399C14.4576 9.7554 14.6794 8.83615 14.8595 7.56583C15.0397 6.2955 15.7788 3.01113 15.9589 2.14269C16.0513 1.69923 16.1068 1.40359 16.1391 1.22806C16.1945 0.886221 16.2407 0.595201 16.0929 0.38733C16.0005 0.262607 15.8435 0.184078 15.6032 0.147123L15.497 0.142504C14.7764 0.00854182 14.647 0.67373 14.5593 1.10795C14.4576 1.61147 13.446 8.67447 13.2889 9.26575C13.2428 9.42743 13.1411 9.6353 12.827 9.66302C12.6561 9.67688 12.3743 9.58449 12.0186 8.93778L10.7622 6.50799C10.4758 5.99524 9.56111 4.04125 8.86821 2.49376C8.7481 2.22584 8.61414 1.92558 8.33236 1.81934C8.14758 1.75005 7.93047 1.77776 7.67641 1.90249C7.39463 2.02721 7.23295 2.17503 7.16828 2.35518C7.08513 2.59539 7.1729 2.85869 7.34843 3.20515C7.52859 3.56546 8.32312 5.01132 8.96059 6.14306C9.19618 6.59114 9.80132 7.59816 10.8638 9.81546C11.1271 10.4067 11.2333 10.7717 11.1178 10.9657C11.0578 11.0627 10.9238 11.0996 10.6559 11.0396C10.3418 10.9472 9.96299 10.767 9.71355 10.6516L8.76196 10.2173C7.71798 9.67226 5.06647 8.26797 4.84474 8.13863C4.83088 8.12939 4.2627 7.82451 3.80538 7.58892C3.094 7.22399 2.71521 7.15932 2.35952 7.7737C2.22556 8.02314 2.1886 8.2264 2.24866 8.40655C2.31795 8.63752 2.53044 8.82691 2.98314 9.0625C3.29263 9.2288 5.37135 10.2081 6.17512 10.5545C6.49847 10.7116 6.80335 10.8548 7.02508 10.961C7.41773 11.1458 7.82423 11.3167 8.18916 11.4692C8.35546 11.5385 8.51713 11.6078 8.68343 11.6771C8.76658 11.714 8.85435 11.751 8.9375 11.7925C9.69969 12.1759 9.87061 12.296 9.963 12.3792C9.99533 12.4115 10.0277 12.4485 10.0462 12.4901C10.0508 12.4947 10.0508 12.4993 10.0554 12.5039C10.0785 12.5455 10.0923 12.5917 10.097 12.6425C10.1016 12.6979 10.0831 12.758 10.0415 12.7903C9.86137 12.9428 9.4641 12.9058 9.23314 12.9012C8.60952 12.8966 7.99053 12.9012 7.36691 12.8919C7.20985 12.8919 6.88188 12.8873 6.47537 12.8873C5.35749 12.8781 3.6668 12.7857 3.22796 12.7626C3.03395 12.7534 2.83993 12.7441 2.51196 12.7303L2.11469 12.7164C1.64814 12.6979 1.36174 12.721 1.17696 12.8966C1.05224 13.0213 0.992188 13.2061 0.992188 13.4878V13.5756C0.992188 14.3193 1.47722 14.3239 2.3549 14.3239C2.36876 14.3239 2.41957 14.3239 2.41957 14.3239C2.69212 14.3193 2.96466 14.3147 3.24182 14.3101C3.43121 14.3101 3.82848 14.3055 4.30889 14.3009C5.46373 14.2916 7.04356 14.2824 7.43158 14.2731L8.25383 14.25C8.57719 14.2408 8.90054 14.2316 9.2239 14.2269C9.44563 14.2223 9.67198 14.2177 9.90294 14.2131L16.3008 14.1392C17.8945 14.1346 19.3265 14.1392 20.6753 14.153L20.9987 14.1576C21.5114 14.1623 22.1535 14.1623 22.8187 14.1669C24.0659 14.1715 25.3593 14.1715 26.1262 14.1992C26.8699 14.2269 27.2902 14.1992 27.5304 13.9683C27.6644 13.8389 27.7291 13.6495 27.7291 13.3908V13.2754C27.7337 13.0167 27.6829 12.8596 27.572 12.7487Z" fill="#2A2A2C"/>
<path d="M26.7444 15.9297C26.6105 15.9297 26.4719 15.9297 26.3379 15.9343H26.2409C25.9129 15.9436 25.5803 15.9528 25.2524 15.9667L24.4578 15.999C24.0421 16.0175 23.6587 16.0314 23.1921 16.0452C20.6191 16.1191 14.7572 16.1191 11.944 16.1191H11.7453C9.56958 16.1191 5.84637 16.1006 3.78613 16.1006C2.12778 16.1006 1.09766 17.0014 1.09766 18.4473C1.09766 19.9763 2.63591 21.3621 3.67989 21.8194C5.68469 22.6971 8.43783 22.6509 10.4103 22.2675C11.0155 22.1474 11.8654 21.9303 12.7662 21.7039C14.0689 21.3713 15.4916 20.9048 16.5356 20.6461C19.0855 20.0179 20.2357 20.7431 20.4159 21.3852C20.4713 21.5884 20.4482 21.7778 20.3374 21.9626C19.8985 22.711 18.3048 23.1221 17.9907 23.196C17.9907 23.196 17.9076 23.2145 17.6766 23.2745C17.2886 23.3715 17.0437 23.4685 16.9421 23.6672C16.8636 23.8104 16.8728 23.9951 16.9652 24.24L17.0207 24.3785C17.1823 24.7435 17.381 24.8728 17.6396 24.8774C17.8475 24.8821 18.1016 24.8081 18.4018 24.7158L18.6236 24.6511C18.7622 24.6095 18.9007 24.5679 19.0393 24.5217L19.261 24.4432C19.4135 24.3878 19.5705 24.3324 19.7276 24.2769C20.596 23.9813 21.7324 23.2329 22.0789 22.092C22.4161 20.9879 21.7139 19.87 20.3281 19.4173C18.3926 18.7845 16.5449 19.0755 13.8148 19.8377C10.6644 20.7154 7.24603 21.5746 4.52523 20.563C3.01008 19.9994 2.5851 18.7753 2.77449 18.1285C2.95003 17.5234 3.5875 17.4772 4.71924 17.4772C5.56921 17.4772 6.6178 17.4957 7.74493 17.5049C10.5027 17.5326 13.6254 17.565 15.6672 17.5511C16.7666 17.5419 22.3375 17.4957 24.0421 17.5096C24.7258 17.4957 25.4464 17.5049 26.0238 17.5142L26.301 17.5188C27.2756 17.528 27.7052 17.5003 27.7099 16.8166V16.6781C27.7052 15.9944 27.308 15.9343 26.7444 15.9297Z" fill="#2A2A2C"/>
<path d="M162.874 13.3745C162.236 13.1112 161.617 12.894 161.021 12.6862C158.906 11.9471 157.238 11.3373 157.238 9.52194C157.238 8.27009 158.435 7.54485 159.857 7.54485C162.901 7.54485 164.047 11.0093 164.287 11.9563C164.306 12.0348 164.38 12.081 164.458 12.0718C165.109 11.984 166.629 11.4528 166.648 9.61895C166.652 9.01381 166.417 8.46411 165.941 7.98369C164.883 6.90738 162.67 6.24219 160.171 6.24219C155.312 6.24219 152.051 8.60731 152.051 12.1272C152.051 15.601 154.794 16.6773 157.451 17.7167C157.954 17.9153 158.435 18.1001 158.887 18.3033C162.264 19.8092 162.804 20.4329 162.804 21.6524C162.804 22.8673 161.534 23.6572 159.848 23.6618C156.185 23.6756 155.136 19.4212 154.984 18.696C154.97 18.6359 154.919 18.5897 154.855 18.5943C154.351 18.6221 153.455 18.8484 152.845 19.4027C152.383 19.8231 152.148 20.3497 152.148 20.9733C152.148 23.7496 155.885 24.9968 159.594 24.9968C162.666 24.9968 167.826 24.2253 167.826 19.0424C167.83 17.2593 167.244 15.1945 162.874 13.3745Z" fill="#2A2A2C"/>
<path d="M125.726 0.125H120.127C120.002 0.125 119.901 0.226626 119.901 0.351349L119.993 6.21794C119.993 6.29647 119.965 6.37038 119.91 6.42119C119.854 6.47662 119.785 6.50434 119.702 6.49972C119.448 6.49048 119.175 6.48124 118.88 6.48124C116.505 6.48124 112.884 6.92008 110.44 9.2621C108.685 10.9435 107.793 13.3687 107.793 16.4636C107.793 21.6327 110.168 24.9771 113.84 24.9771C116.376 24.9771 118.556 23.4574 120.122 20.2053C120.741 22.6074 121.513 24.6122 124.035 24.6122H125.703C125.827 24.6122 125.929 24.5106 125.929 24.3859L125.726 11.7981L125.952 0.351349C125.952 0.226626 125.85 0.125 125.726 0.125ZM116.972 20.6118C114.861 20.6118 113.494 18.1174 113.494 14.2556C113.494 10.1767 114.796 7.88091 116.889 7.88091C118.82 7.88091 119.887 8.98494 120.062 11.6272C120.104 12.2646 120.104 13.6412 120.104 13.6966C120.108 17.7709 118.82 20.6118 116.972 20.6118Z" fill="#2A2A2C"/>
<path d="M104.73 6.53906H99.1082C98.9742 6.53906 98.8679 6.65454 98.8864 6.7885C99.0065 7.75857 99.2283 9.98048 99.2283 13.6621C99.2283 17.0435 98.1935 20.6096 95.3249 20.6096C94.2809 20.6096 93.6204 19.889 93.3109 18.4108C93.0429 17.1312 93.0429 15.3343 93.0429 13.6205C93.0429 10.1929 93.3386 6.77926 93.3386 6.77926C93.3432 6.64992 93.2416 6.54368 93.1122 6.54368L87.5228 6.57601C87.3981 6.57601 87.2964 6.67764 87.3009 6.80698C87.3611 8.47919 87.5551 14.221 87.5551 17.2975C87.5551 22.3927 89.4675 24.9795 92.387 24.9795C95.7083 24.9795 97.5838 23.6168 99.1359 20.4756C99.3899 19.9629 99.5932 19.5379 99.741 19.2192C99.9073 20.4202 100.064 21.4365 100.064 21.4457C100.411 23.5799 101.136 24.6146 103.506 24.6146H104.721C104.845 24.6146 104.947 24.513 104.947 24.3882C104.91 22.5682 104.748 14.2256 104.748 11.7959C104.748 9.68946 104.882 7.65694 104.952 6.78388C104.965 6.64992 104.859 6.53906 104.73 6.53906Z" fill="#2A2A2C"/>
<path d="M138.972 6.24219C132.768 6.24219 128.602 10.0116 128.602 15.6195C128.602 21.5785 132.38 24.9968 138.972 24.9968C145.176 24.9968 149.343 21.2274 149.343 15.6195C149.343 11.342 147.546 6.24219 138.972 6.24219ZM142.187 22.4331C141.711 23.1121 141.115 23.5186 140.413 23.6387C140.247 23.6665 140.085 23.6803 139.924 23.6803C137.632 23.6803 135.678 20.881 134.861 16.3448C134.306 13.259 134.639 10.3719 135.729 8.81518C136.214 8.12689 136.819 7.71577 137.526 7.59105C140.076 7.15683 142.141 9.88225 143.042 14.8897C143.601 17.9939 143.273 20.8856 142.187 22.4331Z" fill="#2A2A2C"/>
<path d="M83.5686 0.125H77.9607C77.836 0.125 77.7344 0.231245 77.7344 0.355968L78.0208 11.7935L77.7805 24.3859C77.7759 24.5106 77.8776 24.6168 78.0069 24.6168H83.5455C83.6702 24.6168 83.7719 24.5152 83.7719 24.3905L83.5686 11.8027L83.795 0.355968C83.7996 0.226626 83.6979 0.125 83.5686 0.125Z" fill="#2A2A2C"/>
<path d="M45.9786 10.2411C40.1952 7.37713 38.6292 6.13914 38.6292 4.20824C38.6292 2.45288 40.1952 1.44124 42.1769 1.44124C45.9278 1.44124 47.1612 6.45325 47.4014 7.63581C47.4291 7.77901 47.5677 7.86216 47.7109 7.82982C48.4685 7.64043 50.598 6.90133 50.598 4.53622C50.598 3.64006 50.27 2.84553 49.6048 2.1711C48.2329 0.789911 45.5352 0 42.1954 0C36.9755 0 33.7558 2.61456 33.7558 7.15078C33.7558 11.0172 37.3081 12.8326 40.44 14.4909C40.6941 14.6249 40.9389 14.7543 41.1837 14.8882L41.6687 15.1469C44.7129 16.7775 46.5514 17.7615 46.5514 20.5285C46.5514 22.4917 44.7591 23.5449 42.6619 23.5449C38.1349 23.5449 37.2573 18.6022 37.1141 16.5327C37.1048 16.4218 37.0078 16.3433 36.9016 16.3664C36.4304 16.468 35.2478 16.7729 34.5503 17.3919C33.899 17.9739 33.5664 18.7177 33.5664 19.6046C33.5664 23.1199 38.6431 24.9954 42.3108 24.9954C47.2305 24.9954 52.1917 22.7919 52.1917 17.8677C52.1917 14.4679 50.6257 12.5416 45.9786 10.2411Z" fill="#2A2A2C"/>
<path d="M64.9017 6.24219C58.6979 6.24219 54.5312 10.0116 54.5312 15.6195C54.5312 21.5785 58.3099 24.9968 64.9017 24.9968C71.1055 24.9968 75.2723 21.2274 75.2723 15.6195C75.2723 11.342 73.4752 6.24219 64.9017 6.24219ZM68.1169 22.4331C67.6411 23.1121 67.0451 23.5186 66.3429 23.6387C66.1766 23.6665 66.015 23.6803 65.8533 23.6803C63.5621 23.6803 61.6082 20.881 60.7906 16.3448C60.2362 13.259 60.5688 10.3719 61.659 8.81518C62.144 8.12689 62.7492 7.71577 63.4559 7.59105C66.0105 7.15683 68.0707 9.88225 68.9715 14.8897C69.5304 17.9939 69.2024 20.8856 68.1169 22.4331Z" fill="#2A2A2C"/>
</g>
<defs>
<clipPath id="clip0_1899_11">
<rect width="168" height="25" fill="white"/>
</clipPath>
</defs>
</svg>
