<?xml version="1.0" encoding="UTF-8"?>
<svg width="168px" height="25px" viewBox="0 0 168 25" version="1.1" xmlns="http://www.w3.org/2000/svg" xmlns:xlink="http://www.w3.org/1999/xlink">
    <title>svgexport-7 (1)</title>
    <g id="Symbols" stroke="none" stroke-width="1" fill="none" fill-rule="evenodd">
        <g id="svgexport-7-(1)" fill="#FFFFFF" fill-rule="nonzero">
            <path d="M27.5715,12.7448 C27.3775,12.5554 27.008,12.537 26.3104,12.5647 C25.5713,12.5924 21.6772,12.7402 20.8457,12.7356 C20.2637,12.731 19.6216,12.7171 19.0534,12.7171 C17.3858,12.7171 17.2703,12.5924 17.2657,12.4492 C17.2611,12.1397 18.3236,11.7332 19.7463,11.0542 C21.6911,10.1257 25.502,8.38416 25.636,8.30563 L25.6591,8.29178 C25.9547,8.14396 26.2088,8.01461 26.2781,7.78365 C26.3243,7.64045 26.2873,7.47415 26.1719,7.26166 L26.1164,7.17389 C25.7376,6.56413 25.3127,6.76739 24.8969,6.96602 L24.7722,7.02607 C24.6059,7.1046 24.3287,7.23856 24.0423,7.37714 C23.622,7.58039 19.9219,9.46971 18.536,10.1672 C16.8315,11.0264 16.4897,11.1512 16.3372,10.9664 C16.0878,10.6661 18.3836,7.94532 21.1229,4.11587 C21.3169,3.84795 21.5063,3.66317 21.6125,3.51535 C21.8527,3.18738 22.019,2.93793 21.9775,2.69311 C21.9682,2.55914 21.8758,2.4298 21.7049,2.3097 L21.5941,2.24041 C20.9797,1.86162 20.661,2.28198 20.4069,2.62382 L20.3468,2.70234 C20.3468,2.70234 17.7785,6.24078 17.0578,7.29861 C16.1386,8.65209 15.1962,10.1257 14.7297,9.89008 C14.4571,9.75149 14.6789,8.83224 14.859,7.56192 C15.0392,6.29159 15.7783,3.00722 15.9584,2.13878 C16.0508,1.69532 16.1063,1.39968 16.1386,1.22415 C16.194,0.882315 16.2402,0.591295 16.0924,0.383424 C16,0.258701 15.843,0.180172 15.6027,0.143217 L15.4965,0.138598 C14.7759,0.00463594 14.6465,0.669824 14.5588,1.10404 C14.4571,1.60756 13.4455,8.67056 13.2884,9.26184 C13.2423,9.42352 13.1406,9.63139 12.8265,9.65911 C12.6556,9.67297 12.3738,9.58058 12.0181,8.93387 L10.7617,6.50408 C10.4753,5.99133 9.56062,4.03734 8.86772,2.48985 C8.74761,2.22193 8.61365,1.92167 8.33187,1.81543 C8.14709,1.74614 7.92998,1.77385 7.67592,1.89858 C7.39414,2.0233 7.23246,2.17112 7.16779,2.35127 C7.08464,2.59148 7.17241,2.85478 7.34794,3.20124 C7.5281,3.56155 8.32263,5.00741 8.9601,6.13915 C9.19569,6.58723 9.80083,7.59425 10.8633,9.81155 C11.1266,10.4028 11.2328,10.7678 11.1173,10.9618 C11.0573,11.0588 10.9233,11.0957 10.6554,11.0357 C10.3413,10.9433 9.9625,10.7631 9.71306,10.6477 L8.76147,10.2134 C7.71749,9.66835 5.06598,8.26406 4.84425,8.13472 C4.83039,8.12548 4.26221,7.8206 3.80489,7.58501 C3.09351,7.22008 2.71472,7.15541 2.35903,7.76979 C2.22507,8.01923 2.18811,8.22249 2.24817,8.40264 C2.31746,8.63361 2.52995,8.823 2.98265,9.05859 C3.29214,9.22489 5.37086,10.2042 6.17463,10.5506 C6.49798,10.7077 6.80286,10.8509 7.02459,10.9571 C7.41724,11.1419 7.82374,11.3128 8.18867,11.4653 C8.35497,11.5346 8.51664,11.6039 8.68294,11.6732 C8.76609,11.7101 8.85386,11.7471 8.93701,11.7886 C9.6992,12.172 9.87012,12.2921 9.96251,12.3753 C9.99484,12.4076 10.0272,12.4446 10.0457,12.4862 C10.0503,12.4908 10.0503,12.4954 10.0549,12.5 C10.078,12.5416 10.0918,12.5878 10.0965,12.6386 C10.1011,12.694 10.0826,12.7541 10.041,12.7864 C9.86088,12.9389 9.46361,12.9019 9.23265,12.8973 C8.60903,12.8927 7.99004,12.8973 7.36642,12.888 C7.20936,12.888 6.88139,12.8834 6.47488,12.8834 C5.357,12.8742 3.66631,12.7818 3.22747,12.7587 C3.03346,12.7495 2.83944,12.7402 2.51147,12.7264 L2.1142,12.7125 C1.64765,12.694 1.36125,12.7171 1.17647,12.8927 C1.05175,13.0174 0.991699,13.2022 0.991699,13.4839 L0.991699,13.5717 C0.991699,14.3154 1.47673,14.32 2.35441,14.32 C2.36827,14.32 2.41908,14.32 2.41908,14.32 C2.69163,14.3154 2.96417,14.3108 3.24133,14.3062 C3.43072,14.3062 3.82799,14.3016 4.3084,14.297 C5.46324,14.2877 7.04307,14.2785 7.43109,14.2692 L8.25334,14.2461 C8.5767,14.2369 8.90005,14.2277 9.22341,14.223 C9.44514,14.2184 9.67149,14.2138 9.90245,14.2092 L16.3003,14.1353 C17.894,14.1307 19.326,14.1353 20.6748,14.1491 L20.9982,14.1537 C21.5109,14.1584 22.153,14.1584 22.8182,14.163 C24.0654,14.1676 25.3588,14.1676 26.1257,14.1953 C26.8694,14.223 27.2897,14.1953 27.5299,13.9644 C27.6639,13.835 27.7286,13.6456 27.7286,13.3869 L27.7286,13.2715 C27.7332,13.0128 27.6824,12.8557 27.5715,12.7448 Z" id="Path"></path>
            <path d="M26.7446,15.9321 C26.6107,15.9321 26.4721,15.9321 26.3381,15.9367 L26.2411,15.9367 C25.9131,15.946 25.5805,15.9552 25.2526,15.9691 L24.458,16.0014 C24.0423,16.0199 23.6589,16.0338 23.1923,16.0476 C20.6193,16.1215 14.7574,16.1215 11.9442,16.1215 L11.7455,16.1215 C9.56982,16.1215 5.84661,16.103 3.78637,16.103 C2.12802,16.103 1.0979,17.0038 1.0979,18.4497 C1.0979,19.9787 2.63615,21.3645 3.68013,21.8218 C5.68493,22.6995 8.43807,22.6533 10.4105,22.2699 C11.0157,22.1498 11.8656,21.9327 12.7664,21.7063 C14.0691,21.3737 15.4918,20.9072 16.5358,20.6485 C19.0857,20.0203 20.2359,20.7455 20.4161,21.3876 C20.4715,21.5908 20.4484,21.7802 20.3376,21.965 C19.8987,22.7134 18.305,23.1245 17.9909,23.1984 C17.9909,23.1984 17.9078,23.2169 17.6768,23.2769 C17.2888,23.3739 17.0439,23.4709 16.9423,23.6696 C16.8638,23.8128 16.873,23.9975 16.9654,24.2424 L17.0209,24.3809 C17.1825,24.7459 17.3812,24.8752 17.6398,24.8798 C17.8477,24.8845 18.1018,24.8105 18.402,24.7182 L18.6238,24.6535 C18.7624,24.6119 18.9009,24.5703 19.0395,24.5241 L19.2612,24.4456 C19.4137,24.3902 19.5707,24.3348 19.7278,24.2793 C20.5962,23.9837 21.7326,23.2353 22.0791,22.0944 C22.4163,20.9903 21.7141,19.8724 20.3283,19.4197 C18.3928,18.7869 16.5451,19.0779 13.815,19.8401 C10.6646,20.7178 7.24627,21.577 4.52547,20.5654 C3.01032,20.0018 2.58534,18.7777 2.77473,18.1309 C2.95027,17.5258 3.58774,17.4796 4.71948,17.4796 C5.56945,17.4796 6.61804,17.4981 7.74517,17.5073 C10.5029,17.535 13.6256,17.5674 15.6674,17.5535 C16.7668,17.5443 22.3377,17.4981 24.0423,17.512 C24.726,17.4981 25.4466,17.5073 26.024,17.5166 L26.3012,17.5212 C27.2758,17.5304 27.7054,17.5027 27.7101,16.819 L27.7101,16.6805 C27.7054,15.9968 27.3082,15.9367 26.7446,15.9321 Z" id="Path"></path>
            <path d="M162.873,13.3777 C162.235,13.1144 161.616,12.8972 161.02,12.6894 C158.905,11.9503 157.237,11.3405 157.237,9.52511 C157.237,8.27326 158.434,7.54802 159.856,7.54802 C162.9,7.54802 164.046,11.0125 164.286,11.9595 C164.305,12.038 164.379,12.0842 164.457,12.075 C165.108,11.9872 166.628,11.456 166.647,9.62212 C166.651,9.01698 166.416,8.46728 165.94,7.98686 C164.882,6.91055 162.669,6.24536 160.17,6.24536 C155.311,6.24536 152.05,8.61048 152.05,12.1304 C152.05,15.6042 154.793,16.6805 157.45,17.7199 C157.953,17.9185 158.434,18.1033 158.886,18.3065 C162.263,19.8124 162.803,20.4361 162.803,21.6556 C162.803,22.8705 161.533,23.6604 159.847,23.665 C156.184,23.6788 155.135,19.4244 154.983,18.6992 C154.969,18.6391 154.918,18.5929 154.854,18.5975 C154.35,18.6253 153.454,18.8516 152.844,19.4059 C152.382,19.8263 152.147,20.3529 152.147,20.9765 C152.147,23.7528 155.884,25 159.593,25 C162.665,25 167.82502,24.2285 167.82502,19.0456 C167.829,17.2625 167.243,15.1977 162.873,13.3777 Z" id="Path"></path>
            <path d="M125.724,0.124756 L120.125,0.124756 C120,0.124756 119.899,0.226382 119.899,0.351105 L119.991,6.2177 C119.991,6.29623 119.963,6.37014 119.908,6.42095 C119.852,6.47638 119.783,6.5041 119.7,6.49948 C119.446,6.49024 119.173,6.481 118.878,6.481 C116.503,6.481 112.882,6.91984 110.438,9.26186 C108.683,10.9433 107.791,13.3685 107.791,16.4634 C107.791,21.6325 110.166,24.9769 113.838,24.9769 C116.374,24.9769 118.554,23.4572 120.12,20.2051 C120.739,22.6072 121.511,24.612 124.033,24.612 L125.701,24.612 C125.825,24.612 125.927,24.5104 125.927,24.3857 L125.724,11.7979 L125.95,0.351105 C125.95,0.226382 125.848,0.124756 125.724,0.124756 Z M116.97,20.6116 C114.859,20.6116 113.492,18.1172 113.492,14.2554 C113.492,10.1765 114.794,7.88067 116.887,7.88067 C118.818,7.88067 119.885,8.9847 120.06,11.627 C120.102009,12.2644 120.102009,13.641 120.102009,13.6964 C120.106,17.7707 118.818,20.6116 116.97,20.6116 Z" id="Shape"></path>
            <path d="M104.729,6.54102 L99.1071,6.54102 C98.9731,6.54102 98.8668,6.6565 98.8853,6.79046 C99.0054,7.76053 99.2272,9.98244 99.2272,13.6641 C99.2272,17.0455 98.1924,20.6116 95.3238,20.6116 C94.2798,20.6116 93.6193,19.891 93.3098,18.4128 C93.0418,17.1332 93.0418,15.3363 93.0418,13.6225 C93.0418,10.1949 93.3375,6.78122 93.3375,6.78122 C93.3421,6.65188 93.2405,6.54564 93.1111,6.54564 L87.5217,6.57797 C87.397,6.57797 87.2953,6.6796 87.2998434,6.80894 C87.36,8.48115 87.554,14.223 87.554,17.2995 C87.554,22.3947 89.4664,24.9815 92.3859,24.9815 C95.7072,24.9815 97.5827,23.6188 99.1348,20.4776 C99.3888,19.9649 99.5921,19.5399 99.7399,19.2212 C99.9062,20.4222 100.063,21.4385 100.063,21.4477 C100.41,23.5819 101.135,24.6166 103.505,24.6166 L104.72,24.6166 C104.844,24.6166 104.946,24.515 104.946,24.3902 C104.909,22.5702 104.747,14.2276 104.747,11.7979 C104.747,9.69142 104.881,7.6589 104.951,6.78584 C104.964,6.65188 104.858,6.54102 104.729,6.54102 Z" id="Path"></path>
            <path d="M138.972,6.24072 C132.768,6.24072 128.602,10.0101 128.602,15.618 C128.602,21.577 132.38,24.9953 138.972,24.9953 C145.176,24.9953 149.343,21.2259 149.343,15.618 C149.343,11.3405 147.546,6.24072 138.972,6.24072 Z M142.187,22.4316 C141.711,23.1106 141.115,23.5171 140.413,23.6372 C140.247,23.665 140.085,23.6788 139.924,23.6788 C137.632,23.6788 135.678,20.8795 134.861,16.3433 C134.306,13.2575 134.639,10.3704 135.729,8.81371 C136.214,8.12542 136.819,7.7143 137.526,7.58958 C140.076,7.15536 142.141,9.88078 143.042,14.8882 C143.601,17.9924 143.273,20.8841 142.187,22.4316 Z" id="Shape"></path>
            <path d="M83.5674,0.124756 L77.9595,0.124756 C77.8348,0.124756 77.7332,0.231001 77.7332,0.355724 L78.0196,11.7933 L77.7793,24.3857 C77.7747,24.5104 77.8764,24.6166 78.0057,24.6166 L83.5443,24.6166 C83.669,24.6166 83.7707,24.515 83.7707,24.3903 L83.5674,11.8025 L83.7938,0.355724 C83.7984,0.226382 83.6967,0.124756 83.5674,0.124756 Z" id="Path"></path>
            <path d="M45.9796,10.2411 C40.1962,7.37713 38.6302,6.13914 38.6302,4.20824 C38.6302,2.45288 40.1962,1.44124 42.1779,1.44124 C45.9288,1.44124 47.1622,6.45325 47.4024,7.63581 C47.4301,7.77901 47.5687,7.86216 47.7119,7.82982 C48.4695,7.64043 50.599,6.90133 50.599,4.53622 C50.599,3.64006 50.271,2.84553 49.6058,2.1711 C48.2339,0.789911 45.5362,0 42.1964,0 C36.9765,0 33.7568,2.61456 33.7568,7.15078 C33.7568,11.0172 37.3091,12.8326 40.441,14.4909 C40.6951,14.6249 40.9399,14.7543 41.1847,14.8882 L41.6697,15.1469 C44.7139,16.7775 46.5524,17.7615 46.5524,20.5285 C46.5524,22.4917 44.7601,23.5449 42.6629,23.5449 C38.1359,23.5449 37.2583,18.6022 37.1151,16.5327 C37.1058,16.4218 37.0088,16.3433 36.9026,16.3664 C36.4314,16.468 35.2488,16.7729 34.5513,17.3919 C33.9,17.9739 33.5674,18.7177 33.5674,19.6046 C33.5674,23.1199 38.6441,24.9954 42.3118,24.9954 C47.2315,24.9954 52.1927,22.7919 52.1927,17.8677 C52.1927,14.4679 50.6267,12.5416 45.9796,10.2411 Z" id="Path"></path>
            <path d="M64.9005,6.24072 C58.6967,6.24072 54.53,10.0101 54.53,15.618 C54.53,21.577 58.3087,24.9953 64.9005,24.9953 C71.1043,24.9953 75.271,21.2259 75.271,15.618 C75.271,11.3405 73.474,6.24072 64.9005,6.24072 Z M68.1156,22.4316 C67.6398,23.1106 67.0439,23.5171 66.3417,23.6372 C66.1754,23.665 66.0138,23.6788 65.8521,23.6788 C63.5609,23.6788 61.6069,20.8795 60.7893,16.3433 C60.2349,13.2575 60.5675,10.3704 61.6577,8.81371 C62.1427,8.12542 62.7479,7.7143 63.4546,7.58958 C66.0092,7.15536 68.0694,9.88078 68.9702,14.8882 C69.5291,17.9924 69.2011,20.8841 68.1156,22.4316 Z" id="Shape"></path>
        </g>
    </g>
</svg>