<?xml version="1.0" encoding="UTF-8"?>
<svg width="300px" height="61px" viewBox="0 0 300 61" version="1.1" xmlns="http://www.w3.org/2000/svg" xmlns:xlink="http://www.w3.org/1999/xlink">
    <title>svgexport-2 (1)</title>
    <g id="Symbols" stroke="none" stroke-width="1" fill="none" fill-rule="evenodd">
        <g id="svgexport-2-(1)" fill="#FFFFFF" fill-rule="nonzero">
            <path d="M197.346,14.7849 C195.962,15.675 194.132,15.4772 192.995,14.2904 C191.314,12.6092 189.039,11.6697 186.666,11.6697 C185.182,11.6202 183.699,12.1147 182.611,13.1531 C181.82,13.9443 181.424,15.0321 181.375,16.12 C181.375,17.6034 182.067,18.5429 183.254,19.3341 C184.045,19.878 184.885,20.1252 187.704,21.6087 L194.429,24.9711 C197.396,26.4546 200.214,27.938 202.39,30.2126 C205.505,33.3278 206.544,36.8386 206.544,40.745 C206.593,45.5414 204.813,50.1401 201.549,53.7003 C197.099,58.5462 191.561,60.0296 185.627,60.0296 C181.968,60.0296 177.419,59.4857 173.364,56.3705 C170.941,54.4421 168.914,52.0686 167.529,49.2995 C166.639,47.6183 167.282,45.5414 168.963,44.6514 C169.013,44.6514 169.062,44.6019 169.112,44.6019 L173.71,42.4262 C175.391,41.6351 177.369,42.2779 178.21,43.9097 C178.655,44.7997 179.248,45.5909 179.941,46.2832 C180.732,47.0743 182.611,48.4589 185.726,48.4589 C187.753,48.4589 189.929,47.7666 191.116,46.5799 C192.253,45.3931 192.945,43.8108 192.995,42.1296 C192.995,40.5967 192.402,39.0638 191.363,37.9265 C191.264,37.8276 191.215,37.7287 191.116,37.6792 C189.534,36.1464 187.655,35.2068 185.578,34.3168 L180.732,32.0422 C178.161,30.8554 175.095,29.372 172.919,27.1963 C169.952,24.3778 168.864,21.2625 168.864,17.6034 C168.864,13.1037 170.546,8.7522 173.562,5.4887 C176.133,2.8185 180.435,0.0989 187.457,0.0989 C191.511,0.0989 194.726,0.89 197.989,3.0657 C199.621,4.1042 201.055,5.3898 202.291,6.8732 C203.527,8.3567 203.329,10.5324 201.846,11.7191 C201.747,11.818 201.648,11.8675 201.5,11.9664 L197.346,14.7849 Z" id="Path"></path>
            <path d="M300,2.6702 L300,56.42 C300,58.3979 298.368,60.0297 296.39,60.0297 L289.962,60.0297 C287.984,60.0297 286.352,58.3979 286.352,56.42 L286.352,9.8896 C286.352,8.8017 286.847,7.7633 287.737,7.071 L295.846,0.6428 C296.984,-0.2473 298.566,-0.0495 299.456,1.0384 C299.802,1.4834 300,2.0768 300,2.6702 Z" id="Path"></path>
            <path d="M255.25,14.7849 C253.865,15.675 252.036,15.4772 250.849,14.2904 C249.168,12.6092 246.893,11.6697 244.52,11.6697 C243.036,11.6202 241.602,12.1147 240.465,13.1531 C239.674,13.9443 239.278,14.9827 239.278,16.12 C239.278,17.6034 239.97,18.5429 241.157,19.3341 C241.948,19.878 242.789,20.1253 245.607,21.6087 L252.382,24.9217 C255.349,26.4051 258.217,27.8886 260.343,30.2126 C263.409,33.2784 264.546,36.8386 264.546,40.6956 C264.595,45.492 262.815,50.0907 259.552,53.6509 C255.101,58.5462 249.613,59.9802 243.629,59.9802 C240.02,59.9802 235.421,59.4363 231.366,56.3705 C228.943,54.4915 226.916,52.0191 225.482,49.2995 C224.592,47.6183 225.235,45.492 226.916,44.602 C226.966,44.602 227.015,44.5525 227.064,44.5525 L231.713,42.3768 C233.344,41.5856 235.322,42.2285 236.262,43.8602 C236.707,44.7503 237.3,45.5415 237.992,46.2337 C238.784,47.0249 240.663,48.36 243.778,48.36 C245.805,48.36 247.981,47.7172 249.168,46.481 C250.305,45.2942 250.997,43.7119 251.047,42.0307 C251.047,40.4978 250.453,39.0143 249.415,37.8276 C249.316,37.7287 249.267,37.6298 249.168,37.5804 C247.585,36.0475 245.756,35.108 243.629,34.2179 L238.784,31.9433 C236.262,30.7565 233.097,29.2731 230.971,27.0974 C228.004,24.2789 226.916,21.1637 226.916,17.554 C226.916,13.0542 228.548,8.7523 231.663,5.3898 C234.185,2.7196 238.536,0 245.558,0 C249.613,0 252.827,0.7912 256.041,2.9669 C257.673,4.0053 259.107,5.2909 260.343,6.8238 C261.579,8.2578 261.381,10.4335 259.898,11.7191 C259.799,11.818 259.7,11.8675 259.552,11.9664 L255.25,14.7849 Z" id="Path"></path>
            <path d="M144.536,44.503 C145.327,44.9481 145.624,45.9865 145.179,46.7776 L145.129,46.8271 C142.904,50.3873 139.937,53.4037 136.476,55.7277 C131.877,58.6946 125.845,60.0296 119.763,60.0296 C112.197,60.0296 106.016,58.1506 100.626,52.7608 C95.237,47.371 92.27,39.5583 92.27,31.0532 C92.27,22.301 95.385,13.7959 101.319,7.7633 C106.016,3.0657 112.247,0.0989 120.307,0.0989 C129.306,0.0989 135.091,4.0053 138.503,7.5161 C143.448,12.3619 146.316,18.988 146.415,25.9601 C146.415,25.9601 146.91,32.8828 140.976,32.8828 L107.648,33.0806 C106.758,33.0806 106.016,33.8223 106.016,34.7124 C106.016,34.8113 106.016,34.9102 106.016,34.9596 C106.61,38.4704 108.241,42.1295 110.615,44.503 C113.73,47.6183 117.488,48.1622 120.702,48.1622 C124.361,48.1622 127.031,47.371 129.751,45.3437 C131.482,43.9591 133.015,42.3273 134.201,40.4483 C134.696,39.7066 135.635,39.5088 136.377,39.9538 L144.536,44.503 Z M130.839,22.301 C131.778,22.301 132.52,21.5592 132.52,20.6197 C132.52,20.4219 132.471,20.2736 132.421,20.0758 C131.729,17.999 130.542,16.12 128.96,14.6365 C127.229,13.0048 124.361,11.4224 120.059,11.4224 C115.461,11.4224 112.494,13.3015 110.763,15.0816 C109.329,16.4661 108.192,18.1968 107.45,20.0758 C107.104,20.9164 107.549,21.9054 108.39,22.2515 C108.587,22.3504 108.785,22.3504 109.032,22.3504 L130.839,22.301 Z" id="Shape"></path>
            <path d="M72.985,0.0989 L51.3763,0.0989 C49.9918,0.0989 48.6567,0.7912 47.8655,2.0274 L42.7724,9.6423 C41.8329,11.0269 41.8329,12.9059 42.7724,14.2904 L42.9702,14.5871 C44.2558,16.565 46.8765,17.0595 48.8545,15.7244 C49.2995,15.4277 49.6951,15.0321 49.9918,14.5871 L53.9476,8.7028 C54.2443,8.2578 54.7387,8.0105 55.2332,8.0105 L62.057,8.0105 C62.8976,8.0105 63.6394,8.7028 63.5899,9.5929 C63.5899,9.8896 63.491,10.1862 63.3427,10.4335 L50.4862,29.817 C49.9918,30.5093 49.0523,30.7071 48.2611,30.2621 C48.1127,30.1632 47.9644,30.0148 47.816,29.817 L29.2731,1.9779 C28.482,0.8406 27.1469,0.0494 25.7623,0.0494 L4.2031,0.0494 C1.8296,0.0494 0,1.9779 0,4.2525 C0,5.0931 0.2472,5.8843 0.6923,6.626 L35.0585,58.1506 C36.3442,60.1286 38.9649,60.623 40.9428,59.2879 C41.3384,59.0407 41.6845,58.6946 41.9812,58.299 L46.4315,51.6235 C46.8765,50.9313 47.0743,50.1401 47.0743,49.2995 C47.0249,46.7777 44.9481,44.7997 42.4757,44.8492 C41.9812,44.8492 41.5362,44.9481 41.0912,45.047 C40.6461,45.1953 40.2505,45.3931 39.855,45.6404 C39.6572,45.7887 39.4594,45.937 39.2616,46.0854 C39.1132,46.1843 38.9154,46.2337 38.7671,46.2337 C38.421,46.2832 38.0748,46.1843 37.7781,45.937 C37.6298,45.8381 37.4815,45.6898 37.3331,45.492 L13.8948,10.3346 C13.4004,9.5929 13.5982,8.6534 14.3399,8.1094 C14.5871,7.9611 14.8838,7.8622 15.1805,7.8622 L21.8559,7.8622 C22.3999,7.8622 22.8449,8.1094 23.1416,8.5545 L43.8108,39.5583 L45.5415,42.2284 C46.8271,44.2064 49.4478,44.7009 51.4258,43.3658 C51.8708,43.0691 52.2664,42.6735 52.563,42.2284 L54.2937,39.5583 C54.2937,39.5583 75.4574,7.8622 75.5068,7.8622 L76.3969,6.5271 C77.6826,4.5492 77.1386,1.9779 75.2102,0.6428 C74.6662,0.3461 73.8256,0.0989 72.985,0.0989 Z" id="Path"></path>
        </g>
    </g>
</svg>