<svg width="300" height="61" viewBox="0 0 300 61" fill="none" xmlns="http://www.w3.org/2000/svg">
<g clip-path="url(#clip0_1899_23)">
<path d="M197.346 14.7876C195.962 15.6777 194.132 15.4799 192.995 14.2931C191.314 12.6119 189.039 11.6724 186.666 11.6724C185.182 11.6229 183.699 12.1174 182.611 13.1558C181.82 13.947 181.424 15.0348 181.375 16.1227C181.375 17.6061 182.067 18.5456 183.254 19.3368C184.045 19.8807 184.885 20.1279 187.704 21.6114L194.429 24.9738C197.396 26.4573 200.214 27.9407 202.39 30.2153C205.505 33.3305 206.544 36.8413 206.544 40.7477C206.593 45.5441 204.813 50.1428 201.549 53.703C197.099 58.5489 191.561 60.0323 185.627 60.0323C181.968 60.0323 177.419 59.4884 173.364 56.3732C170.941 54.4448 168.914 52.0713 167.529 49.3022C166.639 47.621 167.282 45.5441 168.963 44.6541C169.013 44.6541 169.062 44.6046 169.112 44.6046L173.71 42.4289C175.391 41.6378 177.369 42.2806 178.21 43.9124C178.655 44.8024 179.248 45.5936 179.941 46.2859C180.732 47.077 182.611 48.4616 185.726 48.4616C187.753 48.4616 189.929 47.7693 191.116 46.5826C192.253 45.3958 192.945 43.8135 192.995 42.1323C192.995 40.5994 192.402 39.0665 191.363 37.9292C191.264 37.8303 191.215 37.7314 191.116 37.6819C189.534 36.1491 187.655 35.2095 185.578 34.3195L180.732 32.0449C178.161 30.8581 175.095 29.3747 172.919 27.199C169.952 24.3805 168.864 21.2652 168.864 17.6061C168.864 13.1064 170.546 8.75486 173.562 5.49136C176.133 2.82116 180.435 0.101562 187.457 0.101562C191.511 0.101562 194.726 0.892663 197.989 3.06836C199.621 4.10686 201.055 5.39246 202.291 6.87586C203.527 8.35936 203.329 10.5351 201.846 11.7218C201.747 11.8207 201.648 11.8702 201.5 11.9691L197.346 14.7876Z" fill="#2A2A2C"/>
<path d="M300 2.67389V56.4237C300 58.4016 298.368 60.0334 296.39 60.0334H289.962C287.984 60.0334 286.352 58.4016 286.352 56.4237V9.89329C286.352 8.80539 286.847 7.76699 287.737 7.07469L295.846 0.646494C296.984 -0.243606 298.566 -0.0458056 299.456 1.04209C299.802 1.48709 300 2.08049 300 2.67389Z" fill="#2A2A2C"/>
<path d="M255.251 14.7849C253.866 15.675 252.037 15.4772 250.85 14.2904C249.169 12.6092 246.894 11.6697 244.521 11.6697C243.037 11.6202 241.603 12.1147 240.466 13.1531C239.675 13.9443 239.279 14.9827 239.279 16.12C239.279 17.6034 239.971 18.5429 241.158 19.3341C241.949 19.878 242.79 20.1253 245.608 21.6087L252.383 24.9217C255.35 26.4051 258.218 27.8886 260.344 30.2126C263.41 33.2784 264.547 36.8386 264.547 40.6956C264.596 45.492 262.816 50.0907 259.553 53.6509C255.102 58.5462 249.614 59.9802 243.63 59.9802C240.021 59.9802 235.422 59.4363 231.367 56.3705C228.944 54.4915 226.917 52.0191 225.483 49.2995C224.593 47.6183 225.236 45.492 226.917 44.602C226.967 44.602 227.016 44.5525 227.065 44.5525L231.714 42.3768C233.345 41.5856 235.323 42.2285 236.263 43.8602C236.708 44.7503 237.301 45.5415 237.993 46.2337C238.785 47.0249 240.664 48.36 243.779 48.36C245.806 48.36 247.982 47.7172 249.169 46.481C250.306 45.2942 250.998 43.7119 251.048 42.0307C251.048 40.4978 250.454 39.0143 249.416 37.8276C249.317 37.7287 249.268 37.6298 249.169 37.5804C247.586 36.0475 245.757 35.108 243.63 34.2179L238.785 31.9433C236.263 30.7565 233.098 29.2731 230.972 27.0974C228.005 24.2789 226.917 21.1637 226.917 17.554C226.917 13.0542 228.549 8.7523 231.664 5.3898C234.186 2.7196 238.537 0 245.559 0C249.614 0 252.828 0.7912 256.042 2.9669C257.674 4.0053 259.108 5.2909 260.344 6.8238C261.58 8.2578 261.382 10.4335 259.899 11.7191C259.8 11.818 259.701 11.8675 259.553 11.9664L255.251 14.7849Z" fill="#2A2A2C"/>
<path d="M144.536 44.5057C145.327 44.9508 145.624 45.9892 145.179 46.7803L145.129 46.8298C142.904 50.39 139.937 53.4064 136.476 55.7304C131.877 58.6973 125.845 60.0323 119.763 60.0323C112.197 60.0323 106.016 58.1533 100.626 52.7635C95.2365 47.3737 92.2695 39.561 92.2695 31.0559C92.2695 22.3037 95.3845 13.7986 101.319 7.76596C106.016 3.06836 112.247 0.101562 120.307 0.101562C129.306 0.101562 135.091 4.00796 138.503 7.51876C143.448 12.3646 146.316 18.9907 146.415 25.9628C146.415 25.9628 146.91 32.8855 140.976 32.8855L107.648 33.0833C106.758 33.0833 106.016 33.825 106.016 34.7151C106.016 34.814 106.016 34.9129 106.016 34.9623C106.61 38.4731 108.241 42.1322 110.615 44.5057C113.73 47.621 117.488 48.1649 120.702 48.1649C124.361 48.1649 127.031 47.3737 129.751 45.3464C131.482 43.9618 133.015 42.33 134.201 40.451C134.696 39.7093 135.635 39.5115 136.377 39.9565L144.536 44.5057ZM130.839 22.3037C131.778 22.3037 132.52 21.5619 132.52 20.6224C132.52 20.4246 132.471 20.2763 132.421 20.0785C131.729 18.0017 130.542 16.1227 128.96 14.6392C127.229 13.0075 124.361 11.4251 120.059 11.4251C115.461 11.4251 112.494 13.3042 110.763 15.0843C109.329 16.4688 108.192 18.1995 107.45 20.0785C107.104 20.9191 107.549 21.9081 108.39 22.2542C108.587 22.3531 108.785 22.3531 109.032 22.3531L130.839 22.3037Z" fill="#2A2A2C"/>
<path d="M72.985 0.096375H51.3763C49.9918 0.096375 48.6567 0.788675 47.8655 2.02488L42.7724 9.63977C41.8329 11.0244 41.8329 12.9034 42.7724 14.2879L42.9702 14.5846C44.2558 16.5625 46.8765 17.057 48.8545 15.7219C49.2995 15.4252 49.6951 15.0296 49.9918 14.5846L53.9476 8.70027C54.2443 8.25527 54.7387 8.00798 55.2332 8.00798H62.057C62.8976 8.00798 63.6394 8.70027 63.5899 9.59037C63.5899 9.88707 63.491 10.1837 63.3427 10.431L50.4862 29.8145C49.9918 30.5068 49.0523 30.7046 48.2611 30.2596C48.1127 30.1607 47.9644 30.0123 47.816 29.8145L29.2731 1.97538C28.482 0.838075 27.1469 0.046875 25.7623 0.046875H4.2031C1.8296 0.046875 0 1.97538 0 4.24998C0 5.09058 0.2472 5.88178 0.6923 6.62348L35.0585 58.1481C36.3442 60.1261 38.9649 60.6205 40.9428 59.2854C41.3384 59.0382 41.6845 58.6921 41.9812 58.2965L46.4315 51.621C46.8765 50.9288 47.0743 50.1376 47.0743 49.297C47.0249 46.7752 44.9481 44.7972 42.4757 44.8467C41.9812 44.8467 41.5362 44.9456 41.0912 45.0445C40.6461 45.1928 40.2505 45.3906 39.855 45.6379C39.6572 45.7862 39.4594 45.9345 39.2616 46.0829C39.1132 46.1818 38.9154 46.2312 38.7671 46.2312C38.421 46.2807 38.0748 46.1818 37.7781 45.9345C37.6298 45.8356 37.4815 45.6873 37.3331 45.4895L13.8948 10.3321C13.4004 9.59038 13.5982 8.65087 14.3399 8.10687C14.5871 7.95857 14.8838 7.85967 15.1805 7.85967H21.8559C22.3999 7.85967 22.8449 8.10687 23.1416 8.55197L43.8108 39.5558L45.5415 42.2259C46.8271 44.2039 49.4478 44.6984 51.4258 43.3633C51.8708 43.0666 52.2664 42.671 52.563 42.2259L54.2937 39.5558C54.2937 39.5558 75.4574 7.85967 75.5068 7.85967L76.3969 6.52458C77.6826 4.54668 77.1386 1.97538 75.2102 0.640275C74.6662 0.343575 73.8256 0.096375 72.985 0.096375Z" fill="#2A2A2C"/>
</g>
<defs>
<clipPath id="clip0_1899_23">
<rect width="300" height="61" fill="white"/>
</clipPath>
</defs>
</svg>
