<?xml version="1.0" encoding="UTF-8" standalone="no"?>
<svg width="35px" height="27px" viewBox="0 0 35 27" version="1.1" xmlns="http://www.w3.org/2000/svg" xmlns:xlink="http://www.w3.org/1999/xlink">
    <!-- Generator: Sketch 3.6 (26304) - http://www.bohemiancoding.com/sketch -->
    <title>common-email-envelope-mail-outline-stroke</title>
    <desc>Created with Sketch.</desc>
    <defs></defs>
    <g id="Page-1" stroke="none" stroke-width="1" fill="none" fill-rule="evenodd">
        <g id="contacticons" transform="translate(-52.000000, -6.000000)" stroke-width="0.5" stroke="#FFFFFF" fill="#FFFFFF">
            <g id="Page-1">
                <g id="Group-2">
                    <path d="M85.109375,10.1191499 L85.109375,8.52173913 L54.171875,8.52173913 L54.171875,10.1191499 L69.640625,22.1194243 L85.109375,10.1191499 L85.109375,10.1191499 L85.109375,10.1191499 Z M85.109375,12.0863981 L85.109375,29.3275353 L75.4594382,19.5582623 L85.109375,12.0863981 L85.109375,12.0863981 L85.109375,12.0863981 Z M84.0160345,30.4347826 L55.2708493,30.4347826 L65.0642495,20.5202699 L69.640625,24.0637186 L74.2201918,20.5177984 L84.0160345,30.4347826 L84.0160345,30.4347826 L84.0160345,30.4347826 Z M54.171875,29.333239 L54.171875,12.0863981 L63.8250046,19.5607337 L54.171875,29.333239 L54.171875,29.333239 L54.171875,29.333239 Z M52.625,6.95652174 L86.65625,6.95652174 L86.65625,32 L52.625,32 L52.625,6.95652174 L52.625,6.95652174 L52.625,6.95652174 Z" id="common-email-envelope-mail-outline-stroke"></path>
                </g>
            </g>
        </g>
    </g>
</svg>