<?xml version="1.0" encoding="UTF-8" standalone="no"?>
<svg width="45px" height="118px" viewBox="0 0 45 118" version="1.1" xmlns="http://www.w3.org/2000/svg" xmlns:xlink="http://www.w3.org/1999/xlink">
    <!-- Generator: Sketch 3.6 (26304) - http://www.bohemiancoding.com/sketch -->
    <title>Group 2</title>
    <desc>Created with Sketch.</desc>
    <defs></defs>
    <g id="Page-1" stroke="none" stroke-width="1" fill="none" fill-rule="evenodd">
        <g id="Group-2" fill="#FFFFFF">
            <g id="noun_251412_cc" transform="translate(0.000000, 0.767173)">
                <g id="Page-1">
                    <g id="noun_251412_cc">
                        <g id="Group">
                            <g id="Shape">
                                <path d="M43.9899546,10.5079708 C43.8236026,10.8376327 43.7404266,11.1260868 43.5602119,11.3458613 C38.4864766,17.774267 33.385016,24.1889368 28.2974181,30.6173425 C26.7863876,32.5266339 25.2753571,34.4359253 23.7643267,36.3452168 C23.0157427,37.2929946 22.4612362,37.3204663 21.6572016,36.3864245 C15.0447105,28.7767306 8.44608207,21.1533008 1.84745367,13.5436068 C1.3622604,12.9941705 0.87706713,12.4447341 0.40573653,11.8815618 C-0.148770061,11.235974 -0.134907396,10.7964249 0.447324522,10.2057808 C3.59414943,7.0190498 6.75483701,3.83231878 9.88779924,0.645587749 C10.3175418,0.206038644 10.7888725,8.8817842e-15 11.4126924,8.8817842e-15 C18.3578874,0.0137359096 25.3169451,0.0137359096 32.2621402,8.8817842e-15 C33.0384494,8.8817842e-15 33.6068186,0.233510463 34.1474625,0.769210938 C37.2111115,3.74990332 40.3024857,6.7031239 43.3661346,9.67008035 C43.6156626,9.90359082 43.7820146,10.2057808 43.9899546,10.5079708 L43.9899546,10.5079708 L43.9899546,10.5079708 L43.9899546,10.5079708 Z M22.5444122,32.3205953 C22.5998628,32.3205953 22.6553135,32.3068594 22.7107641,32.3068594 C24.5406359,25.5762637 26.3705076,18.845668 28.214242,12.0463927 L16.0012344,12.0463927 C18.2053981,18.8594039 20.3679738,25.5899995 22.5444122,32.3205953 L22.5444122,32.3205953 L22.5444122,32.3205953 L22.5444122,32.3205953 Z M3.13668149,12.0189209 C8.84809935,18.5984216 14.4347533,25.0405632 20.0214072,31.4689689 C19.6055272,29.6420929 19.037158,27.9113683 18.4826514,26.1669077 C17.0270716,21.6615294 15.5714918,17.1424151 14.1436373,12.6370368 C13.991148,12.15628 13.7693453,11.9914491 13.2702894,12.0189209 C12.4246669,12.0601286 11.5651817,12.0189209 10.7056964,12.0189209 L3.13668149,12.0189209 L3.13668149,12.0189209 L3.13668149,12.0189209 L3.13668149,12.0189209 Z M40.5104257,12.0189209 L32.2066895,12.0189209 C31.5828696,12.0189209 30.8065604,11.8403541 30.3906804,12.1425441 C29.9886631,12.4447341 29.9748005,13.2414168 29.7945858,13.832061 C29.7945858,13.8595328 29.7807232,13.8732687 29.7807232,13.9007405 C28.3251434,19.2165375 26.8834262,24.5323345 25.4278464,29.8618674 C25.3030824,30.3288884 25.1921811,30.8096452 25.0674171,31.2904021 C25.1090051,31.3178739 25.1644558,31.3316098 25.2060438,31.3590816 C30.2659164,24.9444118 35.3396517,18.5572139 40.5104257,12.0189209 L40.5104257,12.0189209 L40.5104257,12.0189209 L40.5104257,12.0189209 Z M27.3547568,10.0821576 C25.5803357,7.62342984 23.9029533,5.3020611 22.1978455,2.92574875 C20.3956991,5.34326883 18.6767287,7.65090167 16.8745822,10.0821576 L27.3547568,10.0821576 L27.3547568,10.0821576 L27.3547568,10.0821576 L27.3547568,10.0821576 Z M40.9817563,10.0684217 C38.3755753,7.56848618 35.9218837,5.21964565 33.385016,2.78838965 C32.5393934,5.28832519 31.7492215,7.63716572 30.9313243,10.0684217 L40.9817563,10.0684217 L40.9817563,10.0684217 L40.9817563,10.0684217 L40.9817563,10.0684217 Z M10.5532072,2.80212556 C8.14110348,5.24711746 5.81217578,7.58222212 3.40007212,10.027214 L13.2009761,10.027214 C12.3137655,7.60969389 11.468143,5.28832519 10.5532072,2.80212556 L10.5532072,2.80212556 L10.5532072,2.80212556 L10.5532072,2.80212556 Z M15.0308478,9.23053124 C16.8468569,6.78553934 18.5935527,4.45043471 20.3956991,2.03291462 L12.3969416,2.03291462 C13.2702894,4.4366988 14.1297746,6.77180345 15.0308478,9.23053124 L15.0308478,9.23053124 L15.0308478,9.23053124 L15.0308478,9.23053124 Z M23.9861293,2.01917871 C25.732825,4.4366988 27.3963448,6.74433162 29.1291779,9.16185169 C29.9748005,6.67565207 30.7511097,4.38175516 31.5412816,2.01917871 L23.9861293,2.01917871 L23.9861293,2.01917871 L23.9861293,2.01917871 L23.9861293,2.01917871 Z"></path>
                            </g>
                        </g>
                    </g>
                </g>
            </g>
            <g id="noun_360544_cc" transform="translate(0.849057, 47.539568)">
                <g id="Page-1" transform="translate(0.000000, 0.000000)">
                    <g id="noun_360544_cc" transform="translate(0.000000, 0.000000)">
                        <g id="Group" transform="translate(0.000000, 0.000000)">
                            <path d="M0.00668953688,34.8057554 L42.8197256,34.8057554 L42.8197256,1.0658141e-13 L0.00668953688,1.0658141e-13 L0.00668953688,34.8057554 L0.00668953688,34.8057554 L0.00668953688,34.8057554 Z M1.34459691,1.3386829 L41.4818182,1.3386829 L41.4818182,33.4670725 L1.34459691,33.4670725 L1.34459691,1.3386829 L1.34459691,1.3386829 L1.34459691,1.3386829 Z" id="Shape"></path>
                            <rect id="Rectangle-path" x="22.7511149" y="18.7415606" width="14.7169811" height="1.3386829"></rect>
                            <rect id="Rectangle-path" x="22.7511149" y="22.7576093" width="14.7169811" height="1.3386829"></rect>
                            <rect id="Rectangle-path" x="22.7511149" y="26.773658" width="14.7169811" height="1.3386829"></rect>
                            <rect id="Rectangle-path" x="5.35831904" y="6.6934145" width="14.7169811" height="1.3386829"></rect>
                            <rect id="Rectangle-path" x="5.35831904" y="10.7094632" width="14.7169811" height="1.3386829"></rect>
                            <rect id="Rectangle-path" x="5.35831904" y="14.7255119" width="14.7169811" height="1.3386829"></rect>
                            <rect id="Rectangle-path" x="5.35831904" y="18.7415606" width="14.7169811" height="1.3386829"></rect>
                            <rect id="Rectangle-path" x="5.35831904" y="22.7576093" width="14.7169811" height="1.3386829"></rect>
                            <rect id="Rectangle-path" x="5.35831904" y="26.773658" width="14.7169811" height="1.3386829"></rect>
                            <path d="M26.3367067,16.1016779 L30.1096055,12.3252535 L33.8838422,16.1016779 L34.8297427,15.1552291 L31.055506,11.3788046 L34.8297427,7.60238019 L33.8838422,6.65593138 L30.1096055,10.4323558 L26.3367067,6.65593138 L25.3908062,7.60238019 L29.163705,11.3788046 L25.3908062,15.1552291 L26.3367067,16.1016779 L26.3367067,16.1016779 Z" id="Shape"></path>
                        </g>
                    </g>
                </g>
            </g>
            <g id="noun_45869_cc" transform="translate(0.849057, 91.513669)">
                <g id="Page-1">
                    <g id="noun_45869_cc">
                        <path d="M25.578,0 L16.0366415,26.4863309 L18.9129057,26.4863309 L28.4542642,0 L25.578,0 L25.578,0 L25.578,0 Z M13.245283,3.82014388 L12.5021887,4.29757698 L0.955018868,11.7680806 L0.339283019,12.1606216 L0.339283019,13.6037871 L0.912566038,14.0177209 L12.4597358,22.1673612 L13.245283,22.7086331 L13.245283,19.3873151 L4.12845283,12.9460432 L13.245283,7.04604317 L13.245283,3.82014388 L13.245283,3.82014388 L13.245283,3.82014388 Z M30.9056604,3.82014388 L30.9056604,7.04604317 L40.0224906,12.9460432 L30.9056604,19.3873151 L30.9056604,22.7086331 L31.6912075,22.1673612 L43.2383774,14.0177209 L43.8116604,13.6037871 L43.8116604,12.1606216 L43.1959245,11.7680806 L31.6487547,4.29757698 L30.9056604,3.82014388 L30.9056604,3.82014388 L30.9056604,3.82014388 Z" id="Shape"></path>
                    </g>
                </g>
            </g>
        </g>
    </g>
</svg>