<?xml version="1.0" encoding="UTF-8" standalone="no"?>
<svg width="34px" height="33px" viewBox="0 0 34 33" version="1.1" xmlns="http://www.w3.org/2000/svg" xmlns:xlink="http://www.w3.org/1999/xlink">
    <!-- Generator: Sketch 3.6 (26304) - http://www.bohemiancoding.com/sketch -->
    <title>Group</title>
    <desc>Created with Sketch.</desc>
    <defs></defs>
    <g id="Page-1" stroke="none" stroke-width="1" fill="none" fill-rule="evenodd">
        <g id="contacticons" transform="translate(1.000000, 1.000000)" stroke-width="1.3" stroke="#FFFFFF">
            <g id="Page-1">
                <g id="Group-2">
                    <g id="1459366800_linkedin">
                        <g id="IEbfqx.tif">
                            <g id="Group">
                                <path d="M11.8207031,30.6372766 C11.8285807,29.4805211 11.8285807,28.3237655 11.8364583,27.1670099 C11.8364583,26.2017173 11.8443359,25.2444023 11.8443359,24.2791097 C11.8443359,22.571898 11.8522135,20.8567087 11.8522135,19.149497 C11.8522135,17.9129652 11.8600911,16.684411 11.8600911,15.4478791 C11.8600911,14.1953921 11.8522135,12.942905 11.8443359,11.6904179 C11.8443359,11.4909773 11.8364583,11.2915367 11.8285807,11.092096 L11.8285807,10.9405212 C11.9152344,10.9165883 18.1700521,10.9086107 18.3039714,10.9325435 L18.3039714,13.6449359 C18.311849,13.6449359 18.3197266,13.6529136 18.3276042,13.6529136 C18.351237,13.6210031 18.3748698,13.5890926 18.3985026,13.5492045 C18.7529948,13.006726 19.1547526,12.5041356 19.6352865,12.0653663 C20.3994141,11.3633353 21.2895833,10.900633 22.2979167,10.6533267 C23.0305339,10.4778189 23.7710286,10.4219756 24.519401,10.4538861 C25.2598958,10.4857966 25.9846354,10.5974833 26.6936198,10.836812 C28.4266927,11.411201 29.694987,12.5440237 30.530013,14.1874144 C30.9238932,14.9692217 31.1838542,15.7988946 31.3492839,16.6525005 C31.4359375,17.0992475 31.4910807,17.5459944 31.5304688,18.0007191 C31.5383464,18.0884729 31.5383464,18.1842044 31.5383464,18.2719583 C31.5383464,18.319824 31.5541016,18.3676898 31.5619792,18.4075779 L31.5619792,30.629299 L25.1023438,30.629299 L25.1023438,30.5096347 L25.1023438,20.042991 C25.1023438,19.5483783 25.0708333,19.0537655 24.9841797,18.5591528 C24.897526,18.0725177 24.7636068,17.6098154 24.5351563,17.1710461 C24.2358073,16.5886795 23.8025391,16.1419325 23.1959635,15.8786709 C22.8414714,15.727096 22.471224,15.6473198 22.0852214,15.6233869 C21.6834635,15.599454 21.2817057,15.6313645 20.8957031,15.7350736 C20.1630859,15.9345142 19.5722656,16.3573284 19.107487,16.9636278 C18.7923828,17.3784643 18.5402995,17.8331889 18.4142578,18.3437569 C18.3276042,18.7187053 18.3039714,19.1016313 18.3039714,19.4845573 L18.3039714,30.501657 L18.3039714,30.6213214 C16.1376302,30.6372766 13.9791667,30.6372766 11.8207031,30.6372766 L11.8207031,30.6372766 L11.8207031,30.6372766 Z" id="Shape"></path>
                                <path d="M0.401757812,30.6372766 L0.401757812,30.4857018 L0.401757812,11.1000737 L0.401757812,10.9325435 L6.87714844,10.9325435 L6.87714844,11.1000737 L6.87714844,21.1199703 L6.87714844,30.4857018 C6.87714844,30.5335675 6.88502604,30.5894109 6.88502604,30.6372766 L0.401757812,30.6372766 L0.401757812,30.6372766 L0.401757812,30.6372766 Z" id="Shape"></path>
                                <path d="M4.05696615,0.031910499 C4.1672526,0.0478657484 4.26966146,0.0638209979 4.37994792,0.0797762474 C5.01803385,0.175507744 5.60097656,0.406858862 6.09726563,0.821695348 C6.67233073,1.29237521 7.02682292,1.89867469 7.20013021,2.62463854 C7.3734375,3.37453527 7.33404948,4.10847674 7.02682292,4.81848534 C6.64082031,5.71197931 5.96334635,6.29434592 5.06529948,6.62142853 C4.62415365,6.78098103 4.1672526,6.84480203 3.70247396,6.85277965 C3.05651042,6.86075728 2.43417969,6.75704816 1.85123698,6.46187604 C0.866536458,5.96726331 0.275716146,5.16152321 0.0708984375,4.06858862 C0.047265625,3.9648795 0.0236328125,3.86117037 0,3.75746125 L0,3.11127365 C0.0236328125,2.9995869 0.047265625,2.89587778 0.0708984375,2.78419103 C0.220572917,1.98642856 0.598697917,1.32428571 1.22890625,0.813717724 C1.74882813,0.398881237 2.33964844,0.16753012 2.98561198,0.0717986227 C3.08802083,0.0558433732 3.19042969,0.0398881237 3.29283854,0.0239328742 C3.55279948,0.031910499 3.80488281,0.031910499 4.05696615,0.031910499 L4.05696615,0.031910499 L4.05696615,0.031910499 Z" id="Shape"></path>
                            </g>
                        </g>
                    </g>
                </g>
            </g>
        </g>
    </g>
</svg>