<?xml version="1.0" encoding="UTF-8" standalone="no"?>
<svg width="81px" height="68px" viewBox="0 0 81 68" version="1.1" xmlns="http://www.w3.org/2000/svg" xmlns:xlink="http://www.w3.org/1999/xlink">
    <!-- Generator: Sketch 3.6 (26304) - http://www.bohemiancoding.com/sketch -->
    <title>noun_251412_cc</title>
    <desc>Created with Sketch.</desc>
    <defs></defs>
    <g id="Page-1" stroke="none" stroke-width="1" fill="none" fill-rule="evenodd">
        <g id="noun_251412_cc" fill="#000000">
            <g id="Group">
                <g id="Shape">
                    <path d="M80.7046474,19.2811675 C80.3994555,19.8860669 80.2468595,20.4153538 79.916235,20.8186201 C70.6078821,32.6141578 61.248664,44.3844914 51.9148785,56.1800292 C49.1427187,59.6834047 46.370559,63.1867802 43.5983993,66.6901558 C42.2250357,68.4292415 41.2077294,68.4796497 39.7326353,66.7657682 C27.6012574,52.8026743 15.4953121,38.8143764 3.38936692,24.8512825 C2.49922388,23.8431169 1.60908085,22.8349513 0.74437048,21.8015815 C-0.272935842,20.6169869 -0.247503184,19.8104544 0.82066845,18.7266764 C6.59388183,12.8793158 12.3925279,7.0319552 18.1403086,1.1845946 C18.928721,0.378062107 19.7934314,1.42108547e-14 20.937901,1.42108547e-14 C33.6796626,0.0252041405 46.446857,0.0252041405 59.1886187,1.42108547e-14 C60.6128475,1.42108547e-14 61.6555865,0.428470388 62.6474601,1.41143187 C68.2680776,6.88073036 73.9395603,12.2996206 79.5601777,17.7437149 C80.0179656,18.1721853 80.3231575,18.7266764 80.7046474,19.2811675 L80.7046474,19.2811675 L80.7046474,19.2811675 Z M41.3603254,59.3053426 C41.462056,59.3053426 41.5637866,59.2801385 41.6655173,59.2801385 C45.0226281,46.9301096 48.379739,34.5800808 51.7622825,22.1040312 L29.3561108,22.1040312 C33.3999034,34.6052849 37.3673981,46.9553137 41.3603254,59.3053426 L41.3603254,59.3053426 L41.3603254,59.3053426 Z M5.75460411,22.0536229 C16.2328592,34.1264062 26.4822204,45.9471481 36.7315816,57.7426859 C35.9686019,54.3905352 34.9258629,51.2148135 33.9085566,48.0138876 C31.2381275,39.7469296 28.5676984,31.4547673 25.9481346,23.1878093 C25.6683754,22.3056643 25.2614528,22.0032147 24.3458771,22.0536229 C22.794485,22.1292354 21.2176602,22.0536229 19.6408354,22.0536229 L5.75460411,22.0536229 L5.75460411,22.0536229 L5.75460411,22.0536229 Z M74.3210502,22.0536229 L59.086888,22.0536229 C57.9424184,22.0536229 56.5181896,21.7259691 55.7552098,22.2804602 C55.0176627,22.8349513 54.9922301,24.2967914 54.6616055,25.3805695 C54.6616055,25.4309778 54.6361729,25.4561819 54.6361729,25.5065902 C51.9657438,35.2605926 49.3207473,45.0145949 46.6503182,54.7938014 C46.4214243,55.6507422 46.2179631,56.5328871 45.9890691,57.4150321 C46.0653671,57.4654403 46.1670977,57.4906445 46.2433957,57.5410528 C55.5263159,45.7707191 64.8346687,34.0507938 74.3210502,22.0536229 L74.3210502,22.0536229 L74.3210502,22.0536229 Z M50.1854577,18.4998391 C46.9300775,13.988298 43.8527259,9.72879823 40.7245089,5.36848193 C37.4182634,9.80441065 34.2646138,14.0387063 30.9583682,18.4998391 L50.1854577,18.4998391 L50.1854577,18.4998391 L50.1854577,18.4998391 Z M75.1857606,18.474635 C70.4044208,13.8874814 65.9028404,9.57757339 61.248664,5.11644052 C59.6972718,9.70359409 58.2476103,14.0135021 56.7470835,18.474635 L75.1857606,18.474635 L75.1857606,18.474635 L75.1857606,18.474635 Z M19.3610762,5.14164466 C14.9357937,9.62798167 10.6631071,13.9126856 6.23782462,18.3990226 L24.2187138,18.3990226 C22.5910237,13.9630938 21.0396316,9.70359409 19.3610762,5.14164466 L19.3610762,5.14164466 L19.3610762,5.14164466 Z M27.5758247,16.9371824 C30.9075029,12.4508454 34.1120178,8.16614152 37.4182634,3.73021279 L22.7436197,3.73021279 C24.3458771,8.14093738 25.9227019,12.4256413 27.5758247,16.9371824 L27.5758247,16.9371824 L27.5758247,16.9371824 Z M44.0053218,3.70500865 C47.2098367,8.14093738 50.2617557,12.375233 53.4408379,16.8111617 C54.9922301,12.2492123 56.4164589,8.04012082 57.8661204,3.70500865 L44.0053218,3.70500865 L44.0053218,3.70500865 L44.0053218,3.70500865 Z"></path>
                </g>
            </g>
        </g>
    </g>
</svg>