<?xml version="1.0" encoding="UTF-8" standalone="no"?>
<svg width="33px" height="26px" viewBox="0 0 33 26" version="1.1" xmlns="http://www.w3.org/2000/svg" xmlns:xlink="http://www.w3.org/1999/xlink">
    <!-- Generator: Sketch 3.6 (26304) - http://www.bohemiancoding.com/sketch -->
    <title>noun_360544_cc</title>
    <desc>Created with Sketch.</desc>
    <defs></defs>
    <g id="Page-1" stroke="none" stroke-width="1" fill="none" fill-rule="evenodd">
        <g id="noun_360544_cc" fill="#000000">
            <g id="Group">
                <path d="M0.005,26 L32.005,26 L32.005,0 L0.005,0 L0.005,26 L0.005,26 Z M1.005,1 L31.005,1 L31.005,25 L1.005,25 L1.005,1 L1.005,1 Z" id="Shape"></path>
                <rect id="Rectangle-path" x="17.005" y="14" width="11" height="1"></rect>
                <rect id="Rectangle-path" x="17.005" y="17" width="11" height="1"></rect>
                <rect id="Rectangle-path" x="17.005" y="20" width="11" height="1"></rect>
                <rect id="Rectangle-path" x="4.005" y="5" width="11" height="1"></rect>
                <rect id="Rectangle-path" x="4.005" y="8" width="11" height="1"></rect>
                <rect id="Rectangle-path" x="4.005" y="11" width="11" height="1"></rect>
                <rect id="Rectangle-path" x="4.005" y="14" width="11" height="1"></rect>
                <rect id="Rectangle-path" x="4.005" y="17" width="11" height="1"></rect>
                <rect id="Rectangle-path" x="4.005" y="20" width="11" height="1"></rect>
                <path d="M19.685,12.028 L22.505,9.207 L25.326,12.028 L26.033,11.321 L23.212,8.5 L26.033,5.679 L25.326,4.972 L22.505,7.793 L19.685,4.972 L18.978,5.679 L21.798,8.5 L18.978,11.321 L19.685,12.028 Z" id="Shape"></path>
            </g>
        </g>
    </g>
</svg>