<?xml version="1.0" encoding="UTF-8" standalone="no"?>
<svg width="128px" height="78px" viewBox="0 0 128 78" version="1.1" xmlns="http://www.w3.org/2000/svg" xmlns:xlink="http://www.w3.org/1999/xlink">
    <!-- Generator: Sketch 3.6 (26304) - http://www.bohemiancoding.com/sketch -->
    <title>noun_45869_cc</title>
    <desc>Created with Sketch.</desc>
    <defs></defs>
    <g id="Page-1" stroke="none" stroke-width="1" fill="none" fill-rule="evenodd">
        <g id="noun_45869_cc" transform="translate(-1.000000, 0.000000)" fill="#000000">
            <path d="M75.313,0 L47.219,78 L55.688,78 L83.782,0 L75.313,0 L75.313,0 Z M39,11.25 L36.812,12.656 L2.812,34.656 L0.999,35.812 L0.999,40.062 L2.687,41.281 L36.687,65.281 L39,66.875 L39,57.094 L12.156,38.125 L39,20.75 L39,11.25 L39,11.25 Z M91,11.25 L91,20.75 L117.844,38.125 L91,57.094 L91,66.875 L93.313,65.281 L127.313,41.281 L129.001,40.062 L129.001,35.812 L127.188,34.656 L93.188,12.656 L91,11.25 L91,11.25 Z" id="Shape"></path>
        </g>
    </g>
</svg>