<?xml version="1.0" encoding="UTF-8" standalone="no"?>
<svg width="182px" height="22px" viewBox="0 0 182 22" version="1.1" xmlns="http://www.w3.org/2000/svg" xmlns:xlink="http://www.w3.org/1999/xlink">
    <!-- Generator: Sketch 3.6 (26304) - http://www.bohemiancoding.com/sketch -->
    <title>Group 13</title>
    <desc>Created with Sketch.</desc>
    <defs></defs>
    <g id="Page-1" stroke="none" stroke-width="1" fill="none" fill-rule="evenodd">
        <g id="Desktop-HD-Copy-5" transform="translate(-1013.000000, -411.000000)" fill="#FFFFFF">
            <g id="Group-13" transform="translate(1012.000000, 395.000000)">
                <text id="see-more" font-family="HelveticaNeue-Thin, Helvetica Neue" font-size="38.48" font-weight="300">
                    <tspan x="0" y="37">see more</tspan>
                </text>
                <g id="cd-arrow-bottom" transform="translate(171.562500, 27.181818) scale(-1, 1) rotate(-270.000000) translate(-171.562500, -27.181818) translate(161.684659, 15.681818)">
                    <g id="Page-1">
                        <g id="cd-arrow-bottom">
                            <path d="M19.3917614,11.6045455 C19.1318182,11.4477273 18.7678977,11.5522727 18.6639205,11.8136364 L9.87784091,21.6931818 L1.09176136,11.8136364 C0.935795455,11.5522727 0.623863636,11.5 0.363920455,11.6045455 C0.103977273,11.7613636 -1.31838984e-15,12.075 0.155965909,12.2840909 L9.35795455,22.6863636 C9.46193182,22.8431818 9.66988636,22.9477273 9.87784091,22.9477273 C10.0857955,22.9477273 10.29375,22.8431818 10.3977273,22.6863636 L19.5997159,12.3363636 C19.7556818,12.075 19.6517045,11.7613636 19.3917614,11.6045455 L19.3917614,11.6045455 L19.3917614,11.6045455 Z" id="Shape"></path>
                            <path d="M9.35795455,11.1863636 C9.46193182,11.3431818 9.66988636,11.4477273 9.87784091,11.4477273 C10.0857955,11.4477273 10.29375,11.3431818 10.3977273,11.1863636 L19.5997159,0.836363636 C19.7556818,0.575 19.6517045,0.261363636 19.3917614,0.156818182 C19.1318182,5.75928194e-16 18.7678977,0.104545455 18.6639205,0.365909091 L9.87784091,10.1931818 L1.09176136,0.313636364 C0.935795455,0.0522727273 0.623863636,5.48172618e-16 0.363920455,0.104545455 C0.103977273,0.261363636 -1.38777878e-15,0.575 0.155965909,0.836363636 L9.35795455,11.1863636 L9.35795455,11.1863636 L9.35795455,11.1863636 Z" id="Shape"></path>
                        </g>
                    </g>
                </g>
            </g>
        </g>
    </g>
</svg>